SplineFontDB: 3.0
FontName: NothingYouCouldDo
FullName: Nothing You Could Do
FamilyName: Nothing You Could Do
Weight: Book
Copyright: Copyright (c) 2010-2011, Kimberly Geswein (kimberlygeswein.com)
Version: 1.004 2010
ItalicAngle: 0
UnderlinePosition: -52
UnderlineWidth: 51
Ascent: 819
Descent: 205
sfntRevision: 0x00010148
LayerCount: 2
Layer: 0 1 "Back"  1
Layer: 1 1 "Fore"  0
XUID: [1021 288 713564382 2615260]
FSType: 0
OS2Version: 3
OS2_WeightWidthSlopeOnly: 0
OS2_UseTypoMetrics: 1
CreationTime: 1283963811
ModificationTime: 1304689051
PfmFamily: 17
TTFWeight: 400
TTFWidth: 5
LineGap: 0
VLineGap: 0
Panose: 2 0 0 0 0 0 0 0 0 0
OS2TypoAscent: 384
OS2TypoAOffset: 1
OS2TypoDescent: -304
OS2TypoDOffset: 1
OS2TypoLinegap: 0
OS2WinAscent: 1
OS2WinAOffset: 1
OS2WinDescent: 0
OS2WinDOffset: 1
HheadAscent: 1
HheadAOffset: 1
HheadDescent: 0
HheadDOffset: 1
OS2SubXSize: 717
OS2SubYSize: 666
OS2SubXOff: 0
OS2SubYOff: 143
OS2SupXSize: 717
OS2SupYSize: 666
OS2SupXOff: 0
OS2SupYOff: 488
OS2StrikeYSize: 51
OS2StrikeYPos: 256
OS2Vendor: 'PYRS'
OS2CodePages: 00000001.00000000
OS2UnicodeRanges: a000002f.4000004a.00000000.00000000
DEI: 91125
TtTable: prep
PUSHW_1
 511
SCANCTRL
PUSHB_1
 4
SCANTYPE
EndTTInstrs
TtTable: fpgm
PUSHW_1
 0
FDEF
MPPEM
PUSHW_1
 9
LT
IF
PUSHB_2
 1
 1
INSTCTRL
EIF
PUSHW_1
 511
SCANCTRL
PUSHW_1
 68
SCVTCI
PUSHW_2
 9
 3
SDS
SDB
ENDF
PUSHW_1
 1
FDEF
DUP
DUP
RCVT
ROUND[Black]
WCVTP
PUSHB_1
 1
ADD
ENDF
PUSHW_1
 2
FDEF
PUSHW_1
 1
LOOPCALL
POP
ENDF
PUSHW_1
 3
FDEF
DUP
GC[cur]
PUSHB_1
 3
CINDEX
GC[cur]
GT
IF
SWAP
EIF
DUP
ROLL
DUP
ROLL
MD[grid]
ABS
ROLL
DUP
GC[cur]
DUP
ROUND[Grey]
SUB
ABS
PUSHB_1
 4
CINDEX
GC[cur]
DUP
ROUND[Grey]
SUB
ABS
GT
IF
SWAP
NEG
ROLL
EIF
MDAP[rnd]
DUP
PUSHB_1
 0
GTEQ
IF
ROUND[Black]
DUP
PUSHB_1
 0
EQ
IF
POP
PUSHB_1
 64
EIF
ELSE
ROUND[Black]
DUP
PUSHB_1
 0
EQ
IF
POP
PUSHB_1
 64
NEG
EIF
EIF
MSIRP[no-rp0]
ENDF
PUSHW_1
 4
FDEF
DUP
GC[cur]
PUSHB_1
 4
CINDEX
GC[cur]
GT
IF
SWAP
ROLL
EIF
DUP
GC[cur]
DUP
ROUND[White]
SUB
ABS
PUSHB_1
 4
CINDEX
GC[cur]
DUP

StartChar: exclam
Encoding: 33 33 4
Width: 332
Flags: W
LayerCount: 2
Fore
SplineSet
14 29 m 0,0,1
 4 44 4 44 12.5 61.5 c 128,-1,2
 21 79 21 79 35.5 90.5 c 128,-1,3
 50 102 50 102 65 103 c 128,-1,4
 80 104 80 104 85 85 c 0,5,6
 89 67 89 67 85 46.5 c 128,-1,7
 81 26 81 26 70.5 13.5 c 128,-1,8
 60 1 60 1 45 2.5 c 128,-1,9
 30 4 30 4 14 29 c 0,0,1
85 381 m 0,10,11
 82 389 82 389 87 419 c 128,-1,12
 92 449 92 449 102.5 492 c 128,-1,13
 113 535 113 535 128 587.5 c 128,-1,14
 143 640 143 640 160.5 692.5 c 128,-1,15
 178 745 178 745 196.5 793.5 c 128,-1,16
 215 842 215 842 233.5 878 c 128,-1,17
 252 914 252 914 269 933.5 c 128,-1,18
 286 953 286 953 299 946 c 1,19,20
 300 939 300 939 294 903.5 c 128,-1,21
 288 868 288 868 277 816.5 c 128,-1,22
 266 765 266 765 250.5 702.5 c 128,-1,23
 235 640 235 640 217.5 580 c 128,-1,24
 200 520 200 520 181.5 468 c 128,-1,25
 163 416 163 416 145.5 385 c 128,-1,26
 128 354 128 354 112.5 350 c 128,-1,27
 97 346 97 346 85 381 c 0,10,11
EndSplineSet
EndChar

StartChar: quotedbl
Encoding: 34 34 5
Width: 355
Flags: W
LayerCount: 2
Fore
SplineSet
231 511 m 0,0,1
 228 516 228 516 222.5 526.5 c 128,-1,2
 217 537 217 537 217 539 c 2,3,-1
 217 751 l 1,4,5
 241 763 241 763 254 750.5 c 128,-1,6
 267 738 267 738 272 712 c 128,-1,7
 277 686 277 686 276 651 c 128,-1,8
 275 616 275 616 270 584 c 128,-1,9
 265 552 265 552 258.5 527.5 c 128,-1,10
 252 503 252 503 246 497 c 1,11,12
 244 498 244 498 238 503.5 c 128,-1,13
 232 509 232 509 231 511 c 0,0,1
90 539 m 0,14,15
 84 556 84 556 81 582.5 c 128,-1,16
 78 609 78 609 76.5 637 c 128,-1,17
 75 665 75 665 75 691.5 c 128,-1,18
 75 718 75 718 76 736 c 0,19,20
 76 750 76 750 80 752 c 128,-1,21
 84 754 84 754 90.5 748 c 128,-1,22
 97 742 97 742 104 731 c 128,-1,23
 111 720 111 720 117.5 709 c 128,-1,24
 124 698 124 698 128 689.5 c 128,-1,25
 132 681 132 681 132 680 c 0,26,27
 133 664 133 664 133.5 638 c 128,-1,28
 134 612 134 612 134 587 c 128,-1,29
 134 562 134 562 133.5 544 c 128,-1,30
 133 526 133 526 132 525 c 2,31,-1
 118 511 l 1,32,33
 116 512 116 512 111.5 515.5 c 128,-1,34
 107 519 107 519 102.5 523.5 c 128,-1,35
 98 528 98 528 94.5 532 c 128,-1,36
 91 536 91 536 90 539 c 0,14,15
EndSplineSet
EndChar

StartChar: numbersign
Encoding: 35 35 6
Width: 861
Flags: W
LayerCount: 2
Fore
SplineSet
402 14 m 0,0,1
 398 37 398 37 403.5 64 c 128,-1,2
 409 91 409 91 415 117.5 c 128,-1,3
 421 144 421 144 423.5 168.5 c 128,-1,4
 426 193 426 193 417 212 c 0,5,6
 413 220 413 220 406.5 223.5 c 128,-1,7
 400 227 400 227 392.5 228 c 128,-1,8
 385 229 385 229 376.5 228 c 128,-1,9
 368 227 368 227 360 226 c 0,10,11
 326 221 326 221 308.5 206.5 c 128,-1,12
 291 192 291 192 283 172 c 128,-1,13
 275 152 275 152 272.5 129 c 128,-1,14
 270 106 270 106 265.5 84.5 c 128,-1,15
 261 63 261 63 251.5 44 c 128,-1,16
 242 25 242 25 219 14 c 1,17,18
 197 29 197 29 193 49.5 c 128,-1,19
 189 70 189 70 192.5 93 c 128,-1,20
 196 116 196 116 202 139.5 c 128,-1,21
 208 163 208 163 205 183 c 1,22,23
 202 183 202 183 176.5 180 c 128,-1,24
 151 177 151 177 120 177.5 c 128,-1,25
 89 178 89 178 60.5 185 c 128,-1,26
 32 192 32 192 22 212 c 0,27,28
 16 224 16 224 37 231.5 c 128,-1,29
 58 239 58 239 92 247.5 c 128,-1,30
 126 256 126 256 165.5 268.5 c 128,-1,31
 205 281 205 281 237 302 c 128,-1,32
 269 323 269 323 285.5 355.5 c 128,-1,33
 302 388 302 388 290 438 c 1,34,35
 277 439 277 439 255 435.5 c 128,-1,36
 233 432 233 432 207.5 427.5 c 128,-1,37
 182 423 182 423 155.5 420 c 128,-1,38
 129 417 129 417 106.5 420 c 128,-1,39
 84 423 84 423 68.5 433.5 c 128,-1,40
 53 444 53 444 50 466 c 1,41,42
 81 479 81 479 114.5 488 c 128,-1,43
 148 497 148 497 182.5 504.5 c 128,-1,44
 217 512 217 512 251 519 c 128,-1,45
 285 526 285 526 318 537 c 1,46,47
 324 548 324 548 336 570 c 128,-1,48
 348 592 348 592 362 614.5 c 128,-1,49
 376 637 376 637 389.5 653 c 128,-1,50
 403 669 403 669 411.5 668.5 c 128,-1,51
 420 668 420 668 422.5 645 c 128,-1,52
 425 622 425 622 417 565 c 1,53,54
 456 558 456 558 480 573 c 128,-1,55
 504 588 504 588 518 612.5 c 128,-1,56
 532 637 532 637 539 665 c 128,-1,57
 546 693 546 693 552 712.5 c 128,-1,58
 558 732 558 732 565.5 736.5 c 128,-1,59
 573 741 573 741 587 720 c 0,60,61
 597 704 597 704 597.5 687 c 128,-1,62
 598 670 598 670 595 652.5 c 128,-1,63
 592 635 592 635 588.5 617 c 128,-1,64
 585 599 585 599 587 580 c 1,65,66
 611 578 611 578 644.5 577.5 c 128,-1,67
 678 577 678 577 712.5 577 c 128,-1,68
 747 577 747 577 778 577.5 c 128,-1,69
 809 578 809 578 829 576.5 c 128,-1,70
 849 575 849 575 852.5 571 c 128,-1,71
 856 567 856 567 835 559.5 c 128,-1,72
 814 552 814 552 765 539.5 c 128,-1,73
 716 527 716 527 629 509 c 0,74,75
 591 501 591 501 562.5 474 c 128,-1,76
 534 447 534 447 519 416.5 c 128,-1,77
 504 386 504 386 505.5 359 c 128,-1,78
 507 332 507 332 530 325 c 0,79,80
 534 323 534 323 558.5 327 c 128,-1,81
 583 331 583 331 616 336.5 c 128,-1,82
 649 342 649 342 685.5 346 c 128,-1,83
 722 350 722 350 750.5 348.5 c 128,-1,84
 779 347 779 347 794 338.5 c 128,-1,85
 809 330 809 330 799 310 c 256,86,87
 789 290 789 290 763.5 281.5 c 128,-1,88
 738 273 738 273 705.5 270 c 128,-1,89
 673 267 673 267 637.5 267.5 c 128,-1,90
 602 268 602 268 571 265 c 128,-1,91
 540 262 540 262 517 254 c 128,-1,92
 494 246 494 246 487 226 c 1,93,94
 484 212 484 212 480 180 c 128,-1,95
 476 148 476 148 468.5 112 c 128,-1,96
 461 76 461 76 448.5 44.5 c 128,-1,97
 436 13 436 13 417 0 c 1,98,99
 415 1 415 1 409 6 c 128,-1,100
 403 11 403 11 402 14 c 0,0,1
332 353 m 0,101,102
 332 350 332 350 331.5 342 c 128,-1,103
 331 334 331 334 331 325 c 128,-1,104
 331 316 331 316 331.5 308 c 128,-1,105
 332 300 332 300 332 297 c 1,106,107
 378 290 378 290 403 302 c 128,-1,108
 428 314 428 314 440.5 338 c 128,-1,109
 453 362 453 362 459 395.5 c 128,-1,110
 465 429 465 429 473 466 c 1,111,112
 464 494 464 494 450 497.5 c 128,-1,113
 436 501 436 501 420.5 489.5 c 128,-1,114
 405 478 405 478 389.5 456.5 c 128,-1,115
 374 435 374 435 361.5 413 c 128,-1,116
 349 391 349 391 341 373.5 c 128,-1,117
 333 356 333 356 332 353 c 0,101,102
EndSplineSet
EndChar

StartChar: dollar
Encoding: 36 36 7
Width: 593
Flags: W
LayerCount: 2
Fore
SplineSet
106 14 m 0,0,1
 102 41 102 41 107 68.5 c 128,-1,2
 112 96 112 96 119.5 120 c 128,-1,3
 127 144 127 144 131.5 164 c 128,-1,4
 136 184 136 184 129.5 197 c 128,-1,5
 123 210 123 210 102 214 c 128,-1,6
 81 218 81 218 36 212 c 1,7,8
 21 223 21 223 21 240 c 128,-1,9
 21 257 21 257 36 268 c 1,10,11
 41 268 41 268 55 270 c 128,-1,12
 69 272 69 272 85 274.5 c 128,-1,13
 101 277 101 277 115 279.5 c 128,-1,14
 129 282 129 282 134 283 c 0,15,16
 138 284 138 284 145.5 286 c 128,-1,17
 153 288 153 288 159.5 290 c 128,-1,18
 166 292 166 292 171.5 294 c 128,-1,19
 177 296 177 296 177 297 c 2,20,-1
 248 495 l 2,21,22
 253 510 253 510 240 522.5 c 128,-1,23
 227 535 227 535 206.5 548 c 128,-1,24
 186 561 186 561 162.5 574.5 c 128,-1,25
 139 588 139 588 123 605 c 128,-1,26
 107 622 107 622 104 643 c 128,-1,27
 101 664 101 664 121 692 c 0,28,29
 134 710 134 710 159.5 718.5 c 128,-1,30
 185 727 185 727 214 733 c 128,-1,31
 243 739 243 739 271.5 745 c 128,-1,32
 300 751 300 751 318 763 c 0,33,34
 325 768 325 768 333.5 787.5 c 128,-1,35
 342 807 342 807 351.5 831.5 c 128,-1,36
 361 856 361 856 372 880.5 c 128,-1,37
 383 905 383 905 394.5 919.5 c 128,-1,38
 406 934 406 934 418.5 932.5 c 128,-1,39
 431 931 431 931 445 904 c 0,40,41
 451 892 451 892 448.5 878 c 128,-1,42
 446 864 446 864 441.5 849 c 128,-1,43
 437 834 437 834 433 819 c 128,-1,44
 429 804 429 804 431 791 c 1,45,-1
 558 791 l 2,46,47
 561 791 561 791 566 785.5 c 128,-1,48
 571 780 571 780 572 777 c 0,49,50
 572 774 572 774 572.5 768 c 128,-1,51
 573 762 573 762 573 755 c 128,-1,52
 573 748 573 748 572.5 742 c 128,-1,53
 572 736 572 736 572 734 c 1,54,55
 527 731 527 731 485.5 725.5 c 128,-1,56
 444 720 444 720 413.5 703.5 c 128,-1,57
 383 687 383 687 367.5 654.5 c 128,-1,58
 352 622 352 622 360 565 c 1,59,60
 453 531 453 531 497.5 500 c 128,-1,61
 542 469 542 469 550.5 439.5 c 128,-1,62
 559 410 559 410 539 383.5 c 128,-1,63
 519 357 519 357 483 333.5 c 128,-1,64
 447 310 447 310 402.5 289.5 c 128,-1,65
 358 269 358 269 318.5 252 c 128,-1,66
 279 235 279 235 250.5 221.5 c 128,-1,67
 222 208 222 208 219 198 c 2,68,-1
 163 29 l 2,69,70
 162 26 162 26 154 17.5 c 128,-1,71
 146 9 146 9 136.5 3 c 128,-1,72
 127 -3 127 -3 118 -2 c 128,-1,73
 109 -1 109 -1 106 14 c 0,0,1
275 310 m 1,74,75
 303 305 303 305 334.5 314.5 c 128,-1,76
 366 324 366 324 395 341.5 c 128,-1,77
 424 359 424 359 448.5 381.5 c 128,-1,78
 473 404 473 404 487 424 c 1,79,80
 486 445 486 445 472 462 c 128,-1,81
 458 479 458 479 437 488 c 128,-1,82
 416 497 416 497 390.5 495.5 c 128,-1,83
 365 494 365 494 342 479 c 128,-1,84
 319 464 319 464 300.5 433.5 c 128,-1,85
 282 403 282 403 275 353 c 1,86,-1
 275 310 l 1,74,75
205 607 m 0,87,88
 240 583 240 583 259 586.5 c 128,-1,89
 278 590 278 590 284 606.5 c 128,-1,90
 290 623 290 623 285 644.5 c 128,-1,91
 280 666 280 666 266.5 678.5 c 128,-1,92
 253 691 253 691 233.5 687 c 128,-1,93
 214 683 214 683 191 649 c 0,94,95
 182 636 182 636 189 624.5 c 128,-1,96
 196 613 196 613 205 607 c 0,87,88
EndSplineSet
EndChar

StartChar: percent
Encoding: 37 37 8
Width: 410
Flags: W
LayerCount: 2
Fore
SplineSet
29 65 m 0,0,1
 27 68 27 68 21 78.5 c 128,-1,2
 15 89 15 89 14 92 c 1,3,4
 50 171 50 171 92 246 c 128,-1,5
 134 321 134 321 177 395.5 c 128,-1,6
 220 470 220 470 261.5 545.5 c 128,-1,7
 303 621 303 621 339 699 c 1,8,9
 362 707 362 707 371 698.5 c 128,-1,10
 380 690 380 690 381 674.5 c 128,-1,11
 382 659 382 659 377 642 c 128,-1,12
 372 625 372 625 368 615 c 0,13,14
 335 544 335 544 298 475 c 128,-1,15
 261 406 261 406 222.5 338 c 128,-1,16
 184 270 184 270 145.5 202 c 128,-1,17
 107 134 107 134 71 65 c 1,18,19
 57 46 57 46 47 48.5 c 128,-1,20
 37 51 37 51 29 65 c 0,0,1
283 150 m 0,21,22
 275 174 275 174 287 183.5 c 128,-1,23
 299 193 299 193 315 190.5 c 128,-1,24
 331 188 331 188 341 174 c 128,-1,25
 351 160 351 160 339 135 c 1,26,27
 334 133 334 133 325.5 132 c 128,-1,28
 317 131 317 131 308.5 132 c 128,-1,29
 300 133 300 133 293 137 c 128,-1,30
 286 141 286 141 283 150 c 0,21,22
29 65 m 0,31,32
 27 68 27 68 21 78.5 c 128,-1,33
 15 89 15 89 14 92 c 1,34,35
 50 171 50 171 92 246 c 128,-1,36
 134 321 134 321 177 395.5 c 128,-1,37
 220 470 220 470 261.5 545.5 c 128,-1,38
 303 621 303 621 339 699 c 1,39,40
 362 707 362 707 371 698.5 c 128,-1,41
 380 690 380 690 381 674.5 c 128,-1,42
 382 659 382 659 377 642 c 128,-1,43
 372 625 372 625 368 615 c 0,44,45
 335 544 335 544 298 475 c 128,-1,46
 261 406 261 406 222.5 338 c 128,-1,47
 184 270 184 270 145.5 202 c 128,-1,48
 107 134 107 134 71 65 c 1,49,50
 57 46 57 46 47 48.5 c 128,-1,51
 37 51 37 51 29 65 c 0,31,32
283 150 m 0,52,53
 275 174 275 174 287 183.5 c 128,-1,54
 299 193 299 193 315 190.5 c 128,-1,55
 331 188 331 188 341 174 c 128,-1,56
 351 160 351 160 339 135 c 1,57,58
 334 133 334 133 325.5 132 c 128,-1,59
 317 131 317 131 308.5 132 c 128,-1,60
 300 133 300 133 293 137 c 128,-1,61
 286 141 286 141 283 150 c 0,52,53
82 607 m 0,62,63
 74 631 74 631 86 641 c 128,-1,64
 98 651 98 651 114 648.5 c 128,-1,65
 130 646 130 646 140 631.5 c 128,-1,66
 150 617 150 617 138 593 c 1,67,68
 133 591 133 591 124.5 590 c 128,-1,69
 116 589 116 589 107.5 590 c 128,-1,70
 99 591 99 591 92 594.5 c 128,-1,71
 85 598 85 598 82 607 c 0,72,73
 74 631 74 631 86 641 c 128,-1,74
 98 651 98 651 114 648.5 c 128,-1,75
 130 646 130 646 140 631.5 c 128,-1,76
 150 617 150 617 138 593 c 1,77,78
 133 591 133 591 124.5 590 c 128,-1,79
 116 589 116 589 107.5 590 c 128,-1,80
 99 591 99 591 92 594.5 c 128,-1,81
 85 598 85 598 82 607 c 0,62,63
EndSplineSet
EndChar

StartChar: ampersand
Encoding: 38 38 9
Width: 480
Flags: W
LayerCount: 2
Fore
SplineSet
135 -73 m 2,0,1
 127 -66 127 -66 125.5 -46.5 c 128,-1,2
 124 -27 124 -27 126 -1 c 128,-1,3
 128 25 128 25 132.5 54.5 c 128,-1,4
 137 84 137 84 141 111.5 c 128,-1,5
 145 139 145 139 147.5 161 c 128,-1,6
 150 183 150 183 149 195 c 1,7,8
 87 210 87 210 58 226.5 c 128,-1,9
 29 243 29 243 23.5 260.5 c 128,-1,10
 18 278 18 278 31 296.5 c 128,-1,11
 44 315 44 315 66 335.5 c 128,-1,12
 88 356 88 356 114 377.5 c 128,-1,13
 140 399 140 399 160.5 422 c 128,-1,14
 181 445 181 445 191.5 469.5 c 128,-1,15
 202 494 202 494 192 520 c 1,16,17
 177 517 177 517 160.5 517.5 c 128,-1,18
 144 518 144 518 128.5 523 c 128,-1,19
 113 528 113 528 99.5 537.5 c 128,-1,20
 86 547 86 547 79 562 c 0,21,22
 70 581 70 581 90.5 604 c 128,-1,23
 111 627 111 627 141 652.5 c 128,-1,24
 171 678 171 678 199.5 705 c 128,-1,25
 228 732 228 732 234 759 c 0,26,27
 253 845 253 845 264.5 886 c 128,-1,28
 276 927 276 927 283 936 c 128,-1,29
 290 945 290 945 293 928.5 c 128,-1,30
 296 912 296 912 297.5 882 c 128,-1,31
 299 852 299 852 300 815 c 128,-1,32
 301 778 301 778 305 746 c 1,33,34
 324 737 324 737 343 748 c 128,-1,35
 362 759 362 759 381 774 c 128,-1,36
 400 789 400 789 420 800 c 128,-1,37
 440 811 440 811 461 802 c 1,38,39
 468 774 468 774 455 755.5 c 128,-1,40
 442 737 442 737 419.5 724.5 c 128,-1,41
 397 712 397 712 370 702 c 128,-1,42
 343 692 343 692 321.5 679.5 c 128,-1,43
 300 667 300 667 290 649.5 c 128,-1,44
 280 632 280 632 291 605 c 1,45,46
 361 612 361 612 396 608 c 128,-1,47
 431 604 431 604 439.5 592 c 128,-1,48
 448 580 448 580 436.5 561 c 128,-1,49
 425 542 425 542 402.5 518 c 128,-1,50
 380 494 380 494 351.5 466 c 128,-1,51
 323 438 323 438 299 409 c 128,-1,52
 275 380 275 380 260 350.5 c 128,-1,53
 245 321 245 321 249 293 c 1,54,55
 256 294 256 294 276.5 294 c 128,-1,56
 297 294 297 294 319.5 294 c 128,-1,57
 342 294 342 294 362 294 c 128,-1,58
 382 294 382 294 390 293 c 0,59,60
 426 290 426 290 429 282.5 c 128,-1,61
 432 275 432 275 415 264.5 c 128,-1,62
 398 254 398 254 368.5 242.5 c 128,-1,63
 339 231 339 231 309.5 221 c 128,-1,64
 280 211 280 211 257.5 204 c 128,-1,65
 235 197 235 197 234 195 c 0,66,67
 222 178 222 178 218 152 c 128,-1,68
 214 126 214 126 212.5 96 c 128,-1,69
 211 66 211 66 211 35 c 128,-1,70
 211 4 211 4 207 -23 c 128,-1,71
 203 -50 203 -50 193 -71 c 128,-1,72
 183 -92 183 -92 164 -102 c 1,73,-1
 135 -73 l 2,0,1
122 308 m 0,74,75
 120 305 120 305 114.5 294 c 128,-1,76
 109 283 109 283 107 279 c 1,77,78
 126 276 126 276 141.5 276.5 c 128,-1,79
 157 277 157 277 167 283 c 128,-1,80
 177 289 177 289 180 302 c 128,-1,81
 183 315 183 315 178 336 c 1,82,83
 170 338 170 338 162 336 c 128,-1,84
 154 334 154 334 146.5 329.5 c 128,-1,85
 139 325 139 325 132.5 319.5 c 128,-1,86
 126 314 126 314 122 308 c 0,74,75
276 505 m 1,87,88
 287 501 287 501 299.5 508 c 128,-1,89
 312 515 312 515 319 520 c 1,90,-1
 276 520 l 1,91,-1
 276 505 l 1,87,88
EndSplineSet
EndChar

StartChar: quotesingle
Encoding: 39 39 10
Width: 264
Flags: W
LayerCount: 2
Fore
SplineSet
86 608 m 0,0,1
 86 609 86 609 89 619.5 c 128,-1,2
 92 630 92 630 96.5 643.5 c 128,-1,3
 101 657 101 657 106 670.5 c 128,-1,4
 111 684 111 684 114 692 c 0,5,6
 128 729 128 729 137.5 737.5 c 128,-1,7
 147 746 147 746 152.5 735.5 c 128,-1,8
 158 725 158 725 159.5 699.5 c 128,-1,9
 161 674 161 674 159 644 c 128,-1,10
 157 614 157 614 151 583 c 128,-1,11
 145 552 145 552 136 530.5 c 128,-1,12
 127 509 127 509 114.5 501 c 128,-1,13
 102 493 102 493 86 509 c 1,14,15
 85 514 85 514 84.5 528 c 128,-1,16
 84 542 84 542 84 558 c 128,-1,17
 84 574 84 574 84.5 588 c 128,-1,18
 85 602 85 602 86 608 c 0,0,1
EndSplineSet
EndChar

StartChar: parenleft
Encoding: 40 40 11
Width: 360
Flags: W
LayerCount: 2
Fore
SplineSet
110 32 m 0,0,1
 66 86 66 86 49.5 160.5 c 128,-1,2
 33 235 33 235 36.5 319 c 128,-1,3
 40 403 40 403 60 490 c 128,-1,4
 80 577 80 577 108.5 656 c 128,-1,5
 137 735 137 735 170.5 799.5 c 128,-1,6
 204 864 204 864 236 902.5 c 128,-1,7
 268 941 268 941 293.5 948 c 128,-1,8
 319 955 319 955 332 919 c 1,9,10
 291 882 291 882 248.5 818.5 c 128,-1,11
 206 755 206 755 170.5 677 c 128,-1,12
 135 599 135 599 110.5 512.5 c 128,-1,13
 86 426 86 426 80 343 c 128,-1,14
 74 260 74 260 90 186.5 c 128,-1,15
 106 113 106 113 152 61 c 0,16,17
 158 54 158 54 177.5 41 c 128,-1,18
 197 28 197 28 219.5 12.5 c 128,-1,19
 242 -3 242 -3 263.5 -20 c 128,-1,20
 285 -37 285 -37 295.5 -53.5 c 128,-1,21
 306 -70 306 -70 301 -84.5 c 128,-1,22
 296 -99 296 -99 266 -109 c 0,23,24
 264 -110 264 -110 258.5 -110 c 128,-1,25
 253 -110 253 -110 251 -109 c 0,26,27
 242 -102 242 -102 222 -82.5 c 128,-1,28
 202 -63 202 -63 179.5 -40.5 c 128,-1,29
 157 -18 157 -18 137 2.5 c 128,-1,30
 117 23 117 23 110 32 c 0,0,1
EndSplineSet
EndChar

StartChar: parenright
Encoding: 41 41 12
Width: 310
Flags: W
LayerCount: 2
Fore
SplineSet
25 -101 m 0,0,1
 23 -99 23 -99 23 -94.5 c 128,-1,2
 23 -90 23 -90 25 -88 c 0,3,4
 94 -25 94 -25 137 52.5 c 128,-1,5
 180 130 180 130 200.5 216 c 128,-1,6
 221 302 221 302 220.5 393 c 128,-1,7
 220 484 220 484 202.5 575 c 128,-1,8
 185 666 185 666 153 753.5 c 128,-1,9
 121 841 121 841 78 919 c 1,10,11
 74 929 74 929 76.5 942.5 c 128,-1,12
 79 956 79 956 92 961 c 1,13,14
 162 905 162 905 202.5 820.5 c 128,-1,15
 243 736 243 736 260 637.5 c 128,-1,16
 277 539 277 539 274 434.5 c 128,-1,17
 271 330 271 330 254 234 c 128,-1,18
 237 138 237 138 210 58 c 128,-1,19
 183 -22 183 -22 151 -71.5 c 128,-1,20
 119 -121 119 -121 86 -132 c 128,-1,21
 53 -143 53 -143 25 -101 c 0,0,1
EndSplineSet
EndChar

StartChar: asterisk
Encoding: 42 42 13
Width: 699
Flags: W
LayerCount: 2
Fore
SplineSet
233 99 m 1,0,1
 229 107 229 107 218.5 95.5 c 128,-1,2
 208 84 208 84 195 67 c 128,-1,3
 182 50 182 50 169.5 35 c 128,-1,4
 157 20 157 20 149 20.5 c 128,-1,5
 141 21 141 21 139.5 44 c 128,-1,6
 138 67 138 67 148 127 c 0,7,8
 152 150 152 150 142 160 c 128,-1,9
 132 170 132 170 115.5 173.5 c 128,-1,10
 99 177 99 177 79.5 177.5 c 128,-1,11
 60 178 60 178 45 181.5 c 128,-1,12
 30 185 30 185 22 194.5 c 128,-1,13
 14 204 14 204 22 226 c 1,14,15
 50 231 50 231 84.5 233 c 128,-1,16
 119 235 119 235 147.5 243 c 128,-1,17
 176 251 176 251 193.5 269 c 128,-1,18
 211 287 211 287 205 325 c 0,19,20
 202 343 202 343 186 360.5 c 128,-1,21
 170 378 170 378 153.5 395 c 128,-1,22
 137 412 137 412 125.5 429.5 c 128,-1,23
 114 447 114 447 121 466 c 1,24,25
 135 472 135 472 149.5 469.5 c 128,-1,26
 164 467 164 467 177 459.5 c 128,-1,27
 190 452 190 452 201 442.5 c 128,-1,28
 212 433 212 433 219 424 c 1,29,30
 224 435 224 435 231.5 453.5 c 128,-1,31
 239 472 239 472 248.5 490.5 c 128,-1,32
 258 509 258 509 268.5 522.5 c 128,-1,33
 279 536 279 536 288.5 537 c 128,-1,34
 298 538 298 538 306 522.5 c 128,-1,35
 314 507 314 507 318 466 c 1,36,37
 320 468 320 468 325.5 473 c 128,-1,38
 331 478 331 478 332 480 c 0,39,40
 335 484 335 484 341 494 c 128,-1,41
 347 504 347 504 354 515.5 c 128,-1,42
 361 527 361 527 367 537 c 128,-1,43
 373 547 373 547 375 551 c 1,44,45
 402 560 402 560 410 548.5 c 128,-1,46
 418 537 418 537 414 513 c 128,-1,47
 410 489 410 489 398 457.5 c 128,-1,48
 386 426 386 426 374 396 c 128,-1,49
 362 366 362 366 353 342.5 c 128,-1,50
 344 319 344 319 346 310 c 1,51,52
 387 307 387 307 427.5 310 c 128,-1,53
 468 313 468 313 508 317 c 128,-1,54
 548 321 548 321 588.5 324 c 128,-1,55
 629 327 629 327 671 325 c 1,56,57
 678 310 678 310 657 299 c 128,-1,58
 636 288 636 288 601 279.5 c 128,-1,59
 566 271 566 271 524.5 264 c 128,-1,60
 483 257 483 257 449.5 249.5 c 128,-1,61
 416 242 416 242 397 233 c 128,-1,62
 378 224 378 224 389 212 c 2,63,-1
 516 71 l 1,64,-1
 516 42 l 1,65,-1
 473 42 l 1,66,-1
 304 198 l 1,67,68
 302 174 302 174 305 151 c 128,-1,69
 308 128 308 128 312 105.5 c 128,-1,70
 316 83 316 83 318.5 60 c 128,-1,71
 321 37 321 37 318 14 c 1,72,-1
 275 14 l 1,73,-1
 233 99 l 1,74,-1
 233 99 l 1,0,1
EndSplineSet
EndChar

StartChar: plus
Encoding: 43 43 14
Width: 431
Flags: W
LayerCount: 2
Fore
SplineSet
226 14 m 0,0,1
 214 32 214 32 206.5 56.5 c 128,-1,2
 199 81 199 81 195 107 c 128,-1,3
 191 133 191 133 189 158.5 c 128,-1,4
 187 184 187 184 184 205 c 1,5,-1
 43 205 l 1,6,-1
 14 240 l 1,7,8
 15 241 15 241 19 243 c 128,-1,9
 23 245 23 245 27.5 247.5 c 128,-1,10
 32 250 32 250 36.5 252 c 128,-1,11
 41 254 41 254 43 254 c 0,12,13
 50 256 50 256 70.5 260 c 128,-1,14
 91 264 91 264 113.5 268.5 c 128,-1,15
 136 273 136 273 156 277 c 128,-1,16
 176 281 176 281 184 283 c 1,17,-1
 212 480 l 2,18,19
 213 487 213 487 220 491.5 c 128,-1,20
 227 496 227 496 234.5 496 c 128,-1,21
 242 496 242 496 248 492 c 128,-1,22
 254 488 254 488 254 480 c 2,23,-1
 254 297 l 1,24,25
 261 297 261 297 279 295 c 128,-1,26
 297 293 297 293 317.5 290.5 c 128,-1,27
 338 288 338 288 356 286 c 128,-1,28
 374 284 374 284 382 283 c 0,29,30
 385 282 385 282 396.5 276.5 c 128,-1,31
 408 271 408 271 410 268 c 1,32,33
 397 247 397 247 374.5 240 c 128,-1,34
 352 233 352 233 328.5 230 c 128,-1,35
 305 227 305 227 284.5 222 c 128,-1,36
 264 217 264 217 254 198 c 0,37,38
 242 173 242 173 244 147.5 c 128,-1,39
 246 122 246 122 250.5 96.5 c 128,-1,40
 255 71 255 71 255.5 46.5 c 128,-1,41
 256 22 256 22 241 0 c 1,42,43
 239 1 239 1 233 6.5 c 128,-1,44
 227 12 227 12 226 14 c 0,0,1
EndSplineSet
EndChar

StartChar: comma
Encoding: 44 44 15
Width: 226
Flags: W
LayerCount: 2
Fore
SplineSet
-15 -182 m 0,0,1
 -21 -165 -21 -165 -9.5 -142 c 128,-1,2
 2 -119 2 -119 20 -95.5 c 128,-1,3
 38 -72 38 -72 57 -50 c 128,-1,4
 76 -28 76 -28 84 -13 c 0,5,6
 96 10 96 10 100 32.5 c 128,-1,7
 104 55 104 55 105.5 77.5 c 128,-1,8
 107 100 107 100 107.5 123 c 128,-1,9
 108 146 108 146 112 171 c 0,10,11
 115 195 115 195 122 197.5 c 128,-1,12
 129 200 129 200 136.5 188.5 c 128,-1,13
 144 177 144 177 151 154 c 128,-1,14
 158 131 158 131 162 104.5 c 128,-1,15
 166 78 166 78 164.5 50 c 128,-1,16
 163 22 163 22 155 1 c 0,17,18
 153 -3 153 -3 145 -21.5 c 128,-1,19
 137 -40 137 -40 125 -64.5 c 128,-1,20
 113 -89 113 -89 98 -116 c 128,-1,21
 83 -143 83 -143 66 -163.5 c 128,-1,22
 49 -184 49 -184 32 -194.5 c 128,-1,23
 15 -205 15 -205 -1 -197 c 0,24,25
 -4 -196 -4 -196 -9 -190 c 128,-1,26
 -14 -184 -14 -184 -15 -182 c 0,0,1
EndSplineSet
EndChar

StartChar: hyphen
Encoding: 45 45 16
Width: 622
Flags: W
LayerCount: 2
Fore
SplineSet
36 353 m 0,0,1
 20 369 20 369 38 384 c 128,-1,2
 56 399 56 399 95.5 411.5 c 128,-1,3
 135 424 135 424 190 433 c 128,-1,4
 245 442 245 442 303.5 447 c 128,-1,5
 362 452 362 452 418 451 c 128,-1,6
 474 450 474 450 515.5 442.5 c 128,-1,7
 557 435 557 435 578 420 c 128,-1,8
 599 405 599 405 587 381 c 1,9,10
 574 381 574 381 542 379 c 128,-1,11
 510 377 510 377 473.5 375 c 128,-1,12
 437 373 437 373 405 371 c 128,-1,13
 373 369 373 369 360 368 c 0,14,15
 329 365 329 365 284 353 c 128,-1,16
 239 341 239 341 192 333 c 128,-1,17
 145 325 145 325 102.5 327 c 128,-1,18
 60 329 60 329 36 353 c 0,0,1
EndSplineSet
EndChar

StartChar: period
Encoding: 46 46 17
Width: 183
Flags: W
LayerCount: 2
Fore
SplineSet
43 14 m 256,0,1
 31 32 31 32 31.5 50 c 128,-1,2
 32 68 32 68 40 83 c 128,-1,3
 48 98 48 98 61.5 108 c 128,-1,4
 75 118 75 118 90 120 c 128,-1,5
 105 122 105 122 119 114 c 128,-1,6
 133 106 133 106 141 85 c 0,7,8
 149 66 149 66 139 45.5 c 128,-1,9
 129 25 129 25 112 12 c 128,-1,10
 95 -1 95 -1 75 -2.5 c 128,-1,11
 55 -4 55 -4 43 14 c 256,0,1
EndSplineSet
EndChar

StartChar: slash
Encoding: 47 47 18
Width: 388
Flags: W
LayerCount: 2
Fore
SplineSet
29 14 m 0,0,1
 21 62 21 62 33 128.5 c 128,-1,2
 45 195 45 195 69.5 270.5 c 128,-1,3
 94 346 94 346 128 426 c 128,-1,4
 162 506 162 506 197.5 581.5 c 128,-1,5
 233 657 233 657 266.5 722 c 128,-1,6
 300 787 300 787 325 834 c 1,7,8
 338 843 338 843 347.5 838 c 128,-1,9
 357 833 357 833 362 822 c 128,-1,10
 367 811 367 811 368.5 797.5 c 128,-1,11
 370 784 370 784 368 777 c 1,12,13
 363 766 363 766 353 744 c 128,-1,14
 343 722 343 722 330.5 694 c 128,-1,15
 318 666 318 666 304 635.5 c 128,-1,16
 290 605 290 605 277.5 577 c 128,-1,17
 265 549 265 549 255 527 c 128,-1,18
 245 505 245 505 241 495 c 0,19,20
 235 483 235 483 222.5 452.5 c 128,-1,21
 210 422 210 422 196.5 388 c 128,-1,22
 183 354 183 354 171.5 324 c 128,-1,23
 160 294 160 294 156 283 c 0,24,25
 150 266 150 266 141 230 c 128,-1,26
 132 194 132 194 121.5 153.5 c 128,-1,27
 111 113 111 113 98 74.5 c 128,-1,28
 85 36 85 36 71 14 c 0,29,30
 68 10 68 10 62 5.5 c 128,-1,31
 56 1 56 1 49 -0.5 c 128,-1,32
 42 -2 42 -2 36.5 0.5 c 128,-1,33
 31 3 31 3 29 14 c 0,0,1
EndSplineSet
EndChar

StartChar: zero
Encoding: 48 48 19
Width: 607
Flags: W
LayerCount: 2
Fore
SplineSet
85 14 m 0,0,1
 47 42 47 42 35.5 95.5 c 128,-1,2
 24 149 24 149 33 215.5 c 128,-1,3
 42 282 42 282 69 355.5 c 128,-1,4
 96 429 96 429 135.5 497.5 c 128,-1,5
 175 566 175 566 224 624 c 128,-1,6
 273 682 273 682 326 717.5 c 128,-1,7
 379 753 379 753 433.5 760 c 128,-1,8
 488 767 488 767 538 734 c 0,9,10
 575 709 575 709 584 658.5 c 128,-1,11
 593 608 593 608 580 544 c 128,-1,12
 567 480 567 480 536 408 c 128,-1,13
 505 336 505 336 462.5 267.5 c 128,-1,14
 420 199 420 199 370.5 140 c 128,-1,15
 321 81 321 81 270 43.5 c 128,-1,16
 219 6 219 6 171 -4.5 c 128,-1,17
 123 -15 123 -15 85 14 c 0,0,1
99 56 m 0,18,19
 118 28 118 28 146 31 c 128,-1,20
 174 34 174 34 206.5 60 c 128,-1,21
 239 86 239 86 275 129 c 128,-1,22
 311 172 311 172 345.5 224 c 128,-1,23
 380 276 380 276 411 332 c 128,-1,24
 442 388 442 388 466.5 439 c 128,-1,25
 491 490 491 490 506 530.5 c 128,-1,26
 521 571 521 571 523 593 c 0,27,28
 528 649 528 649 515.5 675 c 128,-1,29
 503 701 503 701 478.5 702 c 128,-1,30
 454 703 454 703 420 682.5 c 128,-1,31
 386 662 386 662 348 627 c 128,-1,32
 310 592 310 592 271 544.5 c 128,-1,33
 232 497 232 497 197.5 444 c 128,-1,34
 163 391 163 391 135.5 335.5 c 128,-1,35
 108 280 108 280 93 228.5 c 128,-1,36
 78 177 78 177 78 132 c 128,-1,37
 78 87 78 87 99 56 c 0,18,19
EndSplineSet
EndChar

StartChar: one
Encoding: 49 49 20
Width: 346
Flags: W
LayerCount: 2
Fore
SplineSet
29 14 m 0,0,1
 11 32 11 32 13 65 c 128,-1,2
 15 98 15 98 26 132.5 c 128,-1,3
 37 167 37 167 51 197 c 128,-1,4
 65 227 65 227 71 240 c 0,5,6
 75 250 75 250 87 279.5 c 128,-1,7
 99 309 99 309 114.5 348 c 128,-1,8
 130 387 130 387 148.5 431.5 c 128,-1,9
 167 476 167 476 182.5 515 c 128,-1,10
 198 554 198 554 210 583 c 128,-1,11
 222 612 222 612 226 622 c 0,12,13
 229 630 229 630 233.5 646.5 c 128,-1,14
 238 663 238 663 244 681.5 c 128,-1,15
 250 700 250 700 258 716.5 c 128,-1,16
 266 733 266 733 275.5 741.5 c 128,-1,17
 285 750 285 750 297.5 746 c 128,-1,18
 310 742 310 742 325 720 c 0,19,20
 326 719 326 719 315.5 688 c 128,-1,21
 305 657 305 657 287 606.5 c 128,-1,22
 269 556 269 556 245.5 492 c 128,-1,23
 222 428 222 428 197 361 c 128,-1,24
 172 294 172 294 148 229.5 c 128,-1,25
 124 165 124 165 104.5 114.5 c 128,-1,26
 85 64 85 64 72 32.5 c 128,-1,27
 59 1 59 1 56 0 c 0,28,29
 54 -1 54 -1 43.5 4 c 128,-1,30
 33 9 33 9 29 14 c 0,0,1
EndSplineSet
EndChar

StartChar: two
Encoding: 50 50 21
Width: 685
Flags: W
LayerCount: 2
Fore
SplineSet
43 14 m 0,0,1
 25 27 25 27 28.5 42 c 128,-1,2
 32 57 32 57 43 71 c 0,3,4
 90 127 90 127 137.5 179 c 128,-1,5
 185 231 185 231 229 285 c 128,-1,6
 273 339 273 339 312 396.5 c 128,-1,7
 351 454 351 454 382 522 c 0,8,9
 398 558 398 558 395 575 c 128,-1,10
 392 592 392 592 377 596 c 128,-1,11
 362 600 362 600 338 595 c 128,-1,12
 314 590 314 590 288.5 580.5 c 128,-1,13
 263 571 263 571 239.5 561.5 c 128,-1,14
 216 552 216 552 201.5 547 c 128,-1,15
 187 542 187 542 184.5 545 c 128,-1,16
 182 548 182 548 199 565 c 1,17,18
 222 592 222 592 255 611.5 c 128,-1,19
 288 631 288 631 322 640 c 128,-1,20
 356 649 356 649 387 647 c 128,-1,21
 418 645 418 645 437 628 c 128,-1,22
 456 611 456 611 458.5 578.5 c 128,-1,23
 461 546 461 546 438 495 c 0,24,25
 411 435 411 435 370.5 383 c 128,-1,26
 330 331 330 331 287 281.5 c 128,-1,27
 244 232 244 232 204.5 181 c 128,-1,28
 165 130 165 130 141 71 c 1,29,30
 161 65 161 65 203 76.5 c 128,-1,31
 245 88 245 88 297.5 106.5 c 128,-1,32
 350 125 350 125 407 145 c 128,-1,33
 464 165 464 165 515.5 176 c 128,-1,34
 567 187 567 187 607 184.5 c 128,-1,35
 647 182 647 182 665 156 c 0,36,37
 667 153 667 153 667 141.5 c 128,-1,38
 667 130 667 130 665 127 c 1,39,40
 627 134 627 134 574.5 122 c 128,-1,41
 522 110 522 110 463 90 c 128,-1,42
 404 70 404 70 342 47 c 128,-1,43
 280 24 280 24 223.5 9 c 128,-1,44
 167 -6 167 -6 120 -7.5 c 128,-1,45
 73 -9 73 -9 43 14 c 0,0,1
EndSplineSet
EndChar

StartChar: three
Encoding: 51 51 22
Width: 649
Flags: W
LayerCount: 2
Fore
SplineSet
36 29 m 0,0,1
 33 34 33 34 28.5 40 c 128,-1,2
 24 46 24 46 22.5 51.5 c 128,-1,3
 21 57 21 57 23.5 62.5 c 128,-1,4
 26 68 26 68 36 71 c 0,5,6
 49 75 49 75 65 73 c 128,-1,7
 81 71 81 71 98 66.5 c 128,-1,8
 115 62 115 62 131.5 58 c 128,-1,9
 148 54 148 54 163 56 c 0,10,11
 182 58 182 58 215.5 71.5 c 128,-1,12
 249 85 249 85 289 106 c 128,-1,13
 329 127 329 127 371.5 154 c 128,-1,14
 414 181 414 181 452 210.5 c 128,-1,15
 490 240 490 240 519.5 269.5 c 128,-1,16
 549 299 549 299 562.5 326 c 128,-1,17
 576 353 576 353 570 374.5 c 128,-1,18
 564 396 564 396 530 410 c 1,19,20
 507 414 507 414 471 406 c 128,-1,21
 435 398 435 398 395 385.5 c 128,-1,22
 355 373 355 373 315 361.5 c 128,-1,23
 275 350 275 350 245 347 c 128,-1,24
 215 344 215 344 199 354 c 128,-1,25
 183 364 183 364 191 395 c 1,26,27
 208 414 208 414 236 443.5 c 128,-1,28
 264 473 264 473 293 507.5 c 128,-1,29
 322 542 322 542 348.5 579 c 128,-1,30
 375 616 375 616 389 649 c 1,31,32
 388 649 388 649 368.5 643.5 c 128,-1,33
 349 638 349 638 321.5 631.5 c 128,-1,34
 294 625 294 625 263 620 c 128,-1,35
 232 615 232 615 208.5 615 c 128,-1,36
 185 615 185 615 174.5 622.5 c 128,-1,37
 164 630 164 630 177 649 c 0,38,39
 179 653 179 653 203 667 c 128,-1,40
 227 681 227 681 261 697.5 c 128,-1,41
 295 714 295 714 334.5 729.5 c 128,-1,42
 374 745 374 745 408 751.5 c 128,-1,43
 442 758 442 758 465 752 c 128,-1,44
 488 746 488 746 489 719.5 c 128,-1,45
 490 693 490 693 464.5 642 c 128,-1,46
 439 591 439 591 375 509 c 1,47,-1
 375 466 l 1,48,49
 475 474 475 474 531.5 456.5 c 128,-1,50
 588 439 588 439 608.5 406.5 c 128,-1,51
 629 374 629 374 618 330 c 128,-1,52
 607 286 607 286 572 239.5 c 128,-1,53
 537 193 537 193 481 149 c 128,-1,54
 425 105 425 105 356 72.5 c 128,-1,55
 287 40 287 40 208.5 23 c 128,-1,56
 130 6 130 6 50 14 c 0,57,58
 48 15 48 15 42.5 21 c 128,-1,59
 37 27 37 27 36 29 c 0,0,1
EndSplineSet
EndChar

StartChar: four
Encoding: 52 52 23
Width: 678
Flags: W
LayerCount: 2
Fore
SplineSet
332 29 m 0,0,1
 326 58 326 58 331 86.5 c 128,-1,2
 336 115 336 115 346 143.5 c 128,-1,3
 356 172 356 172 368.5 200.5 c 128,-1,4
 381 229 381 229 391 257 c 128,-1,5
 401 285 401 285 405 312.5 c 128,-1,6
 409 340 409 340 402 368 c 1,7,8
 376 372 376 372 344.5 363.5 c 128,-1,9
 313 355 313 355 278.5 342.5 c 128,-1,10
 244 330 244 330 208.5 317.5 c 128,-1,11
 173 305 173 305 141 300.5 c 128,-1,12
 109 296 109 296 81.5 303.5 c 128,-1,13
 54 311 54 311 36 339 c 0,14,15
 20 363 20 363 23 395.5 c 128,-1,16
 26 428 26 428 41.5 465 c 128,-1,17
 57 502 57 502 81 541.5 c 128,-1,18
 105 581 105 581 129 620 c 128,-1,19
 153 659 153 659 174 695.5 c 128,-1,20
 195 732 195 732 205 763 c 1,21,22
 234 770 234 770 246.5 763 c 128,-1,23
 259 756 259 756 261 740.5 c 128,-1,24
 263 725 263 725 256.5 703.5 c 128,-1,25
 250 682 250 682 240 661 c 128,-1,26
 230 640 230 640 220 621.5 c 128,-1,27
 210 603 210 603 205 593 c 0,28,29
 199 582 199 582 185 556 c 128,-1,30
 171 530 171 530 155.5 501 c 128,-1,31
 140 472 140 472 126 446 c 128,-1,32
 112 420 112 420 106 410 c 1,33,-1
 106 381 l 1,34,35
 136 378 136 378 169.5 383.5 c 128,-1,36
 203 389 203 389 236.5 398.5 c 128,-1,37
 270 408 270 408 301.5 419 c 128,-1,38
 333 430 333 430 360 438 c 0,39,40
 421 455 421 455 458 490 c 128,-1,41
 495 525 495 525 519 572 c 128,-1,42
 543 619 543 619 560.5 675 c 128,-1,43
 578 731 578 731 601 791 c 1,44,45
 630 801 630 801 638 784 c 128,-1,46
 646 767 646 767 640.5 735.5 c 128,-1,47
 635 704 635 704 621 663.5 c 128,-1,48
 607 623 607 623 592.5 585 c 128,-1,49
 578 547 578 547 567 518 c 128,-1,50
 556 489 556 489 558 480 c 1,51,52
 578 488 578 488 599 480.5 c 128,-1,53
 620 473 620 473 629 452 c 1,54,55
 621 435 621 435 604.5 428.5 c 128,-1,56
 588 422 588 422 569 417.5 c 128,-1,57
 550 413 550 413 531.5 406 c 128,-1,58
 513 399 513 399 502 381 c 0,59,60
 476 340 476 340 457.5 295 c 128,-1,61
 439 250 439 250 424 202.5 c 128,-1,62
 409 155 409 155 397.5 107 c 128,-1,63
 386 59 386 59 375 14 c 1,64,65
 371 12 371 12 364.5 11.5 c 128,-1,66
 358 11 358 11 351 12.5 c 128,-1,67
 344 14 344 14 338.5 18 c 128,-1,68
 333 22 333 22 332 29 c 0,0,1
EndSplineSet
EndChar

StartChar: five
Encoding: 53 53 24
Width: 678
Flags: W
LayerCount: 2
Fore
SplineSet
92 14 m 0,0,1
 83 16 83 16 71 20 c 128,-1,2
 59 24 59 24 48 31 c 128,-1,3
 37 38 37 38 29.5 47.5 c 128,-1,4
 22 57 22 57 22 71 c 0,5,6
 22 75 22 75 33 75.5 c 128,-1,7
 44 76 44 76 61 74.5 c 128,-1,8
 78 73 78 73 98 69.5 c 128,-1,9
 118 66 118 66 137 62.5 c 128,-1,10
 156 59 156 59 170.5 57 c 128,-1,11
 185 55 185 55 191 56 c 0,12,13
 262 64 262 64 326.5 98 c 128,-1,14
 391 132 391 132 438.5 183.5 c 128,-1,15
 486 235 486 235 511.5 300.5 c 128,-1,16
 537 366 537 366 530 438 c 1,17,18
 511 476 511 476 477.5 485 c 128,-1,19
 444 494 444 494 404 486 c 128,-1,20
 364 478 364 478 321.5 458.5 c 128,-1,21
 279 439 279 439 243 420.5 c 128,-1,22
 207 402 207 402 181 389 c 128,-1,23
 155 376 155 376 148 381 c 0,24,25
 128 395 128 395 122.5 409.5 c 128,-1,26
 117 424 117 424 120 440 c 128,-1,27
 123 456 123 456 131.5 473 c 128,-1,28
 140 490 140 490 148 509 c 0,29,30
 150 512 150 512 159 534.5 c 128,-1,31
 168 557 168 557 180.5 584.5 c 128,-1,32
 193 612 193 612 207 639 c 128,-1,33
 221 666 221 666 233 678 c 0,34,35
 248 693 248 693 275 702 c 128,-1,36
 302 711 302 711 336 716.5 c 128,-1,37
 370 722 370 722 407 725 c 128,-1,38
 444 728 444 728 480 731 c 128,-1,39
 516 734 516 734 547.5 738 c 128,-1,40
 579 742 579 742 601 749 c 0,41,42
 631 759 631 759 643.5 746.5 c 128,-1,43
 656 734 656 734 645.5 714 c 128,-1,44
 635 694 635 694 600.5 674 c 128,-1,45
 566 654 566 654 502 649 c 0,46,47
 491 648 491 648 462.5 646.5 c 128,-1,48
 434 645 434 645 402.5 642.5 c 128,-1,49
 371 640 371 640 343 638.5 c 128,-1,50
 315 637 315 637 304 636 c 1,51,52
 293 627 293 627 279 612 c 128,-1,53
 265 597 265 597 253.5 580 c 128,-1,54
 242 563 242 563 235.5 544 c 128,-1,55
 229 525 229 525 233 509 c 1,56,57
 262 503 262 503 291 509 c 128,-1,58
 320 515 320 515 349.5 523.5 c 128,-1,59
 379 532 379 532 409.5 538 c 128,-1,60
 440 544 440 544 473 537 c 0,61,62
 537 523 537 523 568.5 490 c 128,-1,63
 600 457 600 457 605 412.5 c 128,-1,64
 610 368 610 368 591.5 317 c 128,-1,65
 573 266 573 266 537 216.5 c 128,-1,66
 501 167 501 167 450.5 123 c 128,-1,67
 400 79 400 79 341.5 49.5 c 128,-1,68
 283 20 283 20 219 9 c 128,-1,69
 155 -2 155 -2 92 14 c 0,0,1
EndSplineSet
EndChar

StartChar: six
Encoding: 54 54 25
Width: 452
Flags: W
LayerCount: 2
Fore
SplineSet
134 14 m 0,0,1
 122 18 122 18 108 22.5 c 128,-1,2
 94 27 94 27 80.5 33.5 c 128,-1,3
 67 40 67 40 55 49 c 128,-1,4
 43 58 43 58 36 71 c 1,5,6
 32 98 32 98 28 124.5 c 128,-1,7
 24 151 24 151 22.5 177.5 c 128,-1,8
 21 204 21 204 23.5 230 c 128,-1,9
 26 256 26 256 36 283 c 0,10,11
 40 294 40 294 54 319.5 c 128,-1,12
 68 345 68 345 88.5 378.5 c 128,-1,13
 109 412 109 412 134.5 450 c 128,-1,14
 160 488 160 488 187 524.5 c 128,-1,15
 214 561 214 561 241 592 c 128,-1,16
 268 623 268 623 291.5 642 c 128,-1,17
 315 661 315 661 333 664.5 c 128,-1,18
 351 668 351 668 360 649 c 0,19,20
 363 644 363 644 363 628 c 128,-1,21
 363 612 363 612 360 607 c 1,22,23
 341 589 341 589 311.5 562 c 128,-1,24
 282 535 282 535 250 501.5 c 128,-1,25
 218 468 218 468 187 431 c 128,-1,26
 156 394 156 394 132.5 356 c 128,-1,27
 109 318 109 318 97 281 c 128,-1,28
 85 244 85 244 92 212 c 1,29,-1
 106 212 l 1,30,31
 208 266 208 266 274 283 c 128,-1,32
 340 300 340 300 376.5 291 c 128,-1,33
 413 282 413 282 422.5 253.5 c 128,-1,34
 432 225 432 225 421.5 189 c 128,-1,35
 411 153 411 153 383 115 c 128,-1,36
 355 77 355 77 316 49 c 128,-1,37
 277 21 277 21 230 9.5 c 128,-1,38
 183 -2 183 -2 134 14 c 0,0,1
134 71 m 0,39,40
 161 55 161 55 192.5 60 c 128,-1,41
 224 65 224 65 254 82.5 c 128,-1,42
 284 100 284 100 309.5 125 c 128,-1,43
 335 150 335 150 349.5 174.5 c 128,-1,44
 364 199 364 199 364.5 217.5 c 128,-1,45
 365 236 365 236 346 240 c 0,46,47
 333 243 333 243 306 235.5 c 128,-1,48
 279 228 279 228 247 214 c 128,-1,49
 215 200 215 200 184.5 181.5 c 128,-1,50
 154 163 154 163 135 143 c 128,-1,51
 116 123 116 123 113 104 c 128,-1,52
 110 85 110 85 134 71 c 0,39,40
EndSplineSet
EndChar

StartChar: seven
Encoding: 55 55 26
Width: 600
Flags: W
LayerCount: 2
Fore
SplineSet
156 29 m 0,0,1
 155 31 155 31 155 35.5 c 128,-1,2
 155 40 155 40 156 42 c 0,3,4
 161 52 161 52 172 72 c 128,-1,5
 183 92 183 92 197 117 c 128,-1,6
 211 142 211 142 226 169.5 c 128,-1,7
 241 197 241 197 255 222 c 128,-1,8
 269 247 269 247 280 267 c 128,-1,9
 291 287 291 287 297 297 c 0,10,11
 306 312 306 312 322.5 336.5 c 128,-1,12
 339 361 339 361 358.5 389.5 c 128,-1,13
 378 418 378 418 397.5 449 c 128,-1,14
 417 480 417 480 431.5 509.5 c 128,-1,15
 446 539 446 539 452.5 564.5 c 128,-1,16
 459 590 459 590 453 607 c 1,17,18
 395 592 395 592 346 580 c 128,-1,19
 297 568 297 568 249.5 560.5 c 128,-1,20
 202 553 202 553 152.5 550.5 c 128,-1,21
 103 548 103 548 43 551 c 1,22,23
 21 566 21 566 33.5 580.5 c 128,-1,24
 46 595 46 595 82 609 c 128,-1,25
 118 623 118 623 171 636 c 128,-1,26
 224 649 224 649 282 659 c 128,-1,27
 340 669 340 669 396.5 676 c 128,-1,28
 453 683 453 683 496.5 686 c 128,-1,29
 540 689 540 689 563.5 687 c 128,-1,30
 587 685 587 685 580 678 c 1,31,32
 572 661 572 661 553 619 c 128,-1,33
 534 577 534 577 507 521.5 c 128,-1,34
 480 466 480 466 447.5 401.5 c 128,-1,35
 415 337 415 337 381 275 c 128,-1,36
 347 213 347 213 313 158.5 c 128,-1,37
 279 104 279 104 249 68 c 128,-1,38
 219 32 219 32 194.5 19.5 c 128,-1,39
 170 7 170 7 156 29 c 0,0,1
EndSplineSet
EndChar

StartChar: eight
Encoding: 56 56 27
Width: 622
Flags: W
LayerCount: 2
Fore
SplineSet
63 14 m 0,0,1
 35 28 35 28 26 52 c 128,-1,2
 17 76 17 76 20 102.5 c 128,-1,3
 23 129 23 129 35.5 154.5 c 128,-1,4
 48 180 48 180 63 198 c 1,5,6
 73 208 73 208 97 234.5 c 128,-1,7
 121 261 121 261 148 290 c 128,-1,8
 175 319 175 319 199 345 c 128,-1,9
 223 371 223 371 233 381 c 1,10,11
 244 409 244 409 234 436 c 128,-1,12
 224 463 224 463 207 489.5 c 128,-1,13
 190 516 190 516 173.5 543.5 c 128,-1,14
 157 571 157 571 156 600.5 c 128,-1,15
 155 630 155 630 177.5 663 c 128,-1,16
 200 696 200 696 261 734 c 0,17,18
 308 763 308 763 341.5 775 c 128,-1,19
 375 787 375 787 399 786 c 128,-1,20
 423 785 423 785 441 772 c 128,-1,21
 459 759 459 759 474.5 738 c 128,-1,22
 490 717 490 717 506.5 690.5 c 128,-1,23
 523 664 523 664 544 636 c 0,24,25
 547 632 547 632 556 628.5 c 128,-1,26
 565 625 565 625 573 620.5 c 128,-1,27
 581 616 581 616 586 609.5 c 128,-1,28
 591 603 591 603 587 593 c 1,29,30
 556 573 556 573 522 548.5 c 128,-1,31
 488 524 488 524 454 497 c 128,-1,32
 420 470 420 470 388.5 440.5 c 128,-1,33
 357 411 357 411 332 381 c 1,34,35
 321 338 321 338 329 302.5 c 128,-1,36
 337 267 337 267 349 236.5 c 128,-1,37
 361 206 361 206 370 179 c 128,-1,38
 379 152 379 152 370 125.5 c 128,-1,39
 361 99 361 99 327 72 c 128,-1,40
 293 45 293 45 219 14 c 0,41,42
 202 7 202 7 182 3 c 128,-1,43
 162 -1 162 -1 141.5 -1.5 c 128,-1,44
 121 -2 121 -2 101 2 c 128,-1,45
 81 6 81 6 63 14 c 0,0,1
78 99 m 0,46,47
 78 96 78 96 77.5 90 c 128,-1,48
 77 84 77 84 77 77 c 128,-1,49
 77 70 77 70 77.5 64 c 128,-1,50
 78 58 78 58 78 56 c 1,51,52
 152 42 152 42 199 58 c 128,-1,53
 246 74 246 74 271.5 105 c 128,-1,54
 297 136 297 136 304.5 175 c 128,-1,55
 312 214 312 214 307.5 246.5 c 128,-1,56
 303 279 303 279 290 298.5 c 128,-1,57
 277 318 277 318 261 310 c 1,58,59
 248 298 248 298 220 273 c 128,-1,60
 192 248 192 248 162 218 c 128,-1,61
 132 188 132 188 107.5 156 c 128,-1,62
 83 124 83 124 78 99 c 0,46,47
248 480 m 0,63,64
 249 477 249 477 253 470.5 c 128,-1,65
 257 464 257 464 261.5 457.5 c 128,-1,66
 266 451 266 451 269.5 445 c 128,-1,67
 273 439 273 439 275 438 c 0,68,69
 277 436 277 436 282.5 436 c 128,-1,70
 288 436 288 436 290 438 c 0,71,72
 298 444 298 444 318 460 c 128,-1,73
 338 476 338 476 360.5 494 c 128,-1,74
 383 512 383 512 403 528.5 c 128,-1,75
 423 545 423 545 431 551 c 0,76,77
 434 554 434 554 439 558.5 c 128,-1,78
 444 563 444 563 448.5 567.5 c 128,-1,79
 453 572 453 572 456.5 575.5 c 128,-1,80
 460 579 460 579 460 580 c 2,81,-1
 460 692 l 2,82,83
 460 706 460 706 436 712 c 128,-1,84
 412 718 412 718 378.5 714 c 128,-1,85
 345 710 345 710 309.5 695 c 128,-1,86
 274 680 274 680 250.5 652 c 128,-1,87
 227 624 227 624 222.5 581.5 c 128,-1,88
 218 539 218 539 248 480 c 0,63,64
EndSplineSet
EndChar

StartChar: nine
Encoding: 57 57 28
Width: 487
Flags: W
LayerCount: 2
Fore
SplineSet
148 14 m 1,0,1
 144 36 144 36 144.5 53.5 c 128,-1,2
 145 71 145 71 149.5 87 c 128,-1,3
 154 103 154 103 161 119.5 c 128,-1,4
 168 136 168 136 177 156 c 2,5,-1
 304 410 l 1,6,-1
 304 424 l 1,7,8
 282 431 282 431 261.5 426.5 c 128,-1,9
 241 422 241 422 220.5 412 c 128,-1,10
 200 402 200 402 179.5 390 c 128,-1,11
 159 378 159 378 138 370.5 c 128,-1,12
 117 363 117 363 95 364 c 128,-1,13
 73 365 73 365 50 381 c 0,14,15
 25 398 25 398 21 424.5 c 128,-1,16
 17 451 17 451 30 481.5 c 128,-1,17
 43 512 43 512 69.5 542.5 c 128,-1,18
 96 573 96 573 132 598 c 128,-1,19
 168 623 168 623 210 639 c 128,-1,20
 252 655 252 655 295.5 656 c 128,-1,21
 339 657 339 657 381.5 639.5 c 128,-1,22
 424 622 424 622 460 580 c 1,23,24
 462 573 462 573 451.5 542 c 128,-1,25
 441 511 441 511 422.5 466 c 128,-1,26
 404 421 404 421 379 366.5 c 128,-1,27
 354 312 354 312 326.5 257.5 c 128,-1,28
 299 203 299 203 271.5 153.5 c 128,-1,29
 244 104 244 104 219.5 69 c 128,-1,30
 195 34 195 34 176.5 17.5 c 128,-1,31
 158 1 158 1 148 14 c 1,0,1
92 466 m 0,32,33
 90 464 90 464 84.5 452.5 c 128,-1,34
 79 441 79 441 78 438 c 1,35,36
 115 429 115 429 158 439 c 128,-1,37
 201 449 201 449 242 471 c 128,-1,38
 283 493 283 493 318 522 c 128,-1,39
 353 551 353 551 375 580 c 1,40,41
 363 605 363 605 339.5 609.5 c 128,-1,42
 316 614 316 614 288 605.5 c 128,-1,43
 260 597 260 597 229.5 578.5 c 128,-1,44
 199 560 199 560 171.5 539 c 128,-1,45
 144 518 144 518 123 498 c 128,-1,46
 102 478 102 478 92 466 c 0,32,33
EndSplineSet
EndChar

StartChar: colon
Encoding: 58 58 29
Width: 156
Flags: W
LayerCount: 2
Fore
SplineSet
35 29 m 0,0,1
 26 46 26 46 33.5 57 c 128,-1,2
 41 68 41 68 55 71.5 c 128,-1,3
 69 75 69 75 84 71.5 c 128,-1,4
 99 68 99 68 105 56 c 0,5,6
 116 35 116 35 109.5 20.5 c 128,-1,7
 103 6 103 6 89.5 1.5 c 128,-1,8
 76 -3 76 -3 60 3.5 c 128,-1,9
 44 10 44 10 35 29 c 0,0,1
49 368 m 0,10,11
 36 380 36 380 34.5 394.5 c 128,-1,12
 33 409 33 409 40 419.5 c 128,-1,13
 47 430 47 430 60.5 432.5 c 128,-1,14
 74 435 74 435 91 424 c 0,15,16
 107 413 107 413 109 396.5 c 128,-1,17
 111 380 111 380 103.5 368 c 128,-1,18
 96 356 96 356 81 353.5 c 128,-1,19
 66 351 66 351 49 368 c 0,10,11
EndSplineSet
EndChar

StartChar: semicolon
Encoding: 59 59 30
Width: 219
Flags: W
LayerCount: 2
Fore
SplineSet
-20 -206 m 0,0,1
 -22 -204 -22 -204 -22 -199 c 128,-1,2
 -22 -194 -22 -194 -20 -193 c 0,3,4
 16 -148 16 -148 39.5 -112 c 128,-1,5
 63 -76 63 -76 76 -38.5 c 128,-1,6
 89 -1 89 -1 92.5 42.5 c 128,-1,7
 96 86 96 86 92 146 c 1,8,9
 98 150 98 150 105.5 146.5 c 128,-1,10
 113 143 113 143 119.5 137 c 128,-1,11
 126 131 126 131 130.5 125 c 128,-1,12
 135 119 135 119 135 119 c 2,13,14
 158 89 158 89 159 44.5 c 128,-1,15
 160 0 160 0 148 -46 c 128,-1,16
 136 -92 136 -92 114 -134 c 128,-1,17
 92 -176 92 -176 67 -202 c 128,-1,18
 42 -228 42 -228 18.5 -232 c 128,-1,19
 -5 -236 -5 -236 -20 -206 c 0,0,1
50 429 m 0,20,21
 48 432 48 432 48 443.5 c 128,-1,22
 48 455 48 455 50 458 c 1,23,-1
 106 458 l 1,24,-1
 106 401 l 1,25,26
 97 396 97 396 88.5 397.5 c 128,-1,27
 80 399 80 399 72.5 403.5 c 128,-1,28
 65 408 65 408 59 415 c 128,-1,29
 53 422 53 422 50 429 c 0,20,21
EndSplineSet
EndChar

StartChar: less
Encoding: 60 60 31
Width: 580
Flags: W
LayerCount: 2
Fore
SplineSet
495 14 m 0,0,1
 394 80 394 80 291.5 148 c 128,-1,2
 189 216 189 216 99 297 c 0,3,4
 79 315 79 315 58.5 333 c 128,-1,5
 38 351 38 351 26 370 c 128,-1,6
 14 389 14 389 16 409 c 128,-1,7
 18 429 18 429 43 452 c 0,8,9
 54 462 54 462 77 483 c 128,-1,10
 100 504 100 504 129.5 530.5 c 128,-1,11
 159 557 159 557 191 586 c 128,-1,12
 223 615 223 615 252.5 641.5 c 128,-1,13
 282 668 282 668 305 689 c 128,-1,14
 328 710 328 710 339 720 c 1,15,16
 345 722 345 722 356.5 720 c 128,-1,17
 368 718 368 718 377 712 c 128,-1,18
 386 706 386 706 389 697.5 c 128,-1,19
 392 689 392 689 382 678 c 2,20,-1
 114 410 l 2,21,22
 105 401 105 401 110 388 c 128,-1,23
 115 375 115 375 128 359.5 c 128,-1,24
 141 344 141 344 159 328.5 c 128,-1,25
 177 313 177 313 194 300.5 c 128,-1,26
 211 288 211 288 224.5 279 c 128,-1,27
 238 270 238 270 241 268 c 0,28,29
 252 260 252 260 275 244.5 c 128,-1,30
 298 229 298 229 327 209.5 c 128,-1,31
 356 190 356 190 388.5 168.5 c 128,-1,32
 421 147 421 147 450 127.5 c 128,-1,33
 479 108 479 108 502.5 93 c 128,-1,34
 526 78 526 78 537 71 c 1,35,36
 550 55 550 55 552 39.5 c 128,-1,37
 554 24 554 24 548 14 c 128,-1,38
 542 4 542 4 528 3 c 128,-1,39
 514 2 514 2 495 14 c 0,0,1
EndSplineSet
EndChar

StartChar: equal
Encoding: 61 61 32
Width: 537
Flags: W
LayerCount: 2
Fore
SplineSet
29 29 m 0,0,1
 21 40 21 40 38.5 49.5 c 128,-1,2
 56 59 56 59 86 66.5 c 128,-1,3
 116 74 116 74 154 80 c 128,-1,4
 192 86 192 86 225.5 90 c 128,-1,5
 259 94 259 94 283.5 96.5 c 128,-1,6
 308 99 308 99 311 99 c 0,7,8
 321 99 321 99 347.5 99.5 c 128,-1,9
 374 100 374 100 403 100 c 128,-1,10
 432 100 432 100 458 99.5 c 128,-1,11
 484 99 484 99 495 99 c 1,12,13
 502 95 502 95 507.5 87.5 c 128,-1,14
 513 80 513 80 509 71 c 1,15,16
 462 65 462 65 401.5 55 c 128,-1,17
 341 45 341 45 281 34.5 c 128,-1,18
 221 24 221 24 168.5 14.5 c 128,-1,19
 116 5 116 5 85 0 c 0,20,21
 74 -2 74 -2 66.5 -1.5 c 128,-1,22
 59 -1 59 -1 53 2 c 128,-1,23
 47 5 47 5 41.5 11.5 c 128,-1,24
 36 18 36 18 29 29 c 0,0,1
99 310 m 1,25,26
 107 325 107 325 135 337.5 c 128,-1,27
 163 350 163 350 202 357.5 c 128,-1,28
 241 365 241 365 285 368 c 128,-1,29
 329 371 329 371 369 367.5 c 128,-1,30
 409 364 409 364 439 353.5 c 128,-1,31
 469 343 469 343 480 325 c 1,32,33
 475 319 475 319 446 312.5 c 128,-1,34
 417 306 417 306 376.5 300.5 c 128,-1,35
 336 295 336 295 289 291.5 c 128,-1,36
 242 288 242 288 201.5 288.5 c 128,-1,37
 161 289 161 289 132.5 293.5 c 128,-1,38
 104 298 104 298 99 310 c 1,25,26
EndSplineSet
EndChar

StartChar: greater
Encoding: 62 62 33
Width: 431
Flags: W
LayerCount: 2
Fore
SplineSet
49 29 m 0,0,1
 37 53 37 53 54 83 c 128,-1,2
 71 113 71 113 103.5 146.5 c 128,-1,3
 136 180 136 180 176.5 216 c 128,-1,4
 217 252 217 252 250.5 288 c 128,-1,5
 284 324 284 324 304.5 358.5 c 128,-1,6
 325 393 325 393 317 424 c 0,7,8
 316 427 316 427 294 445 c 128,-1,9
 272 463 272 463 239.5 489 c 128,-1,10
 207 515 207 515 170 545.5 c 128,-1,11
 133 576 133 576 102 605 c 128,-1,12
 71 634 71 634 51.5 657 c 128,-1,13
 32 680 32 680 35 692 c 0,14,15
 35 695 35 695 38.5 699.5 c 128,-1,16
 42 704 42 704 46.5 708.5 c 128,-1,17
 51 713 51 713 55.5 716.5 c 128,-1,18
 60 720 60 720 63 720 c 1,19,20
 90 699 90 699 131 673 c 128,-1,21
 172 647 172 647 216 616 c 128,-1,22
 260 585 260 585 300 550.5 c 128,-1,23
 340 516 340 516 364 479 c 128,-1,24
 388 442 388 442 389.5 403 c 128,-1,25
 391 364 391 364 359 325 c 0,26,27
 349 312 349 312 330 289.5 c 128,-1,28
 311 267 311 267 288 239.5 c 128,-1,29
 265 212 265 212 240.5 182.5 c 128,-1,30
 216 153 216 153 194.5 127.5 c 128,-1,31
 173 102 173 102 156.5 82.5 c 128,-1,32
 140 63 140 63 134 56 c 0,33,34
 131 53 131 53 123 45 c 128,-1,35
 115 37 115 37 106 28 c 128,-1,36
 97 19 97 19 88.5 11 c 128,-1,37
 80 3 80 3 77 0 c 1,38,39
 75 1 75 1 71 5 c 128,-1,40
 67 9 67 9 62.5 13.5 c 128,-1,41
 58 18 58 18 54 22.5 c 128,-1,42
 50 27 50 27 49 29 c 0,0,1
EndSplineSet
EndChar

StartChar: question
Encoding: 63 63 34
Width: 685
Flags: W
LayerCount: 2
Fore
SplineSet
97 33 m 0,0,1
 88 46 88 46 82.5 60 c 128,-1,2
 77 74 77 74 82 90 c 0,3,4
 91 118 91 118 100.5 118 c 128,-1,5
 110 118 110 118 117.5 103 c 128,-1,6
 125 88 125 88 128.5 66 c 128,-1,7
 132 44 132 44 130.5 28.5 c 128,-1,8
 129 13 129 13 121 10.5 c 128,-1,9
 113 8 113 8 97 33 c 0,0,1
80 341 m 0,10,11
 73 367 73 367 93 399.5 c 128,-1,12
 113 432 113 432 149.5 468.5 c 128,-1,13
 186 505 186 505 235 543.5 c 128,-1,14
 284 582 284 582 336 620.5 c 128,-1,15
 388 659 388 659 438 696 c 128,-1,16
 488 733 488 733 527 766.5 c 128,-1,17
 566 800 566 800 589 828 c 128,-1,18
 612 856 612 856 610.5 876.5 c 128,-1,19
 609 897 609 897 577.5 908.5 c 128,-1,20
 546 920 546 920 475 920 c 2,21,-1
 136 920 l 1,22,23
 127 940 127 940 134.5 958 c 128,-1,24
 142 976 142 976 165 976 c 2,25,-1
 518 976 l 2,26,27
 549 976 549 976 586 958.5 c 128,-1,28
 623 941 623 941 649.5 913 c 128,-1,29
 676 885 676 885 682.5 849.5 c 128,-1,30
 689 814 689 814 659 779 c 0,31,32
 621 734 621 734 575 698.5 c 128,-1,33
 529 663 529 663 479.5 631 c 128,-1,34
 430 599 430 599 379 569 c 128,-1,35
 328 539 328 539 281.5 505 c 128,-1,36
 235 471 235 471 194 431 c 128,-1,37
 153 391 153 391 123 341 c 0,38,39
 119 336 119 336 113 331.5 c 128,-1,40
 107 327 107 327 100 326 c 128,-1,41
 93 325 93 325 87.5 328 c 128,-1,42
 82 331 82 331 80 341 c 0,10,11
EndSplineSet
EndChar

StartChar: at
Encoding: 64 64 35
Width: 834
Flags: W
LayerCount: 2
Fore
SplineSet
212 14 m 0,0,1
 134 37 134 37 91 87 c 128,-1,2
 48 137 48 137 33.5 203.5 c 128,-1,3
 19 270 19 270 29.5 348.5 c 128,-1,4
 40 427 40 427 69 506 c 128,-1,5
 98 585 98 585 142 659.5 c 128,-1,6
 186 734 186 734 237.5 793 c 128,-1,7
 289 852 289 852 344.5 890.5 c 128,-1,8
 400 929 400 929 453.5 936 c 128,-1,9
 507 943 507 943 554.5 913 c 128,-1,10
 602 883 602 883 636 805 c 0,11,12
 652 768 652 768 662 728 c 128,-1,13
 672 688 672 688 672 647.5 c 128,-1,14
 672 607 672 607 660 568 c 128,-1,15
 648 529 648 529 622 495 c 0,16,17
 603 470 603 470 578.5 443 c 128,-1,18
 554 416 554 416 525 394.5 c 128,-1,19
 496 373 496 373 463.5 360.5 c 128,-1,20
 431 348 431 348 396 353 c 0,21,22
 382 355 382 355 360 353.5 c 128,-1,23
 338 352 338 352 314.5 350 c 128,-1,24
 291 348 291 348 270.5 348 c 128,-1,25
 250 348 250 348 241 353 c 0,26,27
 203 372 203 372 190.5 398.5 c 128,-1,28
 178 425 178 425 183.5 454.5 c 128,-1,29
 189 484 189 484 208.5 514 c 128,-1,30
 228 544 228 544 254.5 569.5 c 128,-1,31
 281 595 281 595 311 614 c 128,-1,32
 341 633 341 633 367.5 640 c 128,-1,33
 394 647 394 647 413.5 640 c 128,-1,34
 433 633 433 633 438 607 c 0,35,36
 442 586 442 586 438 562 c 128,-1,37
 434 538 434 538 426 513.5 c 128,-1,38
 418 489 418 489 409 466 c 128,-1,39
 400 443 400 443 396 424 c 1,40,41
 401 414 401 414 408 411 c 128,-1,42
 415 408 415 408 423 409.5 c 128,-1,43
 431 411 431 411 438.5 415 c 128,-1,44
 446 419 446 419 453 424 c 0,45,46
 497 453 497 453 528.5 485 c 128,-1,47
 560 517 560 517 579.5 554.5 c 128,-1,48
 599 592 599 592 606 636 c 128,-1,49
 613 680 613 680 608 734 c 0,50,51
 601 810 601 810 569.5 841 c 128,-1,52
 538 872 538 872 492.5 869 c 128,-1,53
 447 866 447 866 392.5 832.5 c 128,-1,54
 338 799 338 799 286 745 c 128,-1,55
 234 691 234 691 189 621 c 128,-1,56
 144 551 144 551 117 474.5 c 128,-1,57
 90 398 90 398 86.5 319.5 c 128,-1,58
 83 241 83 241 114 170 c 0,59,60
 140 108 140 108 177 80 c 128,-1,61
 214 52 214 52 257.5 49 c 128,-1,62
 301 46 301 46 349.5 64 c 128,-1,63
 398 82 398 82 447.5 112 c 128,-1,64
 497 142 497 142 546.5 179.5 c 128,-1,65
 596 217 596 217 640.5 253.5 c 128,-1,66
 685 290 685 290 724 320.5 c 128,-1,67
 763 351 763 351 792 368 c 1,68,69
 799 322 799 322 771 274.5 c 128,-1,70
 743 227 743 227 693 184 c 128,-1,71
 643 141 643 141 578 104 c 128,-1,72
 513 67 513 67 446 43 c 128,-1,73
 379 19 379 19 317 10.5 c 128,-1,74
 255 2 255 2 212 14 c 0,0,1
255 466 m 0,75,76
 253 461 253 461 253 445 c 128,-1,77
 253 429 253 429 255 424 c 1,78,79
 279 410 279 410 296 426 c 128,-1,80
 313 442 313 442 325 469.5 c 128,-1,81
 337 497 337 497 344 525.5 c 128,-1,82
 351 554 351 554 353 565 c 1,83,84
 336 575 336 575 319.5 564 c 128,-1,85
 303 553 303 553 289.5 534.5 c 128,-1,86
 276 516 276 516 267 495.5 c 128,-1,87
 258 475 258 475 255 466 c 0,75,76
EndSplineSet
EndChar

StartChar: A
Encoding: 65 65 36
Width: 1059
Flags: W
LayerCount: 2
Fore
SplineSet
-98 -231 m 0,0,1
 -102 -228 -102 -228 -110 -219 c 128,-1,2
 -118 -210 -118 -210 -123 -200.5 c 128,-1,3
 -128 -191 -128 -191 -127 -183 c 128,-1,4
 -126 -175 -126 -175 -113 -175 c 1,5,6
 -93 -202 -93 -202 -61 -203.5 c 128,-1,7
 -29 -205 -29 -205 10 -188.5 c 128,-1,8
 49 -172 49 -172 91.5 -141 c 128,-1,9
 134 -110 134 -110 175 -73 c 128,-1,10
 216 -36 216 -36 253.5 4 c 128,-1,11
 291 44 291 44 319.5 79.5 c 128,-1,12
 348 115 348 115 365 141.5 c 128,-1,13
 382 168 382 168 382 178 c 0,14,15
 382 182 382 182 371.5 190 c 128,-1,16
 361 198 361 198 348.5 206.5 c 128,-1,17
 336 215 336 215 324.5 222.5 c 128,-1,18
 313 230 313 230 311 234 c 1,19,20
 315 246 315 246 335 253.5 c 128,-1,21
 355 261 355 261 380 266.5 c 128,-1,22
 405 272 405 272 429 277.5 c 128,-1,23
 453 283 453 283 466 291 c 1,24,25
 510 355 510 355 546.5 410 c 128,-1,26
 583 465 583 465 614.5 516 c 128,-1,27
 646 567 646 567 675.5 615.5 c 128,-1,28
 705 664 705 664 735.5 715.5 c 128,-1,29
 766 767 766 767 799 823.5 c 128,-1,30
 832 880 832 880 872 946 c 0,31,32
 888 973 888 973 898 964.5 c 128,-1,33
 908 956 908 956 913.5 922.5 c 128,-1,34
 919 889 919 889 920 836.5 c 128,-1,35
 921 784 921 784 919.5 724 c 128,-1,36
 918 664 918 664 915 602 c 128,-1,37
 912 540 912 540 909.5 487.5 c 128,-1,38
 907 435 907 435 905 397 c 128,-1,39
 903 359 903 359 904 347 c 0,40,41
 908 284 908 284 910 237 c 128,-1,42
 912 190 912 190 922.5 150.5 c 128,-1,43
 933 111 933 111 957 74 c 128,-1,44
 981 37 981 37 1031 -6 c 1,45,46
 990 -19 990 -19 963.5 -3.5 c 128,-1,47
 937 12 937 12 920 43.5 c 128,-1,48
 903 75 903 75 892.5 117 c 128,-1,49
 882 159 882 159 872 198 c 128,-1,50
 862 237 862 237 850.5 267 c 128,-1,51
 839 297 839 297 819 305 c 0,52,53
 817 305 817 305 811.5 305.5 c 128,-1,54
 806 306 806 306 799.5 306 c 128,-1,55
 793 306 793 306 786.5 305.5 c 128,-1,56
 780 305 780 305 777 305 c 0,57,58
 770 303 770 303 753.5 299.5 c 128,-1,59
 737 296 737 296 715 290.5 c 128,-1,60
 693 285 693 285 668.5 279 c 128,-1,61
 644 273 644 273 621 267 c 128,-1,62
 598 261 598 261 579.5 256.5 c 128,-1,63
 561 252 561 252 551 249 c 0,64,65
 520 241 520 241 485.5 209.5 c 128,-1,66
 451 178 451 178 413 133.5 c 128,-1,67
 375 89 375 89 334.5 36.5 c 128,-1,68
 294 -16 294 -16 251.5 -66 c 128,-1,69
 209 -116 209 -116 165 -159 c 128,-1,70
 121 -202 121 -202 77 -227.5 c 128,-1,71
 33 -253 33 -253 -11 -256.5 c 128,-1,72
 -55 -260 -55 -260 -98 -231 c 0,0,1
580 319 m 1,73,74
 583 318 583 318 593.5 318 c 128,-1,75
 604 318 604 318 607 319 c 0,76,77
 629 322 629 322 663 327 c 128,-1,78
 697 332 697 332 731.5 339 c 128,-1,79
 766 346 766 346 794.5 355.5 c 128,-1,80
 823 365 823 365 834 376 c 1,81,82
 834 376 834 376 837.5 402 c 128,-1,83
 841 428 841 428 846 468.5 c 128,-1,84
 851 509 851 509 856.5 559 c 128,-1,85
 862 609 862 609 867 656.5 c 128,-1,86
 872 704 872 704 875.5 744.5 c 128,-1,87
 879 785 879 785 880 807 c 1,88,89
 867 813 867 813 844 775.5 c 128,-1,90
 821 738 821 738 785.5 671.5 c 128,-1,91
 750 605 750 605 699.5 516.5 c 128,-1,92
 649 428 649 428 580 334 c 1,93,-1
 580 319 l 1,73,74
EndSplineSet
EndChar

StartChar: B
Encoding: 66 66 37
Width: 897
Flags: W
LayerCount: 2
Fore
SplineSet
92 4 m 0,0,1
 55 25 55 25 40 45 c 128,-1,2
 25 65 25 65 25 87.5 c 128,-1,3
 25 110 25 110 36.5 137.5 c 128,-1,4
 48 165 48 165 63 201 c 0,5,6
 66 208 66 208 77 231.5 c 128,-1,7
 88 255 88 255 103 286 c 128,-1,8
 118 317 118 317 134 352 c 128,-1,9
 150 387 150 387 165 418 c 128,-1,10
 180 449 180 449 190.5 472 c 128,-1,11
 201 495 201 495 205 503 c 0,12,13
 221 539 221 539 219 565.5 c 128,-1,14
 217 592 217 592 213 615 c 128,-1,15
 209 638 209 638 210 661 c 128,-1,16
 211 684 211 684 233 713 c 0,17,18
 236 717 236 717 248.5 730.5 c 128,-1,19
 261 744 261 744 275.5 759.5 c 128,-1,20
 290 775 290 775 302.5 788.5 c 128,-1,21
 315 802 315 802 318 805 c 0,22,23
 325 813 325 813 354 830 c 128,-1,24
 383 847 383 847 425.5 868 c 128,-1,25
 468 889 468 889 519.5 910.5 c 128,-1,26
 571 932 571 932 622.5 948.5 c 128,-1,27
 674 965 674 965 721.5 974.5 c 128,-1,28
 769 984 769 984 802.5 980 c 128,-1,29
 836 976 836 976 851.5 956 c 128,-1,30
 867 936 867 936 856 895 c 0,31,32
 843 850 843 850 820 812.5 c 128,-1,33
 797 775 797 775 768 743.5 c 128,-1,34
 739 712 739 712 707.5 685 c 128,-1,35
 676 658 676 658 647.5 635.5 c 128,-1,36
 619 613 619 613 595 593 c 128,-1,37
 571 573 571 573 558 555 c 1,38,39
 678 551 678 551 745.5 530 c 128,-1,40
 813 509 813 509 839 475.5 c 128,-1,41
 865 442 865 442 854.5 399.5 c 128,-1,42
 844 357 844 357 808 311.5 c 128,-1,43
 772 266 772 266 715 219.5 c 128,-1,44
 658 173 658 173 590.5 132 c 128,-1,45
 523 91 523 91 450.5 58.5 c 128,-1,46
 378 26 378 26 310.5 7 c 128,-1,47
 243 -12 243 -12 185.5 -14 c 128,-1,48
 128 -16 128 -16 92 4 c 0,0,1
191 306 m 1,49,50
 167 278 167 278 147 243.5 c 128,-1,51
 127 209 127 209 116.5 175.5 c 128,-1,52
 106 142 106 142 107 113 c 128,-1,53
 108 84 108 84 125.5 65.5 c 128,-1,54
 143 47 143 47 179 43.5 c 128,-1,55
 215 40 215 40 275 57 c 1,56,57
 408 87 408 87 506 133 c 128,-1,58
 604 179 604 179 668 230 c 128,-1,59
 732 281 732 281 763 331 c 128,-1,60
 794 381 794 381 792 419 c 128,-1,61
 790 457 790 457 756 477.5 c 128,-1,62
 722 498 722 498 657 489.5 c 128,-1,63
 592 481 592 481 496 438 c 128,-1,64
 400 395 400 395 275 306 c 0,65,66
 261 295 261 295 250 295.5 c 128,-1,67
 239 296 239 296 229 300.5 c 128,-1,68
 219 305 219 305 210 308.5 c 128,-1,69
 201 312 201 312 191 306 c 1,49,50
219 411 m 1,70,71
 219 408 219 408 218.5 400.5 c 128,-1,72
 218 393 218 393 218 384.5 c 128,-1,73
 218 376 218 376 218.5 368.5 c 128,-1,74
 219 361 219 361 219 358 c 1,75,76
 229 360 229 360 260.5 381.5 c 128,-1,77
 292 403 292 403 336 436.5 c 128,-1,78
 380 470 380 470 432.5 513.5 c 128,-1,79
 485 557 485 557 538 603.5 c 128,-1,80
 591 650 591 650 639 697 c 128,-1,81
 687 744 687 744 722.5 785 c 128,-1,82
 758 826 758 826 776 858 c 128,-1,83
 794 890 794 890 786 907 c 1,84,85
 731 915 731 915 670.5 901 c 128,-1,86
 610 887 610 887 552 859.5 c 128,-1,87
 494 832 494 832 444 796 c 128,-1,88
 394 760 394 760 360 726 c 1,89,90
 355 715 355 715 345.5 692.5 c 128,-1,91
 336 670 336 670 323.5 641.5 c 128,-1,92
 311 613 311 613 297 581.5 c 128,-1,93
 283 550 283 550 270.5 521.5 c 128,-1,94
 258 493 258 493 248 470.5 c 128,-1,95
 238 448 238 448 233 437 c 0,96,97
 232 435 232 435 226 424 c 128,-1,98
 220 413 220 413 219 411 c 1,70,71
EndSplineSet
EndChar

StartChar: C
Encoding: 67 67 38
Width: 791
Flags: W
LayerCount: 2
Fore
SplineSet
134 14 m 0,0,1
 73 38 73 38 42.5 75.5 c 128,-1,2
 12 113 12 113 6 160 c 128,-1,3
 0 207 0 207 15 261 c 128,-1,4
 30 315 30 315 59.5 372.5 c 128,-1,5
 89 430 89 430 130.5 488.5 c 128,-1,6
 172 547 172 547 219 602.5 c 128,-1,7
 266 658 266 658 315.5 708.5 c 128,-1,8
 365 759 365 759 411 800.5 c 128,-1,9
 457 842 457 842 496 872.5 c 128,-1,10
 535 903 535 903 561 919 c 0,11,12
 606 946 606 946 636 946 c 128,-1,13
 666 946 666 946 684 927.5 c 128,-1,14
 702 909 702 909 709 877 c 128,-1,15
 716 845 716 845 715.5 809 c 128,-1,16
 715 773 715 773 708 737.5 c 128,-1,17
 701 702 701 702 690.5 675.5 c 128,-1,18
 680 649 680 649 668 637 c 128,-1,19
 656 625 656 625 645 636 c 1,20,21
 644 646 644 646 647.5 667 c 128,-1,22
 651 688 651 688 656.5 713.5 c 128,-1,23
 662 739 662 739 667.5 766.5 c 128,-1,24
 673 794 673 794 675 817.5 c 128,-1,25
 677 841 677 841 673.5 857 c 128,-1,26
 670 873 670 873 659 876 c 0,27,28
 623 885 623 885 577 866 c 128,-1,29
 531 847 531 847 479.5 808 c 128,-1,30
 428 769 428 769 375 714 c 128,-1,31
 322 659 322 659 272.5 596 c 128,-1,32
 223 533 223 533 180.5 466 c 128,-1,33
 138 399 138 399 108.5 336 c 128,-1,34
 79 273 79 273 65 218 c 128,-1,35
 51 163 51 163 58 124 c 128,-1,36
 65 85 65 85 97 66 c 128,-1,37
 129 47 129 47 191 56 c 0,38,39
 238 63 238 63 280.5 84 c 128,-1,40
 323 105 323 105 363 134 c 128,-1,41
 403 163 403 163 440.5 197 c 128,-1,42
 478 231 478 231 515.5 263.5 c 128,-1,43
 553 296 553 296 591.5 323.5 c 128,-1,44
 630 351 630 351 671 368 c 1,45,46
 693 376 693 376 707 361 c 128,-1,47
 721 346 721 346 714 325 c 256,48,49
 707 304 707 304 669.5 269 c 128,-1,50
 632 234 632 234 578 195.5 c 128,-1,51
 524 157 524 157 459 119 c 128,-1,52
 394 81 394 81 332 53.5 c 128,-1,53
 270 26 270 26 217 14 c 128,-1,54
 164 2 164 2 134 14 c 0,0,1
EndSplineSet
EndChar

StartChar: D
Encoding: 68 68 39
Width: 1029
Flags: W
LayerCount: 2
Fore
SplineSet
29 14 m 0,0,1
 22 33 22 33 31 47.5 c 128,-1,2
 40 62 40 62 57 71 c 0,3,4
 135 110 135 110 209 136.5 c 128,-1,5
 283 163 283 163 355 190 c 128,-1,6
 427 217 427 217 498.5 250.5 c 128,-1,7
 570 284 570 284 643 336 c 1,8,9
 774 412 774 412 855.5 480 c 128,-1,10
 937 548 937 548 978 606.5 c 128,-1,11
 1019 665 1019 665 1024.5 713.5 c 128,-1,12
 1030 762 1030 762 1008.5 799.5 c 128,-1,13
 987 837 987 837 944 862 c 128,-1,14
 901 887 901 887 844.5 899 c 128,-1,15
 788 911 788 911 723 908.5 c 128,-1,16
 658 906 658 906 593.5 888.5 c 128,-1,17
 529 871 529 871 470 837 c 128,-1,18
 411 803 411 803 366 751 c 0,19,20
 365 749 365 749 362.5 742.5 c 128,-1,21
 360 736 360 736 358 729 c 128,-1,22
 356 722 356 722 354 715.5 c 128,-1,23
 352 709 352 709 352 708 c 0,24,25
 327 648 327 648 304.5 600 c 128,-1,26
 282 552 282 552 260.5 510 c 128,-1,27
 239 468 239 468 219.5 429 c 128,-1,28
 200 390 200 390 182 347.5 c 128,-1,29
 164 305 164 305 147 255 c 128,-1,30
 130 205 130 205 114 141 c 1,31,32
 92 134 92 134 82 142.5 c 128,-1,33
 72 151 72 151 71 169 c 128,-1,34
 70 187 70 187 75.5 211 c 128,-1,35
 81 235 81 235 88.5 257.5 c 128,-1,36
 96 280 96 280 103.5 298.5 c 128,-1,37
 111 317 111 317 114 325 c 0,38,39
 124 353 124 353 145.5 399.5 c 128,-1,40
 167 446 167 446 190.5 495.5 c 128,-1,41
 214 545 214 545 235 591 c 128,-1,42
 256 637 256 637 267 666 c 1,43,44
 256 702 256 702 263 730.5 c 128,-1,45
 270 759 270 759 288 782 c 128,-1,46
 306 805 306 805 330.5 824.5 c 128,-1,47
 355 844 355 844 380 863 c 0,48,49
 451 915 451 915 533.5 944 c 128,-1,50
 616 973 616 973 702 976 c 128,-1,51
 788 979 788 979 872.5 954 c 128,-1,52
 957 929 957 929 1032 872 c 1,53,54
 1092 822 1092 822 1102.5 763.5 c 128,-1,55
 1113 705 1113 705 1086 643 c 128,-1,56
 1059 581 1059 581 1000.5 517 c 128,-1,57
 942 453 942 453 864.5 391.5 c 128,-1,58
 787 330 787 330 696.5 273.5 c 128,-1,59
 606 217 606 217 515.5 169 c 128,-1,60
 425 121 425 121 339.5 84.5 c 128,-1,61
 254 48 254 48 187 26.5 c 128,-1,62
 120 5 120 5 77.5 0.5 c 128,-1,63
 35 -4 35 -4 29 14 c 0,0,1
EndSplineSet
EndChar

StartChar: E
Encoding: 69 69 40
Width: 932
Flags: W
LayerCount: 2
Fore
SplineSet
22 29 m 1,0,1
 15 35 15 35 26 43 c 1,2,3
 38 88 38 88 52 129.5 c 128,-1,4
 66 171 66 171 81 211.5 c 128,-1,5
 96 252 96 252 112.5 293.5 c 128,-1,6
 129 335 129 335 148 381 c 0,7,8
 154 393 154 393 145.5 405 c 128,-1,9
 137 417 137 417 127 429 c 128,-1,10
 117 441 117 441 112 453.5 c 128,-1,11
 107 466 107 466 121 480 c 0,12,13
 122 481 122 481 130.5 483.5 c 128,-1,14
 139 486 139 486 148.5 488 c 128,-1,15
 158 490 158 490 166.5 492 c 128,-1,16
 175 494 175 494 177 495 c 256,17,18
 179 496 179 496 183 499.5 c 128,-1,19
 187 503 187 503 191.5 507.5 c 128,-1,20
 196 512 196 512 200 516 c 128,-1,21
 204 520 204 520 205 522 c 0,22,23
 224 556 224 556 242.5 582.5 c 128,-1,24
 261 609 261 609 276.5 635 c 128,-1,25
 292 661 292 661 305.5 690 c 128,-1,26
 319 719 319 719 328 758 c 0,27,28
 332 773 332 773 321 777 c 128,-1,29
 310 781 310 781 296.5 785 c 128,-1,30
 283 789 283 789 273.5 797 c 128,-1,31
 264 805 264 805 272 828 c 0,32,33
 277 842 277 842 320 858 c 128,-1,34
 363 874 363 874 429.5 889 c 128,-1,35
 496 904 496 904 578 916.5 c 128,-1,36
 660 929 660 929 742.5 936.5 c 128,-1,37
 825 944 825 944 900.5 945.5 c 128,-1,38
 976 947 976 947 1028.5 940 c 128,-1,39
 1081 933 1081 933 1103 916 c 128,-1,40
 1125 899 1125 899 1102 870 c 1,41,42
 1091 867 1091 867 1079 869.5 c 128,-1,43
 1067 872 1067 872 1054.5 875.5 c 128,-1,44
 1042 879 1042 879 1029 882 c 128,-1,45
 1016 885 1016 885 1003 884 c 0,46,47
 943 879 943 879 885 880 c 128,-1,48
 827 881 827 881 770 881 c 128,-1,49
 713 881 713 881 655.5 876.5 c 128,-1,50
 598 872 598 872 540 856 c 0,51,52
 500 845 500 845 469 816.5 c 128,-1,53
 438 788 438 788 409.5 745 c 128,-1,54
 381 702 381 702 352.5 645.5 c 128,-1,55
 324 589 324 589 290 522 c 1,56,57
 304 519 304 519 342 528 c 128,-1,58
 380 537 380 537 429.5 549.5 c 128,-1,59
 479 562 479 562 533.5 575.5 c 128,-1,60
 588 589 588 589 636.5 594.5 c 128,-1,61
 685 600 685 600 721.5 594.5 c 128,-1,62
 758 589 758 589 770 565 c 0,63,64
 771 563 771 563 771 558 c 128,-1,65
 771 553 771 553 770 551 c 1,66,67
 704 541 704 541 633.5 533 c 128,-1,68
 563 525 563 525 493.5 513 c 128,-1,69
 424 501 424 501 357.5 480.5 c 128,-1,70
 291 460 291 460 233 424 c 1,71,72
 185 340 185 340 147.5 251.5 c 128,-1,73
 110 163 110 163 81 71 c 1,74,75
 117 84 117 84 165 96 c 128,-1,76
 213 108 213 108 257.5 117.5 c 128,-1,77
 302 127 302 127 335.5 133.5 c 128,-1,78
 369 140 369 140 375 141 c 0,79,80
 481 158 481 158 579.5 167.5 c 128,-1,81
 678 177 678 177 784 170 c 1,82,83
 793 168 793 168 796.5 160 c 128,-1,84
 800 152 800 152 801 143 c 128,-1,85
 802 134 802 134 801 125.5 c 128,-1,86
 800 117 800 117 799 113 c 1,87,88
 662 120 662 120 528.5 102.5 c 128,-1,89
 395 85 395 85 261 56 c 0,90,91
 240 51 240 51 209.5 39 c 128,-1,92
 179 27 179 27 147 17 c 128,-1,93
 115 7 115 7 85.5 3.5 c 128,-1,94
 56 0 56 0 36 13 c 1,95,96
 31 15 31 15 27.5 18.5 c 128,-1,97
 24 22 24 22 22 29 c 1,0,1
EndSplineSet
EndChar

StartChar: F
Encoding: 70 70 41
Width: 930
Flags: W
LayerCount: 2
Fore
SplineSet
22 14 m 256,0,1
 16 31 16 31 19 49.5 c 128,-1,2
 22 68 22 68 29.5 86.5 c 128,-1,3
 37 105 37 105 46.5 122.5 c 128,-1,4
 56 140 56 140 63 156 c 0,5,6
 69 168 69 168 83 200 c 128,-1,7
 97 232 97 232 113 268 c 128,-1,8
 129 304 129 304 143 336 c 128,-1,9
 157 368 157 368 163 381 c 0,10,11
 170 397 170 397 161 408.5 c 128,-1,12
 152 420 152 420 141 431 c 128,-1,13
 130 442 130 442 124.5 453.5 c 128,-1,14
 119 465 119 465 134 480 c 0,15,16
 143 489 143 489 157 491.5 c 128,-1,17
 171 494 171 494 185.5 496 c 128,-1,18
 200 498 200 498 213 503 c 128,-1,19
 226 508 226 508 233 522 c 2,20,-1
 375 793 l 1,21,22
 366 827 366 827 369 849 c 128,-1,23
 372 871 372 871 384 887.5 c 128,-1,24
 396 904 396 904 416 918 c 128,-1,25
 436 932 436 932 460 949 c 1,26,27
 524 959 524 959 587 968 c 128,-1,28
 650 977 650 977 713 983 c 128,-1,29
 776 989 776 989 840 991 c 128,-1,30
 904 993 904 993 969 990 c 0,31,32
 976 989 976 989 987.5 979.5 c 128,-1,33
 999 970 999 970 1006.5 958 c 128,-1,34
 1014 946 1014 946 1013.5 935 c 128,-1,35
 1013 924 1013 924 996 920 c 0,36,37
 994 920 994 920 988 922 c 128,-1,38
 982 924 982 924 975 926.5 c 128,-1,39
 968 929 968 929 961.5 931.5 c 128,-1,40
 955 934 955 934 954 934 c 0,41,42
 854 934 854 934 780.5 931.5 c 128,-1,43
 707 929 707 929 652.5 921 c 128,-1,44
 598 913 598 913 559 897 c 128,-1,45
 520 881 520 881 489 852.5 c 128,-1,46
 458 824 458 824 431 781.5 c 128,-1,47
 404 739 404 739 375 678 c 1,48,49
 375 678 375 678 366.5 663 c 128,-1,50
 358 648 358 648 349 627.5 c 128,-1,51
 340 607 340 607 334 585.5 c 128,-1,52
 328 564 328 564 332 551 c 1,53,54
 379 543 379 543 426.5 547.5 c 128,-1,55
 474 552 474 552 522 563.5 c 128,-1,56
 570 575 570 575 618.5 590 c 128,-1,57
 667 605 667 605 715.5 617 c 128,-1,58
 764 629 764 629 813 635.5 c 128,-1,59
 862 642 862 642 911 636 c 1,60,-1
 911 607 l 2,61,62
 911 605 911 605 884 600 c 128,-1,63
 857 595 857 595 812.5 586.5 c 128,-1,64
 768 578 768 578 710 566 c 128,-1,65
 652 554 652 554 589.5 538.5 c 128,-1,66
 527 523 527 523 465 504 c 128,-1,67
 403 485 403 485 350.5 462 c 128,-1,68
 298 439 298 439 259.5 411.5 c 128,-1,69
 221 384 221 384 205 353 c 0,70,71
 164 272 164 272 128.5 186 c 128,-1,72
 93 100 93 100 63 14 c 1,73,74
 55 3 55 3 41.5 0 c 128,-1,75
 28 -3 28 -3 22 14 c 256,0,1
EndSplineSet
EndChar

StartChar: G
Encoding: 71 71 42
Width: 760
Flags: W
LayerCount: 2
Fore
SplineSet
92 14 m 0,0,1
 37 55 37 55 17.5 115.5 c 128,-1,2
 -2 176 -2 176 5 246.5 c 128,-1,3
 12 317 12 317 42 393.5 c 128,-1,4
 72 470 72 470 116.5 544 c 128,-1,5
 161 618 161 618 216.5 684.5 c 128,-1,6
 272 751 272 751 330.5 802 c 128,-1,7
 389 853 389 853 446 883.5 c 128,-1,8
 503 914 503 914 550 916 c 1,9,10
 573 922 573 922 596 915 c 128,-1,11
 619 908 619 908 637.5 892 c 128,-1,12
 656 876 656 876 669 855 c 128,-1,13
 682 834 682 834 685 813 c 128,-1,14
 688 792 688 792 679.5 774.5 c 128,-1,15
 671 757 671 757 648 748 c 0,16,17
 643 745 643 745 635.5 745 c 128,-1,18
 628 745 628 745 628 748 c 2,19,-1
 628 846 l 2,20,21
 628 849 628 849 622 852 c 128,-1,22
 616 855 616 855 607.5 857 c 128,-1,23
 599 859 599 859 590.5 860 c 128,-1,24
 582 861 582 861 577 860 c 0,25,26
 454 829 454 829 365.5 755 c 128,-1,27
 277 681 277 681 219 580 c 0,28,29
 136 434 136 434 97.5 336.5 c 128,-1,30
 59 239 59 239 54.5 181 c 128,-1,31
 50 123 50 123 75 100 c 128,-1,32
 100 77 100 77 143 79.5 c 128,-1,33
 186 82 186 82 242 105 c 128,-1,34
 298 128 298 128 356 163 c 128,-1,35
 414 198 414 198 469 239.5 c 128,-1,36
 524 281 524 281 565 320 c 128,-1,37
 606 359 606 359 628.5 391 c 128,-1,38
 651 423 651 423 643 438 c 1,39,40
 623 441 623 441 599 435 c 128,-1,41
 575 429 575 429 558 424 c 0,42,43
 546 420 546 420 516 410 c 128,-1,44
 486 400 486 400 452 389 c 128,-1,45
 418 378 418 378 388 367.5 c 128,-1,46
 358 357 358 357 346 353 c 0,47,48
 328 347 328 347 316.5 356.5 c 128,-1,49
 305 366 305 366 301 379.5 c 128,-1,50
 297 393 297 393 300.5 407 c 128,-1,51
 304 421 304 421 318 424 c 0,52,53
 333 427 333 427 366 438 c 128,-1,54
 399 449 399 449 442 464.5 c 128,-1,55
 485 480 485 480 535 497 c 128,-1,56
 585 514 585 514 633.5 529 c 128,-1,57
 682 544 682 544 725.5 554.5 c 128,-1,58
 769 565 769 565 798.5 566 c 128,-1,59
 828 567 828 567 841 557 c 128,-1,60
 854 547 854 547 841 522 c 1,61,62
 829 510 829 510 799.5 479.5 c 128,-1,63
 770 449 770 449 736 415 c 128,-1,64
 702 381 702 381 672 351.5 c 128,-1,65
 642 322 642 322 629 310 c 0,66,67
 626 307 626 307 614 297 c 128,-1,68
 602 287 602 287 585 272.5 c 128,-1,69
 568 258 568 258 548 241.5 c 128,-1,70
 528 225 528 225 509 208.5 c 128,-1,71
 490 192 490 192 473 178 c 128,-1,72
 456 164 456 164 445 156 c 1,73,74
 429 142 429 142 403.5 121 c 128,-1,75
 378 100 378 100 347.5 78 c 128,-1,76
 317 56 317 56 283.5 36.5 c 128,-1,77
 250 17 250 17 216 6 c 128,-1,78
 182 -5 182 -5 150 -5 c 128,-1,79
 118 -5 118 -5 92 14 c 0,0,1
EndSplineSet
EndChar

StartChar: H
Encoding: 72 72 43
Width: 886
Flags: W
LayerCount: 2
Fore
SplineSet
43 14 m 0,0,1
 30 33 30 33 33.5 74 c 128,-1,2
 37 115 37 115 50 166.5 c 128,-1,3
 63 218 63 218 82.5 275.5 c 128,-1,4
 102 333 102 333 122 384.5 c 128,-1,5
 142 436 142 436 159 477 c 128,-1,6
 176 518 176 518 184 537 c 0,7,8
 192 557 192 557 206.5 590.5 c 128,-1,9
 221 624 221 624 238 665.5 c 128,-1,10
 255 707 255 707 274 751.5 c 128,-1,11
 293 796 293 796 310 837.5 c 128,-1,12
 327 879 327 879 341 912.5 c 128,-1,13
 355 946 355 946 364 966 c 1,14,15
 391 975 391 975 400 964.5 c 128,-1,16
 409 954 409 954 405 929 c 128,-1,17
 401 904 401 904 387.5 868.5 c 128,-1,18
 374 833 374 833 355.5 792.5 c 128,-1,19
 337 752 337 752 317.5 709.5 c 128,-1,20
 298 667 298 667 282.5 628.5 c 128,-1,21
 267 590 267 590 259 558.5 c 128,-1,22
 251 527 251 527 255 509 c 1,23,24
 277 506 277 506 306.5 508.5 c 128,-1,25
 336 511 336 511 367 516 c 128,-1,26
 398 521 398 521 427.5 527 c 128,-1,27
 457 533 457 533 480 537 c 0,28,29
 555 550 555 550 610 569.5 c 128,-1,30
 665 589 665 589 705.5 616.5 c 128,-1,31
 746 644 746 644 775.5 680 c 128,-1,32
 805 716 805 716 830 762.5 c 128,-1,33
 855 809 855 809 879 865 c 128,-1,34
 903 921 903 921 933 989 c 0,35,36
 943 1010 943 1010 952 1006.5 c 128,-1,37
 961 1003 961 1003 967 989 c 128,-1,38
 973 975 973 975 975 957 c 128,-1,39
 977 939 977 939 975 932 c 0,40,41
 974 929 974 929 967.5 916.5 c 128,-1,42
 961 904 961 904 954 889.5 c 128,-1,43
 947 875 947 875 940.5 863 c 128,-1,44
 934 851 934 851 933 848 c 0,45,46
 931 843 931 843 927 831 c 128,-1,47
 923 819 923 819 918.5 805.5 c 128,-1,48
 914 792 914 792 909.5 779.5 c 128,-1,49
 905 767 905 767 904 763 c 1,50,51
 909 761 909 761 920 750 c 128,-1,52
 931 739 931 739 933 734 c 1,53,54
 937 712 937 712 919 685 c 128,-1,55
 901 658 901 658 875.5 629.5 c 128,-1,56
 850 601 850 601 825.5 573.5 c 128,-1,57
 801 546 801 546 792 522 c 0,58,59
 741 397 741 397 704 272.5 c 128,-1,60
 667 148 667 148 650 14 c 1,61,62
 646 7 646 7 638.5 1 c 128,-1,63
 631 -5 631 -5 622 0 c 1,64,65
 620 27 620 27 627 75.5 c 128,-1,66
 634 124 634 124 645.5 180.5 c 128,-1,67
 657 237 657 237 670.5 296 c 128,-1,68
 684 355 684 355 695.5 404 c 128,-1,69
 707 453 707 453 714.5 485.5 c 128,-1,70
 722 518 722 518 721 522 c 1,71,72
 695 527 695 527 654 524 c 128,-1,73
 613 521 613 521 564 513 c 128,-1,74
 515 505 515 505 462 493.5 c 128,-1,75
 409 482 409 482 360 469.5 c 128,-1,76
 311 457 311 457 268.5 445 c 128,-1,77
 226 433 226 433 199 424 c 1,78,79
 177 377 177 377 163 320 c 128,-1,80
 149 263 149 263 135.5 205.5 c 128,-1,81
 122 148 122 148 104 94.5 c 128,-1,82
 86 41 86 41 57 0 c 1,83,84
 55 1 55 1 49.5 6.5 c 128,-1,85
 44 12 44 12 43 14 c 0,0,1
EndSplineSet
EndChar

StartChar: I
Encoding: 73 73 44
Width: 275
Flags: W
LayerCount: 2
Fore
SplineSet
14 42 m 0,0,1
 12 51 12 51 13.5 67 c 128,-1,2
 15 83 15 83 18.5 99 c 128,-1,3
 22 115 22 115 25 127 c 128,-1,4
 28 139 28 139 29 141 c 2,5,-1
 311 876 l 2,6,7
 317 891 317 891 322 893 c 128,-1,8
 327 895 327 895 331.5 888.5 c 128,-1,9
 336 882 336 882 339 869.5 c 128,-1,10
 342 857 342 857 343.5 842.5 c 128,-1,11
 345 828 345 828 344 814 c 128,-1,12
 343 800 343 800 339 791 c 0,13,14
 299 696 299 696 258.5 601 c 128,-1,15
 218 506 218 506 180.5 409 c 128,-1,16
 143 312 143 312 111 213.5 c 128,-1,17
 79 115 79 115 56 14 c 1,18,19
 47 8 47 8 39.5 9 c 128,-1,20
 32 10 32 10 27 15.5 c 128,-1,21
 22 21 22 21 18.5 28.5 c 128,-1,22
 15 36 15 36 14 42 c 0,0,1
EndSplineSet
EndChar

StartChar: J
Encoding: 74 74 45
Width: 777
Flags: W
LayerCount: 2
Fore
SplineSet
106 14 m 0,0,1
 93 20 93 20 76.5 38.5 c 128,-1,2
 60 57 60 57 45 81 c 128,-1,3
 30 105 30 105 18.5 131.5 c 128,-1,4
 7 158 7 158 3.5 181 c 128,-1,5
 0 204 0 204 7 220.5 c 128,-1,6
 14 237 14 237 36 240 c 1,7,8
 37 223 37 223 40 195.5 c 128,-1,9
 43 168 43 168 51.5 141.5 c 128,-1,10
 60 115 60 115 76.5 94.5 c 128,-1,11
 93 74 93 74 121 71 c 1,12,13
 182 67 182 67 230.5 85 c 128,-1,14
 279 103 279 103 317.5 137.5 c 128,-1,15
 356 172 356 172 385.5 219.5 c 128,-1,16
 415 267 415 267 438.5 321.5 c 128,-1,17
 462 376 462 376 480.5 434.5 c 128,-1,18
 499 493 499 493 514.5 549.5 c 128,-1,19
 530 606 530 606 544 657.5 c 128,-1,20
 558 709 558 709 573 749 c 1,21,22
 582 784 582 784 576 801 c 128,-1,23
 570 818 570 818 553.5 822.5 c 128,-1,24
 537 827 537 827 511.5 822 c 128,-1,25
 486 817 486 817 457 807 c 128,-1,26
 428 797 428 797 396.5 785.5 c 128,-1,27
 365 774 365 774 336.5 766 c 128,-1,28
 308 758 308 758 284.5 756 c 128,-1,29
 261 754 261 754 247 763 c 0,30,31
 221 780 221 780 229.5 797 c 128,-1,32
 238 814 238 814 271 829.5 c 128,-1,33
 304 845 304 845 355.5 859 c 128,-1,34
 407 873 407 873 466.5 885.5 c 128,-1,35
 526 898 526 898 588 908 c 128,-1,36
 650 918 650 918 704 926 c 128,-1,37
 758 934 758 934 798.5 939 c 128,-1,38
 839 944 839 944 855 946 c 0,39,40
 876 949 876 949 914 953.5 c 128,-1,41
 952 958 952 958 990 962.5 c 128,-1,42
 1028 967 1028 967 1058.5 970.5 c 128,-1,43
 1089 974 1089 974 1095 974 c 0,44,45
 1118 976 1118 976 1154 977 c 128,-1,46
 1190 978 1190 978 1224 978 c 128,-1,47
 1258 978 1258 978 1282.5 977 c 128,-1,48
 1307 976 1307 976 1307 974 c 2,49,-1
 1321 932 l 1,50,51
 1288 930 1288 930 1230 928.5 c 128,-1,52
 1172 927 1172 927 1103 923 c 128,-1,53
 1034 919 1034 919 961 912 c 128,-1,54
 888 905 888 905 824 893 c 128,-1,55
 760 881 760 881 711 863 c 128,-1,56
 662 845 662 845 643 819 c 1,57,58
 633 790 633 790 619 733.5 c 128,-1,59
 605 677 605 677 585 605 c 128,-1,60
 565 533 565 533 539.5 452.5 c 128,-1,61
 514 372 514 372 482 295.5 c 128,-1,62
 450 219 450 219 411 153.5 c 128,-1,63
 372 88 372 88 325.5 46.5 c 128,-1,64
 279 5 279 5 224.5 -6.5 c 128,-1,65
 170 -18 170 -18 106 14 c 0,0,1
EndSplineSet
EndChar

StartChar: K
Encoding: 75 75 46
Width: 994
Flags: W
LayerCount: 2
Fore
SplineSet
890 -115 m 0,0,1
 851 -52 851 -52 811.5 1 c 128,-1,2
 772 54 772 54 729.5 103.5 c 128,-1,3
 687 153 687 153 639.5 202.5 c 128,-1,4
 592 252 592 252 537 309 c 0,5,6
 458 391 458 391 406.5 431.5 c 128,-1,7
 355 472 355 472 320.5 477.5 c 128,-1,8
 286 483 286 483 263.5 458 c 128,-1,9
 241 433 241 433 220 383.5 c 128,-1,10
 199 334 199 334 175 264 c 128,-1,11
 151 194 151 194 114 111 c 0,12,13
 108 98 108 98 101 82 c 128,-1,14
 94 66 94 66 85.5 50.5 c 128,-1,15
 77 35 77 35 66.5 21 c 128,-1,16
 56 7 56 7 43 -2 c 0,17,18
 26 -13 26 -13 24 0 c 128,-1,19
 22 13 22 13 30 42.5 c 128,-1,20
 38 72 38 72 53.5 113.5 c 128,-1,21
 69 155 69 155 88 201 c 128,-1,22
 107 247 107 247 127.5 293 c 128,-1,23
 148 339 148 339 166 377.5 c 128,-1,24
 184 416 184 416 196.5 443 c 128,-1,25
 209 470 209 470 212 478 c 0,26,27
 242 549 242 549 273.5 608.5 c 128,-1,28
 305 668 305 668 336 725.5 c 128,-1,29
 367 783 367 783 395.5 843 c 128,-1,30
 424 903 424 903 450 975 c 1,31,32
 461 982 461 982 470 979.5 c 128,-1,33
 479 977 479 977 485 969 c 128,-1,34
 491 961 491 961 493.5 951 c 128,-1,35
 496 941 496 941 493 933 c 0,36,37
 485 917 485 917 469.5 885.5 c 128,-1,38
 454 854 454 854 437 819.5 c 128,-1,39
 420 785 420 785 405 753 c 128,-1,40
 390 721 390 721 382 705 c 0,41,42
 381 702 381 702 378 695 c 128,-1,43
 375 688 375 688 372.5 679.5 c 128,-1,44
 370 671 370 671 368 662.5 c 128,-1,45
 366 654 366 654 368 648 c 1,46,47
 403 640 403 640 457.5 653.5 c 128,-1,48
 512 667 512 667 575.5 693.5 c 128,-1,49
 639 720 639 720 707 754.5 c 128,-1,50
 775 789 775 789 836.5 823 c 128,-1,51
 898 857 898 857 949 886 c 128,-1,52
 1000 915 1000 915 1031 930 c 0,53,54
 1051 940 1051 940 1057.5 938.5 c 128,-1,55
 1064 937 1064 937 1061.5 928 c 128,-1,56
 1059 919 1059 919 1049.5 905 c 128,-1,57
 1040 891 1040 891 1027 876.5 c 128,-1,58
 1014 862 1014 862 1000 850 c 128,-1,59
 986 838 986 838 975 832 c 0,60,61
 963 825 963 825 937.5 812 c 128,-1,62
 912 799 912 799 885 785.5 c 128,-1,63
 858 772 858 772 835 761 c 128,-1,64
 812 750 812 750 805 747 c 0,65,66
 772 732 772 732 720.5 713.5 c 128,-1,67
 669 695 669 695 613 673.5 c 128,-1,68
 557 652 557 652 503 628 c 128,-1,69
 449 604 449 604 410 578 c 1,70,71
 410 578 410 578 404 573.5 c 128,-1,72
 398 569 398 569 392 562.5 c 128,-1,73
 386 556 386 556 382 548.5 c 128,-1,74
 378 541 378 541 382 535 c 1,75,76
 401 523 401 523 440 490 c 128,-1,77
 479 457 479 457 527.5 410.5 c 128,-1,78
 576 364 576 364 630.5 307.5 c 128,-1,79
 685 251 685 251 736 193.5 c 128,-1,80
 787 136 787 136 830 81 c 128,-1,81
 873 26 873 26 898.5 -18.5 c 128,-1,82
 924 -63 924 -63 927.5 -92.5 c 128,-1,83
 931 -122 931 -122 904 -129 c 1,84,85
 902 -128 902 -128 897 -122.5 c 128,-1,86
 892 -117 892 -117 890 -115 c 0,0,1
EndSplineSet
EndChar

StartChar: L
Encoding: 76 76 47
Width: 876
Flags: W
LayerCount: 2
Fore
SplineSet
36 14 m 0,0,1
 26 20 26 20 22.5 31 c 128,-1,2
 19 42 19 42 20 55 c 128,-1,3
 21 68 21 68 26 83 c 128,-1,4
 31 98 31 98 37 112 c 0,5,6
 52 145 52 145 78 183 c 1,7,8
 117 259 117 259 149 320 c 128,-1,9
 181 381 181 381 209 434.5 c 128,-1,10
 237 488 237 488 262 538 c 128,-1,11
 287 588 287 588 312.5 642.5 c 128,-1,12
 338 697 338 697 365.5 760 c 128,-1,13
 393 823 393 823 426 903 c 0,14,15
 429 908 429 908 435 917 c 128,-1,16
 441 926 441 926 448.5 931.5 c 128,-1,17
 456 937 456 937 465 935 c 128,-1,18
 474 933 474 933 483 917 c 1,19,20
 495 892 495 892 484.5 848 c 128,-1,21
 474 804 474 804 448 747.5 c 128,-1,22
 422 691 422 691 385 625.5 c 128,-1,23
 348 560 348 560 308.5 492.5 c 128,-1,24
 269 425 269 425 230 359 c 128,-1,25
 191 293 191 293 162 235 c 128,-1,26
 133 177 133 177 117 130.5 c 128,-1,27
 101 84 101 84 106 56 c 1,28,29
 195 48 195 48 285 58 c 128,-1,30
 375 68 375 68 465 82 c 128,-1,31
 555 96 555 96 645.5 107.5 c 128,-1,32
 736 119 736 119 826 113 c 1,33,34
 842 114 842 114 853.5 100.5 c 128,-1,35
 865 87 865 87 855 71 c 1,36,37
 852 71 852 71 844 71.5 c 128,-1,38
 836 72 836 72 827 72 c 128,-1,39
 818 72 818 72 810 71.5 c 128,-1,40
 802 71 802 71 799 71 c 0,41,42
 753 67 753 67 695 58.5 c 128,-1,43
 637 50 637 50 573 40 c 128,-1,44
 509 30 509 30 441.5 20 c 128,-1,45
 374 10 374 10 308 3.5 c 128,-1,46
 242 -3 242 -3 179.5 -4.5 c 128,-1,47
 117 -6 117 -6 63 0 c 0,48,49
 61 0 61 0 50.5 5.5 c 128,-1,50
 40 11 40 11 36 14 c 0,0,1
EndSplineSet
EndChar

StartChar: M
Encoding: 77 77 48
Width: 1267
Flags: W
LayerCount: 2
Fore
SplineSet
945 -84 m 0,0,1
 944 -83 944 -83 944 -77 c 128,-1,2
 944 -71 944 -71 945 -69 c 0,3,4
 946 -66 946 -66 950 -54 c 128,-1,5
 954 -42 954 -42 958.5 -27.5 c 128,-1,6
 963 -13 963 -13 967.5 -0.5 c 128,-1,7
 972 12 972 12 973 15 c 0,8,9
 997 92 997 92 1017 158 c 128,-1,10
 1037 224 1037 224 1055 284.5 c 128,-1,11
 1073 345 1073 345 1089 402.5 c 128,-1,12
 1105 460 1105 460 1121.5 521 c 128,-1,13
 1138 582 1138 582 1155 649 c 128,-1,14
 1172 716 1172 716 1192 795 c 0,15,16
 1193 799 1193 799 1193 809.5 c 128,-1,17
 1193 820 1193 820 1192 823 c 1,18,19
 1155 835 1155 835 1113.5 820 c 128,-1,20
 1072 805 1072 805 1028.5 771.5 c 128,-1,21
 985 738 985 738 940 690.5 c 128,-1,22
 895 643 895 643 852.5 591.5 c 128,-1,23
 810 540 810 540 770 489 c 128,-1,24
 730 438 730 438 696.5 396.5 c 128,-1,25
 663 355 663 355 636 328 c 128,-1,26
 609 301 609 301 592 297 c 0,27,28
 587 296 587 296 579.5 297 c 128,-1,29
 572 298 572 298 565 300.5 c 128,-1,30
 558 303 558 303 553.5 306 c 128,-1,31
 549 309 549 309 549 312 c 2,32,-1
 549 397 l 1,33,34
 552 411 552 411 559 441 c 128,-1,35
 566 471 566 471 574 508.5 c 128,-1,36
 582 546 582 546 591.5 587.5 c 128,-1,37
 601 629 601 629 609 666.5 c 128,-1,38
 617 704 617 704 624 733.5 c 128,-1,39
 631 763 631 763 634 778 c 0,40,41
 640 807 640 807 646 834 c 128,-1,42
 652 861 652 861 648 891 c 1,43,44
 618 901 618 901 584.5 882 c 128,-1,45
 551 863 551 863 516 823 c 128,-1,46
 481 783 481 783 445 726.5 c 128,-1,47
 409 670 409 670 373.5 604.5 c 128,-1,48
 338 539 338 539 303.5 469 c 128,-1,49
 269 399 269 399 237.5 332 c 128,-1,50
 206 265 206 265 177.5 206 c 128,-1,51
 149 147 149 147 125.5 103 c 128,-1,52
 102 59 102 59 84 35 c 128,-1,53
 66 11 66 11 55 15 c 0,54,55
 38 21 38 21 42.5 56.5 c 128,-1,56
 47 92 47 92 66.5 147.5 c 128,-1,57
 86 203 86 203 117.5 273.5 c 128,-1,58
 149 344 149 344 186 419.5 c 128,-1,59
 223 495 223 495 262 569.5 c 128,-1,60
 301 644 301 644 335.5 708 c 128,-1,61
 370 772 370 772 396.5 820.5 c 128,-1,62
 423 869 423 869 436 891 c 1,63,64
 462 882 462 882 482 885 c 128,-1,65
 502 888 502 888 519.5 898 c 128,-1,66
 537 908 537 908 554 922 c 128,-1,67
 571 936 571 936 592 948 c 0,68,69
 637 975 637 975 663 971.5 c 128,-1,70
 689 968 689 968 701 943.5 c 128,-1,71
 713 919 713 919 713.5 878.5 c 128,-1,72
 714 838 714 838 707.5 791 c 128,-1,73
 701 744 701 744 690.5 694.5 c 128,-1,74
 680 645 680 645 670 603.5 c 128,-1,75
 660 562 660 562 653.5 532.5 c 128,-1,76
 647 503 647 503 648 495 c 1,77,78
 658 490 658 490 664.5 496.5 c 128,-1,79
 671 503 671 503 676 509 c 0,80,81
 680 515 680 515 694.5 532.5 c 128,-1,82
 709 550 709 550 727.5 573 c 128,-1,83
 746 596 746 596 767.5 622.5 c 128,-1,84
 789 649 789 649 808 672 c 128,-1,85
 827 695 827 695 841 712.5 c 128,-1,86
 855 730 855 730 860 736 c 1,87,88
 969 822 969 822 1044 863.5 c 128,-1,89
 1119 905 1119 905 1166 910 c 128,-1,90
 1213 915 1213 915 1234.5 888 c 128,-1,91
 1256 861 1256 861 1257.5 810 c 128,-1,92
 1259 759 1259 759 1243 689 c 128,-1,93
 1227 619 1227 619 1199 538 c 0,94,95
 1195 527 1195 527 1184 491 c 128,-1,96
 1173 455 1173 455 1158.5 407 c 128,-1,97
 1144 359 1144 359 1128 305 c 128,-1,98
 1112 251 1112 251 1097.5 203 c 128,-1,99
 1083 155 1083 155 1072 119 c 128,-1,100
 1061 83 1061 83 1058 72 c 0,101,102
 1058 71 1058 71 1055 56 c 128,-1,103
 1052 41 1052 41 1047 20.5 c 128,-1,104
 1042 0 1042 0 1033.5 -23.5 c 128,-1,105
 1025 -47 1025 -47 1014 -65.5 c 128,-1,106
 1003 -84 1003 -84 989 -94 c 128,-1,107
 975 -104 975 -104 958 -98 c 0,108,109
 956 -97 956 -97 951 -92 c 128,-1,110
 946 -87 946 -87 945 -84 c 0,0,1
EndSplineSet
EndChar

StartChar: N
Encoding: 78 78 49
Width: 1037
Flags: W
LayerCount: 2
Fore
SplineSet
14 29 m 0,0,1
 22 68 22 68 44 115 c 128,-1,2
 66 162 66 162 92 208.5 c 128,-1,3
 118 255 118 255 143.5 297 c 128,-1,4
 169 339 169 339 184 368 c 0,5,6
 191 383 191 383 207 413.5 c 128,-1,7
 223 444 223 444 242 483 c 128,-1,8
 261 522 261 522 282.5 565 c 128,-1,9
 304 608 304 608 324 647 c 128,-1,10
 344 686 344 686 359 717 c 128,-1,11
 374 748 374 748 382 763 c 1,12,13
 411 793 411 793 432.5 790 c 128,-1,14
 454 787 454 787 471.5 759.5 c 128,-1,15
 489 732 489 732 502.5 685.5 c 128,-1,16
 516 639 516 639 529 581.5 c 128,-1,17
 542 524 542 524 555 461 c 128,-1,18
 568 398 568 398 583.5 338.5 c 128,-1,19
 599 279 599 279 618.5 227 c 128,-1,20
 638 175 638 175 664 141 c 1,21,22
 680 133 680 133 703 157 c 128,-1,23
 726 181 726 181 753.5 226.5 c 128,-1,24
 781 272 781 272 811.5 334 c 128,-1,25
 842 396 842 396 872.5 463.5 c 128,-1,26
 903 531 903 531 932 599 c 128,-1,27
 961 667 961 667 985 725.5 c 128,-1,28
 1009 784 1009 784 1027.5 827.5 c 128,-1,29
 1046 871 1046 871 1056 889 c 0,30,31
 1065 905 1065 905 1074 904.5 c 128,-1,32
 1083 904 1083 904 1090 894.5 c 128,-1,33
 1097 885 1097 885 1100 870.5 c 128,-1,34
 1103 856 1103 856 1099 845 c 0,35,36
 1059 736 1059 736 1024 649 c 128,-1,37
 989 562 989 562 952 480.5 c 128,-1,38
 915 399 915 399 873 314.5 c 128,-1,39
 831 230 831 230 777 127 c 1,40,41
 757 103 757 103 738 88.5 c 128,-1,42
 719 74 719 74 700 72.5 c 128,-1,43
 681 71 681 71 661.5 84 c 128,-1,44
 642 97 642 97 622 127 c 1,45,46
 581 200 581 200 557 264.5 c 128,-1,47
 533 329 533 329 516.5 392.5 c 128,-1,48
 500 456 500 456 486.5 522 c 128,-1,49
 473 588 473 588 453 664 c 1,50,51
 445 669 445 669 427.5 651 c 128,-1,52
 410 633 410 633 387 599 c 128,-1,53
 364 565 364 565 337 519 c 128,-1,54
 310 473 310 473 282.5 422 c 128,-1,55
 255 371 255 371 228 320 c 128,-1,56
 201 269 201 269 178.5 224.5 c 128,-1,57
 156 180 156 180 139 147 c 128,-1,58
 122 114 122 114 114 99 c 0,59,60
 108 88 108 88 98 71 c 128,-1,61
 88 54 88 54 79 38.5 c 128,-1,62
 70 23 70 23 63 11.5 c 128,-1,63
 56 0 56 0 56 0 c 1,64,-1
 14 0 l 1,65,66
 13 3 13 3 13 14 c 128,-1,67
 13 25 13 25 14 29 c 0,0,1
EndSplineSet
EndChar

StartChar: O
Encoding: 79 79 50
Width: 659
Flags: W
LayerCount: 2
Fore
SplineSet
121 14 m 0,0,1
 79 32 79 32 57 59 c 128,-1,2
 35 86 35 86 27.5 119 c 128,-1,3
 20 152 20 152 24.5 188.5 c 128,-1,4
 29 225 29 225 41.5 261.5 c 128,-1,5
 54 298 54 298 71 332 c 128,-1,6
 88 366 88 366 106 395 c 0,7,8
 112 405 112 405 125 425 c 128,-1,9
 138 445 138 445 154.5 470 c 128,-1,10
 171 495 171 495 189.5 522.5 c 128,-1,11
 208 550 208 550 225 575 c 128,-1,12
 242 600 242 600 255 620 c 128,-1,13
 268 640 268 640 275 649 c 1,14,15
 287 726 287 726 318.5 777.5 c 128,-1,16
 350 829 350 829 392.5 857.5 c 128,-1,17
 435 886 435 886 483.5 892 c 128,-1,18
 532 898 532 898 577 883.5 c 128,-1,19
 622 869 622 869 659 835.5 c 128,-1,20
 696 802 696 802 715.5 751 c 128,-1,21
 735 700 735 700 732 632 c 128,-1,22
 729 564 729 564 694.5 481.5 c 128,-1,23
 660 399 660 399 589.5 303 c 128,-1,24
 519 207 519 207 402 99 c 0,25,26
 377 75 377 75 343 53.5 c 128,-1,27
 309 32 309 32 271 18 c 128,-1,28
 233 4 233 4 194 1.5 c 128,-1,29
 155 -1 155 -1 121 14 c 0,0,1
78 113 m 0,30,31
 91 56 91 56 125.5 42.5 c 128,-1,32
 160 29 160 29 207.5 47.5 c 128,-1,33
 255 66 255 66 311.5 111.5 c 128,-1,34
 368 157 368 157 424 217.5 c 128,-1,35
 480 278 480 278 531.5 349 c 128,-1,36
 583 420 583 420 620.5 490 c 128,-1,37
 658 560 658 560 678 624 c 128,-1,38
 698 688 698 688 691.5 734.5 c 128,-1,39
 685 781 685 781 646.5 805 c 128,-1,40
 608 829 608 829 530 819 c 1,41,42
 502 794 502 794 454.5 746 c 128,-1,43
 407 698 407 698 353 636.5 c 128,-1,44
 299 575 299 575 245 504.5 c 128,-1,45
 191 434 191 434 150 364 c 128,-1,46
 109 294 109 294 88 229 c 128,-1,47
 67 164 67 164 78 113 c 0,30,31
EndSplineSet
EndChar

StartChar: P
Encoding: 80 80 51
Width: 760
Flags: W
LayerCount: 2
Fore
SplineSet
29 29 m 0,0,1
 18 50 18 50 27.5 84.5 c 128,-1,2
 37 119 37 119 53.5 156.5 c 128,-1,3
 70 194 70 194 89 229 c 128,-1,4
 108 264 108 264 117 286 c 1,5,6
 121 293 121 293 122.5 298.5 c 128,-1,7
 124 304 124 304 126 310 c 128,-1,8
 128 316 128 316 131 324 c 128,-1,9
 134 332 134 332 140 345 c 0,10,11
 148 361 148 361 164.5 395.5 c 128,-1,12
 181 430 181 430 202 473 c 128,-1,13
 223 516 223 516 246 563.5 c 128,-1,14
 269 611 269 611 290 654.5 c 128,-1,15
 311 698 311 698 327.5 732 c 128,-1,16
 344 766 344 766 352 783 c 1,17,-1
 352 811 l 1,18,19
 330 815 330 815 309 809 c 128,-1,20
 288 803 288 803 268.5 791.5 c 128,-1,21
 249 780 249 780 231 765.5 c 128,-1,22
 213 751 213 751 197 740 c 1,23,24
 180 744 180 744 177.5 756 c 128,-1,25
 175 768 175 768 180 782 c 128,-1,26
 185 796 185 796 194.5 808 c 128,-1,27
 204 820 204 820 211 825 c 0,28,29
 342 906 342 906 490.5 933.5 c 128,-1,30
 639 961 639 961 791 938 c 1,31,32
 883 891 883 891 917 839 c 128,-1,33
 951 787 951 787 941.5 733.5 c 128,-1,34
 932 680 932 680 886.5 627.5 c 128,-1,35
 841 575 841 575 774 527 c 128,-1,36
 707 479 707 479 626.5 438 c 128,-1,37
 546 397 546 397 466.5 366.5 c 128,-1,38
 387 336 387 336 316 319.5 c 128,-1,39
 245 303 245 303 197 303 c 1,40,41
 173 265 173 265 158.5 240.5 c 128,-1,42
 144 216 144 216 135 198 c 128,-1,43
 126 180 126 180 120.5 164.5 c 128,-1,44
 115 149 115 149 109 129.5 c 128,-1,45
 103 110 103 110 94.5 82.5 c 128,-1,46
 86 55 86 55 71 14 c 1,47,-1
 57 0 l 1,48,49
 52 2 52 2 41.5 13 c 128,-1,50
 31 24 31 24 29 29 c 0,0,1
240 374 m 1,51,52
 293 365 293 365 352 377 c 128,-1,53
 411 389 411 389 469 411.5 c 128,-1,54
 527 434 527 434 580.5 462 c 128,-1,55
 634 490 634 490 677 514 c 0,56,57
 782 573 782 573 834 628.5 c 128,-1,58
 886 684 886 684 897.5 732 c 128,-1,59
 909 780 909 780 887 817.5 c 128,-1,60
 865 855 865 855 822 878 c 128,-1,61
 779 901 779 901 722 907 c 128,-1,62
 665 913 665 913 607 898 c 128,-1,63
 549 883 549 883 496 844.5 c 128,-1,64
 443 806 443 806 409 740 c 0,65,66
 396 715 396 715 378.5 681 c 128,-1,67
 361 647 361 647 342.5 609.5 c 128,-1,68
 324 572 324 572 305.5 535 c 128,-1,69
 287 498 287 498 272.5 468.5 c 128,-1,70
 258 439 258 439 249 420.5 c 128,-1,71
 240 402 240 402 240 401 c 2,72,-1
 240 374 l 1,51,52
EndSplineSet
EndChar

StartChar: Q
Encoding: 81 81 52
Width: 741
Flags: W
LayerCount: 2
Fore
SplineSet
560 -205 m 0,0,1
 544 -184 544 -184 532.5 -150.5 c 128,-1,2
 521 -117 521 -117 509.5 -82.5 c 128,-1,3
 498 -48 498 -48 483.5 -19.5 c 128,-1,4
 469 9 469 9 447 20 c 0,5,6
 439 24 439 24 420 17.5 c 128,-1,7
 401 11 401 11 374.5 1.5 c 128,-1,8
 348 -8 348 -8 316 -16 c 128,-1,9
 284 -24 284 -24 250.5 -22 c 128,-1,10
 217 -20 217 -20 184 -4.5 c 128,-1,11
 151 11 151 11 123 49 c 0,12,13
 85 99 85 99 84 164 c 128,-1,14
 83 229 83 229 106 299 c 128,-1,15
 129 369 129 369 170 440.5 c 128,-1,16
 211 512 211 512 256.5 577 c 128,-1,17
 302 642 302 642 346 695.5 c 128,-1,18
 390 749 390 749 419 783 c 0,19,20
 438 806 438 806 461.5 836 c 128,-1,21
 485 866 485 866 512 894.5 c 128,-1,22
 539 923 539 923 568.5 946.5 c 128,-1,23
 598 970 598 970 631 981 c 0,24,25
 641 984 641 984 650 977 c 128,-1,26
 659 970 659 970 666.5 959.5 c 128,-1,27
 674 949 674 949 679 938.5 c 128,-1,28
 684 928 684 928 687 925 c 0,29,30
 744 857 744 857 767 776.5 c 128,-1,31
 790 696 790 696 785 612 c 128,-1,32
 780 528 780 528 750.5 445 c 128,-1,33
 721 362 721 362 674 290 c 0,34,35
 671 285 671 285 661 272 c 128,-1,36
 651 259 651 259 638 241.5 c 128,-1,37
 625 224 625 224 610 204.5 c 128,-1,38
 595 185 595 185 582 167.5 c 128,-1,39
 569 150 569 150 559 137 c 128,-1,40
 549 124 549 124 546 120 c 0,41,42
 525 90 525 90 522 60 c 128,-1,43
 519 30 519 30 526.5 0.5 c 128,-1,44
 534 -29 534 -29 548 -57.5 c 128,-1,45
 562 -86 562 -86 573.5 -113.5 c 128,-1,46
 585 -141 585 -141 591 -167.5 c 128,-1,47
 597 -194 597 -194 589 -219 c 1,48,49
 578 -224 578 -224 571.5 -217.5 c 128,-1,50
 565 -211 565 -211 560 -205 c 0,0,1
194 35 m 0,51,52
 247 0 247 0 288 4 c 128,-1,53
 329 8 329 8 360 37 c 128,-1,54
 391 66 391 66 412.5 112.5 c 128,-1,55
 434 159 434 159 447.5 208.5 c 128,-1,56
 461 258 461 258 467.5 303 c 128,-1,57
 474 348 474 348 475 374 c 1,58,59
 477 375 477 375 485 375.5 c 128,-1,60
 493 376 493 376 502 374.5 c 128,-1,61
 511 373 511 373 518 370 c 128,-1,62
 525 367 525 367 525 360 c 2,63,-1
 525 219 l 1,64,65
 568 250 568 250 604 296.5 c 128,-1,66
 640 343 640 343 667 396 c 128,-1,67
 694 449 694 449 710.5 505.5 c 128,-1,68
 727 562 727 562 730 614 c 0,69,70
 736 720 736 720 722.5 779 c 128,-1,71
 709 838 709 838 682 859 c 128,-1,72
 655 880 655 880 616.5 867 c 128,-1,73
 578 854 578 854 534 816.5 c 128,-1,74
 490 779 490 779 443 722.5 c 128,-1,75
 396 666 396 666 351.5 598.5 c 128,-1,76
 307 531 307 531 268.5 457.5 c 128,-1,77
 230 384 230 384 202 314.5 c 128,-1,78
 174 245 174 245 160 183.5 c 128,-1,79
 146 122 146 122 151 78 c 1,80,81
 153 75 153 75 158.5 68.5 c 128,-1,82
 164 62 164 62 171 55.5 c 128,-1,83
 178 49 178 49 184.5 43 c 128,-1,84
 191 37 191 37 194 35 c 0,51,52
EndSplineSet
EndChar

StartChar: R
Encoding: 82 82 53
Width: 859
Flags: W
LayerCount: 2
Fore
SplineSet
22 14 m 0,0,1
 15 35 15 35 25.5 75.5 c 128,-1,2
 36 116 36 116 58.5 168 c 128,-1,3
 81 220 81 220 111.5 280 c 128,-1,4
 142 340 142 340 174.5 400 c 128,-1,5
 207 460 207 460 238.5 517.5 c 128,-1,6
 270 575 270 575 293.5 621.5 c 128,-1,7
 317 668 317 668 330.5 699.5 c 128,-1,8
 344 731 344 731 340 741 c 1,9,10
 325 746 325 746 308 737.5 c 128,-1,11
 291 729 291 729 274 720.5 c 128,-1,12
 257 712 257 712 241 710 c 128,-1,13
 225 708 225 708 213 727 c 0,14,15
 207 736 207 736 209 744.5 c 128,-1,16
 211 753 211 753 216 760.5 c 128,-1,17
 221 768 221 768 228 774 c 128,-1,18
 235 780 235 780 240 783 c 0,19,20
 383 876 383 876 511 928.5 c 128,-1,21
 639 981 639 981 740.5 1000 c 128,-1,22
 842 1019 842 1019 911.5 1008 c 128,-1,23
 981 997 981 997 1007.5 962.5 c 128,-1,24
 1034 928 1034 928 1011 873.5 c 128,-1,25
 988 819 988 819 904.5 751.5 c 128,-1,26
 821 684 821 684 670.5 607 c 128,-1,27
 520 530 520 530 292 450 c 1,28,29
 280 430 280 430 299 404.5 c 128,-1,30
 318 379 318 379 356.5 350.5 c 128,-1,31
 395 322 395 322 446.5 290.5 c 128,-1,32
 498 259 498 259 551 227 c 128,-1,33
 604 195 604 195 652.5 164.5 c 128,-1,34
 701 134 701 134 732.5 106 c 128,-1,35
 764 78 764 78 773 54.5 c 128,-1,36
 782 31 782 31 756 14 c 0,37,38
 755 13 755 13 740.5 23.5 c 128,-1,39
 726 34 726 34 705 51 c 128,-1,40
 684 68 684 68 659.5 87.5 c 128,-1,41
 635 107 635 107 613.5 125 c 128,-1,42
 592 143 592 143 576.5 155.5 c 128,-1,43
 561 168 561 168 558 170 c 0,44,45
 483 218 483 218 407.5 264 c 128,-1,46
 332 310 332 310 261 368 c 1,47,48
 244 374 244 374 226 356 c 128,-1,49
 208 338 208 338 190.5 306.5 c 128,-1,50
 173 275 173 275 156 234 c 128,-1,51
 139 193 139 193 123 152 c 128,-1,52
 107 111 107 111 92.5 75 c 128,-1,53
 78 39 78 39 65 17 c 128,-1,54
 52 -5 52 -5 41 -8 c 128,-1,55
 30 -11 30 -11 22 14 c 0,0,1
320 535 m 1,56,57
 347 526 347 526 394 536.5 c 128,-1,58
 441 547 441 547 498 570.5 c 128,-1,59
 555 594 555 594 616.5 627.5 c 128,-1,60
 678 661 678 661 734.5 698 c 128,-1,61
 791 735 791 735 838 772.5 c 128,-1,62
 885 810 885 810 911.5 842 c 128,-1,63
 938 874 938 874 940 896 c 128,-1,64
 942 918 942 918 909 925 c 1,65,66
 774 927 774 927 679 911.5 c 128,-1,67
 584 896 584 896 516 853.5 c 128,-1,68
 448 811 448 811 402 737.5 c 128,-1,69
 356 664 356 664 320 550 c 1,70,-1
 320 535 l 1,56,57
EndSplineSet
EndChar

StartChar: S
Encoding: 83 83 54
Width: 768
Flags: W
LayerCount: 2
Fore
SplineSet
114 14 m 0,0,1
 108 16 108 16 85 27.5 c 128,-1,2
 62 39 62 39 41.5 54 c 128,-1,3
 21 69 21 69 13 85 c 128,-1,4
 5 101 5 101 29 113 c 1,5,6
 43 100 43 100 67 82.5 c 128,-1,7
 91 65 91 65 114 56 c 1,8,9
 182 53 182 53 247.5 55.5 c 128,-1,10
 313 58 313 58 374.5 71.5 c 128,-1,11
 436 85 436 85 494.5 112 c 128,-1,12
 553 139 553 139 607 183 c 0,13,14
 669 234 669 234 688 277 c 128,-1,15
 707 320 707 320 695 357 c 128,-1,16
 683 394 683 394 646 426 c 128,-1,17
 609 458 609 458 559 486 c 128,-1,18
 509 514 509 514 451.5 538.5 c 128,-1,19
 394 563 394 563 341 586.5 c 128,-1,20
 288 610 288 610 246 632.5 c 128,-1,21
 204 655 204 655 184 678 c 1,22,23
 179 699 179 699 205 727.5 c 128,-1,24
 231 756 231 756 277 787 c 128,-1,25
 323 818 323 818 383.5 848 c 128,-1,26
 444 878 444 878 507 903.5 c 128,-1,27
 570 929 570 929 629.5 946 c 128,-1,28
 689 963 689 963 733.5 967.5 c 128,-1,29
 778 972 778 972 802.5 961 c 128,-1,30
 827 950 827 950 819 919 c 1,31,32
 810 917 810 917 773.5 907.5 c 128,-1,33
 737 898 737 898 685.5 882.5 c 128,-1,34
 634 867 634 867 573 847 c 128,-1,35
 512 827 512 827 453.5 805 c 128,-1,36
 395 783 395 783 345.5 760.5 c 128,-1,37
 296 738 296 738 266.5 717.5 c 128,-1,38
 237 697 237 697 234.5 679 c 128,-1,39
 232 661 232 661 268 649 c 1,40,41
 414 605 414 605 509.5 556.5 c 128,-1,42
 605 508 605 508 658 457.5 c 128,-1,43
 711 407 711 407 727 356.5 c 128,-1,44
 743 306 743 306 730 259 c 128,-1,45
 717 212 717 212 680 169.5 c 128,-1,46
 643 127 643 127 591 92.5 c 128,-1,47
 539 58 539 58 476.5 33.5 c 128,-1,48
 414 9 414 9 350 -2.5 c 128,-1,49
 286 -14 286 -14 224.5 -10.5 c 128,-1,50
 163 -7 163 -7 114 14 c 0,0,1
EndSplineSet
EndChar

StartChar: T
Encoding: 84 84 55
Width: 697
Flags: W
LayerCount: 2
Fore
SplineSet
219 14 m 0,0,1
 211 45 211 45 219.5 85.5 c 128,-1,2
 228 126 228 126 243 167.5 c 128,-1,3
 258 209 258 209 275.5 247 c 128,-1,4
 293 285 293 285 304 310 c 0,5,6
 310 324 310 324 323.5 353 c 128,-1,7
 337 382 337 382 353.5 418.5 c 128,-1,8
 370 455 370 455 388 495 c 128,-1,9
 406 535 406 535 423 571 c 128,-1,10
 440 607 440 607 453 635.5 c 128,-1,11
 466 664 466 664 473 678 c 1,12,13
 452 682 452 682 412.5 674 c 128,-1,14
 373 666 373 666 325.5 654.5 c 128,-1,15
 278 643 278 643 227.5 630.5 c 128,-1,16
 177 618 177 618 134.5 612 c 128,-1,17
 92 606 92 606 61 610 c 128,-1,18
 30 614 30 614 22 636 c 1,19,20
 30 653 30 653 85.5 674 c 128,-1,21
 141 695 141 695 226.5 718 c 128,-1,22
 312 741 312 741 418 764.5 c 128,-1,23
 524 788 524 788 634 809.5 c 128,-1,24
 744 831 744 831 848.5 848.5 c 128,-1,25
 953 866 953 866 1035.5 877.5 c 128,-1,26
 1118 889 1118 889 1169 893 c 128,-1,27
 1220 897 1220 897 1222 890 c 0,28,29
 1226 879 1226 879 1224 865.5 c 128,-1,30
 1222 852 1222 852 1208 848 c 1,31,32
 1146 838 1146 838 1075 826 c 128,-1,33
 1004 814 1004 814 931 801 c 128,-1,34
 858 788 858 788 787.5 774.5 c 128,-1,35
 717 761 717 761 657 749 c 0,36,37
 619 741 619 741 582.5 703.5 c 128,-1,38
 546 666 546 666 512 610.5 c 128,-1,39
 478 555 478 555 447 486.5 c 128,-1,40
 416 418 416 418 388.5 348.5 c 128,-1,41
 361 279 361 279 337 214 c 128,-1,42
 313 149 313 149 293 99.5 c 128,-1,43
 273 50 273 50 258 22.5 c 128,-1,44
 243 -5 243 -5 233 0 c 0,45,46
 230 2 230 2 225 7 c 128,-1,47
 220 12 220 12 219 14 c 0,0,1
EndSplineSet
EndChar

StartChar: U
Encoding: 85 85 56
Width: 760
Flags: W
LayerCount: 2
Fore
SplineSet
114 14 m 0,0,1
 68 50 68 50 52 108 c 128,-1,2
 36 166 36 166 41 235.5 c 128,-1,3
 46 305 46 305 67 382 c 128,-1,4
 88 459 88 459 117.5 533.5 c 128,-1,5
 147 608 147 608 180 675.5 c 128,-1,6
 213 743 213 743 241.5 794 c 128,-1,7
 270 845 270 845 289.5 875 c 128,-1,8
 309 905 309 905 311 904 c 0,9,10
 321 899 321 899 325 890.5 c 128,-1,11
 329 882 329 882 329.5 872.5 c 128,-1,12
 330 863 330 863 328.5 852.5 c 128,-1,13
 327 842 327 842 326 834 c 0,14,15
 326 832 326 832 323.5 828 c 128,-1,16
 321 824 321 824 318.5 819 c 128,-1,17
 316 814 316 814 313.5 810 c 128,-1,18
 311 806 311 806 311 805 c 0,19,20
 214 592 214 592 165 447.5 c 128,-1,21
 116 303 116 303 105 216.5 c 128,-1,22
 94 130 94 130 115.5 95.5 c 128,-1,23
 137 61 137 61 181.5 68 c 128,-1,24
 226 75 226 75 288 117 c 128,-1,25
 350 159 350 159 419 225.5 c 128,-1,26
 488 292 488 292 560 376.5 c 128,-1,27
 632 461 632 461 696 553.5 c 128,-1,28
 760 646 760 646 811 740 c 128,-1,29
 862 834 862 834 890 919 c 1,30,31
 892 921 892 921 897 926.5 c 128,-1,32
 902 932 902 932 904 932 c 1,33,34
 932 913 932 913 931.5 872.5 c 128,-1,35
 931 832 931 832 909 776.5 c 128,-1,36
 887 721 887 721 846 655 c 128,-1,37
 805 589 805 589 752.5 519 c 128,-1,38
 700 449 700 449 638.5 379 c 128,-1,39
 577 309 577 309 514 246.5 c 128,-1,40
 451 184 451 184 389.5 133 c 128,-1,41
 328 82 328 82 274.5 49 c 128,-1,42
 221 16 221 16 179.5 5.5 c 128,-1,43
 138 -5 138 -5 114 14 c 0,0,1
EndSplineSet
EndChar

StartChar: V
Encoding: 86 86 57
Width: 700
Flags: W
LayerCount: 2
Fore
SplineSet
99 42 m 0,0,1
 76 76 76 76 60.5 140.5 c 128,-1,2
 45 205 45 205 38 282.5 c 128,-1,3
 31 360 31 360 33 443.5 c 128,-1,4
 35 527 35 527 47 600 c 128,-1,5
 59 673 59 673 82.5 728.5 c 128,-1,6
 106 784 106 784 141 805 c 1,7,8
 147 801 147 801 146 773.5 c 128,-1,9
 145 746 145 746 139.5 703 c 128,-1,10
 134 660 134 660 126 605.5 c 128,-1,11
 118 551 118 551 110 491.5 c 128,-1,12
 102 432 102 432 95.5 372 c 128,-1,13
 89 312 89 312 87 259.5 c 128,-1,14
 85 207 85 207 88.5 164.5 c 128,-1,15
 92 122 92 122 104.5 98.5 c 128,-1,16
 117 75 117 75 140 73 c 128,-1,17
 163 71 163 71 199 99 c 0,18,19
 250 139 250 139 300 184.5 c 128,-1,20
 350 230 350 230 398 278 c 128,-1,21
 446 326 446 326 492 373.5 c 128,-1,22
 538 421 538 421 580 466 c 0,23,24
 683 575 683 575 777 687 c 128,-1,25
 871 799 871 799 961 919 c 0,26,27
 973 935 973 935 984.5 936 c 128,-1,28
 996 937 996 937 1004.5 928.5 c 128,-1,29
 1013 920 1013 920 1017 905.5 c 128,-1,30
 1021 891 1021 891 1018 876 c 1,31,32
 1009 866 1009 866 990 845.5 c 128,-1,33
 971 825 971 825 947 798.5 c 128,-1,34
 923 772 923 772 897 742.5 c 128,-1,35
 871 713 871 713 847.5 686.5 c 128,-1,36
 824 660 824 660 805 638.5 c 128,-1,37
 786 617 786 617 777 607 c 0,38,39
 755 582 755 582 719 537.5 c 128,-1,40
 683 493 683 493 637.5 439 c 128,-1,41
 592 385 592 385 540.5 325.5 c 128,-1,42
 489 266 489 266 436.5 211.5 c 128,-1,43
 384 157 384 157 332.5 112 c 128,-1,44
 281 67 281 67 236 41 c 128,-1,45
 191 15 191 15 155.5 12.5 c 128,-1,46
 120 10 120 10 99 42 c 0,0,1
EndSplineSet
EndChar

StartChar: W
Encoding: 87 87 58
Width: 877
Flags: W
LayerCount: 2
Fore
SplineSet
57 14 m 0,0,1
 41 38 41 38 32.5 92.5 c 128,-1,2
 24 147 24 147 22 220 c 128,-1,3
 20 293 20 293 24 377.5 c 128,-1,4
 28 462 28 462 36 546 c 128,-1,5
 44 630 44 630 55.5 707.5 c 128,-1,6
 67 785 67 785 80.5 843 c 128,-1,7
 94 901 94 901 109.5 933.5 c 128,-1,8
 125 966 125 966 141 961 c 1,9,10
 144 959 144 959 149.5 954 c 128,-1,11
 155 949 155 949 156 946 c 0,12,13
 157 932 157 932 153.5 894 c 128,-1,14
 150 856 150 856 143.5 803 c 128,-1,15
 137 750 137 750 128 686 c 128,-1,16
 119 622 119 622 110.5 557 c 128,-1,17
 102 492 102 492 94.5 430 c 128,-1,18
 87 368 87 368 83 318.5 c 128,-1,19
 79 269 79 269 79 236.5 c 128,-1,20
 79 204 79 204 85 198 c 2,21,-1
 99 183 l 1,22,23
 118 191 118 191 138 228 c 128,-1,24
 158 265 158 265 179 318.5 c 128,-1,25
 200 372 200 372 221.5 435.5 c 128,-1,26
 243 499 243 499 264.5 561 c 128,-1,27
 286 623 286 623 307.5 678 c 128,-1,28
 329 733 329 733 350 768 c 128,-1,29
 371 803 371 803 391 812.5 c 128,-1,30
 411 822 411 822 429.5 793.5 c 128,-1,31
 448 765 448 765 464.5 693.5 c 128,-1,32
 481 622 481 622 495 495 c 0,33,34
 496 490 496 490 499 470 c 128,-1,35
 502 450 502 450 508 421 c 128,-1,36
 514 392 514 392 521.5 358 c 128,-1,37
 529 324 529 324 538.5 292.5 c 128,-1,38
 548 261 548 261 558 234.5 c 128,-1,39
 568 208 568 208 579 194.5 c 128,-1,40
 590 181 590 181 600.5 183.5 c 128,-1,41
 611 186 611 186 622 212 c 0,42,43
 626 222 626 222 639 255 c 128,-1,44
 652 288 652 288 669.5 331.5 c 128,-1,45
 687 375 687 375 706.5 424 c 128,-1,46
 726 473 726 473 743.5 516.5 c 128,-1,47
 761 560 761 560 774 592.5 c 128,-1,48
 787 625 787 625 792 636 c 0,49,50
 797 648 797 648 808.5 680.5 c 128,-1,51
 820 713 820 713 837 754 c 128,-1,52
 854 795 854 795 875 839 c 128,-1,53
 896 883 896 883 920 917 c 128,-1,54
 944 951 944 951 969.5 970 c 128,-1,55
 995 989 995 989 1021 980 c 0,56,57
 1023 980 1023 980 1028.5 974.5 c 128,-1,58
 1034 969 1034 969 1034 966 c 1,59,60
 957 867 957 867 906.5 766.5 c 128,-1,61
 856 666 856 666 817.5 562 c 128,-1,62
 779 458 779 458 744.5 350 c 128,-1,63
 710 242 710 242 665 127 c 0,64,65
 646 78 646 78 625.5 71 c 128,-1,66
 605 64 605 64 585 85.5 c 128,-1,67
 565 107 565 107 545.5 151 c 128,-1,68
 526 195 526 195 508.5 249.5 c 128,-1,69
 491 304 491 304 476 362 c 128,-1,70
 461 420 461 420 450 469 c 128,-1,71
 439 518 439 518 432 552 c 128,-1,72
 425 586 425 586 424 593 c 0,73,74
 422 602 422 602 419.5 616.5 c 128,-1,75
 417 631 417 631 415 645 c 0,76,77
 412 661 412 661 410 678 c 1,78,-1
 396 678 l 2,79,80
 395 678 395 678 388.5 666 c 128,-1,81
 382 654 382 654 372 634.5 c 128,-1,82
 362 615 362 615 350 590.5 c 128,-1,83
 338 566 338 566 325.5 541 c 128,-1,84
 313 516 313 516 302 492.5 c 128,-1,85
 291 469 291 469 283 452 c 0,86,87
 279 442 279 442 270 413.5 c 128,-1,88
 261 385 261 385 249 345.5 c 128,-1,89
 237 306 237 306 222 260 c 128,-1,90
 207 214 207 214 190.5 170 c 128,-1,91
 174 126 174 126 156.5 88 c 128,-1,92
 139 50 139 50 122 26 c 128,-1,93
 105 2 105 2 88.5 -3 c 128,-1,94
 72 -8 72 -8 57 14 c 0,0,1
EndSplineSet
EndChar

StartChar: X
Encoding: 88 88 59
Width: 671
Flags: W
LayerCount: 2
Fore
SplineSet
580 42 m 0,0,1
 572 52 572 52 553.5 80 c 128,-1,2
 535 108 535 108 512.5 144 c 128,-1,3
 490 180 490 180 464.5 218.5 c 128,-1,4
 439 257 439 257 416.5 288.5 c 128,-1,5
 394 320 394 320 377 338.5 c 128,-1,6
 360 357 360 357 353 353 c 1,7,8
 275 280 275 280 213 203 c 128,-1,9
 151 126 151 126 85 42 c 0,10,11
 67 19 67 19 54 16.5 c 128,-1,12
 41 14 41 14 35 23.5 c 128,-1,13
 29 33 29 33 30.5 50.5 c 128,-1,14
 32 68 32 68 43 85 c 0,15,16
 58 110 58 110 86 142 c 128,-1,17
 114 174 114 174 146.5 209.5 c 128,-1,18
 179 245 179 245 211.5 282 c 128,-1,19
 244 319 244 319 268.5 354.5 c 128,-1,20
 293 390 293 390 305.5 422 c 128,-1,21
 318 454 318 454 311 480 c 1,22,23
 306 490 306 490 294.5 514 c 128,-1,24
 283 538 283 538 269.5 565 c 128,-1,25
 256 592 256 592 243.5 616 c 128,-1,26
 231 640 231 640 226 649 c 0,27,28
 224 653 224 653 215.5 667.5 c 128,-1,29
 207 682 207 682 197.5 698.5 c 128,-1,30
 188 715 188 715 179.5 730 c 128,-1,31
 171 745 171 745 170 749 c 1,32,33
 168 752 168 752 168 762.5 c 128,-1,34
 168 773 168 773 170 777 c 1,35,36
 183 787 183 787 200.5 769 c 128,-1,37
 218 751 218 751 237.5 719 c 128,-1,38
 257 687 257 687 277.5 648 c 128,-1,39
 298 609 298 609 317 576 c 128,-1,40
 336 543 336 543 353 522.5 c 128,-1,41
 370 502 370 502 382 509 c 1,42,43
 384 512 384 512 390 520 c 128,-1,44
 396 528 396 528 403 537 c 128,-1,45
 410 546 410 546 416 554 c 128,-1,46
 422 562 422 562 424 565 c 0,47,48
 432 577 432 577 448 607.5 c 128,-1,49
 464 638 464 638 486.5 669 c 128,-1,50
 509 700 509 700 536 721 c 128,-1,51
 563 742 563 742 594 734 c 0,52,53
 610 730 610 730 610 716.5 c 128,-1,54
 610 703 610 703 599 683.5 c 128,-1,55
 588 664 588 664 568.5 639.5 c 128,-1,56
 549 615 549 615 526.5 589 c 128,-1,57
 504 563 504 563 481.5 536 c 128,-1,58
 459 509 459 509 442 485.5 c 128,-1,59
 425 462 425 462 415.5 442 c 128,-1,60
 406 422 406 422 410 410 c 0,61,62
 418 390 418 390 439.5 355.5 c 128,-1,63
 461 321 461 321 488 280 c 128,-1,64
 515 239 515 239 543.5 195 c 128,-1,65
 572 151 572 151 594.5 112 c 128,-1,66
 617 73 617 73 629 43 c 128,-1,67
 641 13 641 13 636 0 c 1,68,69
 634 -1 634 -1 629 -1 c 128,-1,70
 624 -1 624 -1 622 0 c 256,71,72
 620 1 620 1 614 6.5 c 128,-1,73
 608 12 608 12 601.5 18.5 c 128,-1,74
 595 25 595 25 589 32 c 128,-1,75
 583 39 583 39 580 42 c 0,0,1
EndSplineSet
EndChar

StartChar: Y
Encoding: 89 89 60
Width: 502
Flags: W
LayerCount: 2
Fore
SplineSet
70 -160 m 0,0,1
 55 -123 55 -123 66 -81 c 128,-1,2
 77 -39 77 -39 102.5 6.5 c 128,-1,3
 128 52 128 52 161.5 101 c 128,-1,4
 195 150 195 150 225 201.5 c 128,-1,5
 255 253 255 253 275.5 307.5 c 128,-1,6
 296 362 296 362 295 419 c 1,7,8
 290 431 290 431 273 457.5 c 128,-1,9
 256 484 256 484 232 520 c 128,-1,10
 208 556 208 556 180 596.5 c 128,-1,11
 152 637 152 637 126.5 677 c 128,-1,12
 101 717 101 717 80.5 752 c 128,-1,13
 60 787 60 787 50 811 c 128,-1,14
 40 835 40 835 43.5 844.5 c 128,-1,15
 47 854 47 854 70 843 c 1,16,17
 88 827 88 827 113.5 791 c 128,-1,18
 139 755 139 755 167.5 710.5 c 128,-1,19
 196 666 196 666 225.5 619 c 128,-1,20
 255 572 255 572 280 535 c 128,-1,21
 305 498 305 498 324 476.5 c 128,-1,22
 343 455 343 455 351 461 c 1,23,24
 361 480 361 480 377 516 c 128,-1,25
 393 552 393 552 413 597 c 128,-1,26
 433 642 433 642 455.5 692 c 128,-1,27
 478 742 478 742 500.5 788 c 128,-1,28
 523 834 523 834 544.5 873 c 128,-1,29
 566 912 566 912 584 935 c 128,-1,30
 602 958 602 958 615 961.5 c 128,-1,31
 628 965 628 965 634 941 c 0,32,33
 638 923 638 923 622 876 c 128,-1,34
 606 829 606 829 576.5 763 c 128,-1,35
 547 697 547 697 506.5 616.5 c 128,-1,36
 466 536 466 536 421.5 450 c 128,-1,37
 377 364 377 364 332.5 277 c 128,-1,38
 288 190 288 190 249.5 110.5 c 128,-1,39
 211 31 211 31 182 -35 c 128,-1,40
 153 -101 153 -101 140 -146 c 0,41,42
 136 -159 136 -159 128 -170.5 c 128,-1,43
 120 -182 120 -182 109.5 -187 c 128,-1,44
 99 -192 99 -192 88.5 -186.5 c 128,-1,45
 78 -181 78 -181 70 -160 c 0,0,1
EndSplineSet
EndChar

StartChar: Z
Encoding: 90 90 61
Width: 1053
Flags: W
LayerCount: 2
Fore
SplineSet
36 14 m 0,0,1
 13 31 13 31 36.5 71 c 128,-1,2
 60 111 60 111 113 166.5 c 128,-1,3
 166 222 166 222 241.5 288.5 c 128,-1,4
 317 355 317 355 397.5 425 c 128,-1,5
 478 495 478 495 556 564.5 c 128,-1,6
 634 634 634 634 693 695 c 128,-1,7
 752 756 752 756 783.5 804.5 c 128,-1,8
 815 853 815 853 803 882 c 1,9,10
 801 882 801 882 774 877 c 128,-1,11
 747 872 747 872 706 865 c 128,-1,12
 665 858 665 858 614 850 c 128,-1,13
 563 842 563 842 513 836.5 c 128,-1,14
 463 831 463 831 418 828.5 c 128,-1,15
 373 826 373 826 344.5 830.5 c 128,-1,16
 316 835 316 835 307.5 847 c 128,-1,17
 299 859 299 859 322 882 c 1,18,19
 350 879 350 879 395.5 886.5 c 128,-1,20
 441 894 441 894 495.5 906.5 c 128,-1,21
 550 919 550 919 608.5 932.5 c 128,-1,22
 667 946 667 946 719.5 954.5 c 128,-1,23
 772 963 772 963 814 963.5 c 128,-1,24
 856 964 856 964 878 949 c 128,-1,25
 900 934 900 934 898 901 c 128,-1,26
 896 868 896 868 859 811 c 0,27,28
 794 709 794 709 716 629.5 c 128,-1,29
 638 550 638 550 553.5 479 c 128,-1,30
 469 408 469 408 380.5 338 c 128,-1,31
 292 268 292 268 205 183 c 0,32,33
 204 182 204 182 191.5 169 c 128,-1,34
 179 156 179 156 165 138 c 128,-1,35
 151 120 151 120 140.5 101.5 c 128,-1,36
 130 83 130 83 134 71 c 1,37,38
 148 67 148 67 197.5 77.5 c 128,-1,39
 247 88 247 88 318 105 c 128,-1,40
 389 122 389 122 474.5 143 c 128,-1,41
 560 164 560 164 644.5 182.5 c 128,-1,42
 729 201 729 201 806.5 213.5 c 128,-1,43
 884 226 884 226 938.5 226 c 128,-1,44
 993 226 993 226 1018 210 c 128,-1,45
 1043 194 1043 194 1024 156 c 1,46,47
 993 154 993 154 935.5 146 c 128,-1,48
 878 138 878 138 805 126 c 128,-1,49
 732 114 732 114 648.5 99.5 c 128,-1,50
 565 85 565 85 482 71 c 128,-1,51
 399 57 399 57 321.5 44 c 128,-1,52
 244 31 244 31 183 23 c 128,-1,53
 122 15 122 15 82.5 12 c 128,-1,54
 43 9 43 9 36 14 c 0,0,1
EndSplineSet
EndChar

StartChar: bracketleft
Encoding: 91 91 62
Width: 593
Flags: W
LayerCount: 2
Fore
SplineSet
56 -85 m 256,0,1
 54 -84 54 -84 48.5 -78 c 128,-1,2
 43 -72 43 -72 42 -70 c 0,3,4
 40 -55 40 -55 42.5 -7 c 128,-1,5
 45 41 45 41 50 108.5 c 128,-1,6
 55 176 55 176 63 258 c 128,-1,7
 71 340 71 340 82 423.5 c 128,-1,8
 93 507 93 507 106.5 586.5 c 128,-1,9
 120 666 120 666 135.5 729.5 c 128,-1,10
 151 793 151 793 169 834 c 128,-1,11
 187 875 187 875 206 881 c 0,12,13
 209 882 209 882 223.5 884 c 128,-1,14
 238 886 238 886 254.5 888 c 128,-1,15
 271 890 271 890 285.5 892 c 128,-1,16
 300 894 300 894 304 895 c 0,17,18
 312 897 312 897 329 902.5 c 128,-1,19
 346 908 346 908 367 914.5 c 128,-1,20
 388 921 388 921 411 929 c 128,-1,21
 434 937 434 937 454.5 944 c 128,-1,22
 475 951 475 951 491.5 957 c 128,-1,23
 508 963 508 963 516 966 c 1,24,25
 525 968 525 968 540 965 c 128,-1,26
 555 962 555 962 565 955.5 c 128,-1,27
 575 949 575 949 575.5 940.5 c 128,-1,28
 576 932 576 932 558 923 c 1,29,30
 463 896 463 896 400.5 872 c 128,-1,31
 338 848 338 848 298 818.5 c 128,-1,32
 258 789 258 789 235.5 750 c 128,-1,33
 213 711 213 711 198 654 c 128,-1,34
 183 597 183 597 171.5 516.5 c 128,-1,35
 160 436 160 436 141 325 c 1,36,37
 132 295 132 295 125.5 244.5 c 128,-1,38
 119 194 119 194 115 139.5 c 128,-1,39
 111 85 111 85 110.5 34 c 128,-1,40
 110 -17 110 -17 112 -49 c 1,41,-1
 537 -28 l 1,42,43
 549 -46 549 -46 535 -57.5 c 128,-1,44
 521 -69 521 -69 499.5 -75 c 128,-1,45
 478 -81 478 -81 458 -83 c 128,-1,46
 438 -85 438 -85 437 -85 c 0,47,48
 389 -92 389 -92 349.5 -96 c 128,-1,49
 310 -100 310 -100 272 -101.5 c 128,-1,50
 234 -103 234 -103 192.5 -102 c 128,-1,51
 151 -101 151 -101 98 -99 c 0,52,53
 96 -99 96 -99 90 -97 c 128,-1,54
 84 -95 84 -95 77 -93 c 128,-1,55
 70 -91 70 -91 64 -88.5 c 128,-1,56
 58 -86 58 -86 56 -85 c 256,0,1
EndSplineSet
EndChar

StartChar: backslash
Encoding: 92 92 63
Width: 410
Flags: W
LayerCount: 2
Fore
SplineSet
339 14 m 1,0,1
 305 47 305 47 271.5 96 c 128,-1,2
 238 145 238 145 207 202.5 c 128,-1,3
 176 260 176 260 147.5 321.5 c 128,-1,4
 119 383 119 383 95.5 442.5 c 128,-1,5
 72 502 72 502 54 554 c 128,-1,6
 36 606 36 606 25 645 c 1,7,8
 35 678 35 678 47.5 677.5 c 128,-1,9
 60 677 60 677 76 652.5 c 128,-1,10
 92 628 92 628 111.5 583 c 128,-1,11
 131 538 131 538 154 482 c 128,-1,12
 177 426 177 426 203 363 c 128,-1,13
 229 300 229 300 259 239 c 128,-1,14
 289 178 289 178 323 123 c 128,-1,15
 357 68 357 68 395 29 c 1,16,17
 381 8 381 8 367.5 1 c 128,-1,18
 354 -6 354 -6 339 14 c 1,0,1
EndSplineSet
EndChar

StartChar: bracketright
Encoding: 93 93 64
Width: 558
Flags: W
LayerCount: 2
Fore
SplineSet
84 -106 m 0,0,1
 76 -95 76 -95 97 -83.5 c 128,-1,2
 118 -72 118 -72 154 -61 c 128,-1,3
 190 -50 190 -50 234 -40.5 c 128,-1,4
 278 -31 278 -31 316.5 -24 c 128,-1,5
 355 -17 355 -17 381.5 -12.5 c 128,-1,6
 408 -8 408 -8 409 -8 c 1,7,8
 408 36 408 36 410 105.5 c 128,-1,9
 412 175 412 175 416.5 257 c 128,-1,10
 421 339 421 339 426 427.5 c 128,-1,11
 431 516 431 516 435 598 c 128,-1,12
 439 680 439 680 440.5 749 c 128,-1,13
 442 818 442 818 439 861 c 1,14,15
 421 862 421 862 386 858 c 128,-1,16
 351 854 351 854 308 849.5 c 128,-1,17
 265 845 265 845 219 841 c 128,-1,18
 173 837 173 837 132 838.5 c 128,-1,19
 91 840 91 840 60 848.5 c 128,-1,20
 29 857 29 857 16 876 c 0,21,22
 11 884 11 884 29 893 c 128,-1,23
 47 902 47 902 80 911 c 128,-1,24
 113 920 113 920 157 927 c 128,-1,25
 201 934 201 934 248 938 c 128,-1,26
 295 942 295 942 341 941.5 c 128,-1,27
 387 941 387 941 423.5 934 c 128,-1,28
 460 927 460 927 484 913 c 128,-1,29
 508 899 508 899 510 876 c 0,30,31
 515 828 515 828 514 755 c 128,-1,32
 513 682 513 682 508.5 597 c 128,-1,33
 504 512 504 512 498 420 c 128,-1,34
 492 328 492 328 488.5 243 c 128,-1,35
 485 158 485 158 485.5 85 c 128,-1,36
 486 12 486 12 494 -36 c 0,37,38
 494 -40 494 -40 495.5 -48.5 c 128,-1,39
 497 -57 497 -57 496 -66 c 128,-1,40
 495 -75 495 -75 492 -83 c 128,-1,41
 489 -91 489 -91 480 -93 c 1,42,43
 450 -89 450 -89 413 -94.5 c 128,-1,44
 376 -100 376 -100 336.5 -108.5 c 128,-1,45
 297 -117 297 -117 258 -125.5 c 128,-1,46
 219 -134 219 -134 185 -136.5 c 128,-1,47
 151 -139 151 -139 124.5 -133 c 128,-1,48
 98 -127 98 -127 84 -106 c 0,0,1
EndSplineSet
EndChar

StartChar: asciicircum
Encoding: 94 94 65
Width: 325
Flags: W
LayerCount: 2
Fore
SplineSet
266 467 m 0,0,1
 265 469 265 469 260.5 486.5 c 128,-1,2
 256 504 256 504 250 527.5 c 128,-1,3
 244 551 244 551 237 578 c 128,-1,4
 230 605 230 605 222.5 626 c 128,-1,5
 215 647 215 647 208 659 c 128,-1,6
 201 671 201 671 196 665 c 1,7,8
 193 659 193 659 185 640.5 c 128,-1,9
 177 622 177 622 166.5 598 c 128,-1,10
 156 574 156 574 143 549 c 128,-1,11
 130 524 130 524 115.5 505.5 c 128,-1,12
 101 487 101 487 85.5 478.5 c 128,-1,13
 70 470 70 470 54 481 c 0,14,15
 48 485 48 485 41.5 492.5 c 128,-1,16
 35 500 35 500 40 509 c 0,17,18
 46 520 46 520 60 548 c 128,-1,19
 74 576 74 576 90 607.5 c 128,-1,20
 106 639 106 639 120 667.5 c 128,-1,21
 134 696 134 696 139 707 c 0,22,23
 167 766 167 766 190.5 782 c 128,-1,24
 214 798 214 798 232.5 784.5 c 128,-1,25
 251 771 251 771 265 735.5 c 128,-1,26
 279 700 279 700 287.5 656.5 c 128,-1,27
 296 613 296 613 299 569 c 128,-1,28
 302 525 302 525 299.5 494.5 c 128,-1,29
 297 464 297 464 288.5 453.5 c 128,-1,30
 280 443 280 443 266 467 c 0,0,1
EndSplineSet
EndChar

StartChar: underscore
Encoding: 95 95 66
Width: 784
Flags: W
LayerCount: 2
Fore
SplineSet
36 14 m 0,0,1
 34 15 34 15 28.5 21 c 128,-1,2
 23 27 23 27 22 29 c 1,3,4
 23 33 23 33 54 39.5 c 128,-1,5
 85 46 85 46 135.5 53 c 128,-1,6
 186 60 186 60 250.5 67.5 c 128,-1,7
 315 75 315 75 383 81 c 128,-1,8
 451 87 451 87 516 90.5 c 128,-1,9
 581 94 581 94 633 93.5 c 128,-1,10
 685 93 685 93 718.5 88 c 128,-1,11
 752 83 752 83 756 71 c 0,12,13
 758 68 758 68 758 57 c 128,-1,14
 758 46 758 46 756 42 c 1,15,16
 733 40 733 40 684 36.5 c 128,-1,17
 635 33 635 33 574 29 c 128,-1,18
 513 25 513 25 445 20.5 c 128,-1,19
 377 16 377 16 316 12 c 128,-1,20
 255 8 255 8 206 4.5 c 128,-1,21
 157 1 157 1 134 0 c 0,22,23
 103 -2 103 -2 83 -1 c 128,-1,24
 63 0 63 0 36 14 c 0,0,1
EndSplineSet
EndChar

StartChar: grave
Encoding: 96 96 67
Width: 212
Flags: W
LayerCount: 2
Fore
SplineSet
148 535 m 1,0,1
 131 565 131 565 112 577 c 128,-1,2
 93 589 93 589 78.5 599.5 c 128,-1,3
 64 610 64 610 57 626.5 c 128,-1,4
 50 643 50 643 57 680 c 1,5,6
 84 682 84 682 112 663.5 c 128,-1,7
 140 645 140 645 163 618.5 c 128,-1,8
 186 592 186 592 200.5 564.5 c 128,-1,9
 215 537 215 537 216 520 c 128,-1,10
 217 503 217 503 201.5 503.5 c 128,-1,11
 186 504 186 504 148 535 c 1,0,1
EndSplineSet
EndChar

StartChar: a
Encoding: 97 97 68
Width: 877
Flags: W
LayerCount: 2
Fore
SplineSet
71 29 m 0,0,1
 41 54 41 54 37.5 103 c 128,-1,2
 34 152 34 152 51 212.5 c 128,-1,3
 68 273 68 273 101.5 340 c 128,-1,4
 135 407 135 407 178.5 467.5 c 128,-1,5
 222 528 222 528 273 576 c 128,-1,6
 324 624 324 624 375.5 647.5 c 128,-1,7
 427 671 427 671 476 664 c 128,-1,8
 525 657 525 657 565 607 c 0,9,10
 590 576 590 576 595 544 c 128,-1,11
 600 512 600 512 593.5 479 c 128,-1,12
 587 446 587 446 573.5 412 c 128,-1,13
 560 378 560 378 547 343 c 128,-1,14
 534 308 534 308 526 271.5 c 128,-1,15
 518 235 518 235 523 198 c 0,16,17
 528 162 528 162 550 148.5 c 128,-1,18
 572 135 572 135 605 137.5 c 128,-1,19
 638 140 638 140 678 154.5 c 128,-1,20
 718 169 718 169 759 190 c 128,-1,21
 800 211 800 211 839 234.5 c 128,-1,22
 878 258 878 258 908 278 c 128,-1,23
 938 298 938 298 956.5 311.5 c 128,-1,24
 975 325 975 325 975 325 c 1,25,26
 1010 332 1010 332 1014.5 320 c 128,-1,27
 1019 308 1019 308 1001 285.5 c 128,-1,28
 983 263 983 263 946.5 233.5 c 128,-1,29
 910 204 910 204 863.5 176.5 c 128,-1,30
 817 149 817 149 764.5 126.5 c 128,-1,31
 712 104 712 104 662 95.5 c 128,-1,32
 612 87 612 87 568 96.5 c 128,-1,33
 524 106 524 106 495 141 c 0,34,35
 482 156 482 156 474.5 171.5 c 128,-1,36
 467 187 467 187 453 198 c 1,37,38
 434 180 434 180 408 152 c 128,-1,39
 382 124 382 124 351 96 c 128,-1,40
 320 68 320 68 285.5 43 c 128,-1,41
 251 18 251 18 215 5 c 128,-1,42
 179 -8 179 -8 142 -4 c 128,-1,43
 105 0 105 0 71 29 c 0,0,1
85 71 m 1,44,45
 93 41 93 41 118 36 c 128,-1,46
 143 31 143 31 177 45.5 c 128,-1,47
 211 60 211 60 251.5 91.5 c 128,-1,48
 292 123 292 123 331.5 167.5 c 128,-1,49
 371 212 371 212 407 266 c 128,-1,50
 443 320 443 320 468.5 379.5 c 128,-1,51
 494 439 494 439 506 500.5 c 128,-1,52
 518 562 518 562 509 622 c 1,53,54
 487 640 487 640 455.5 631.5 c 128,-1,55
 424 623 424 623 387.5 596 c 128,-1,56
 351 569 351 569 312.5 527 c 128,-1,57
 274 485 274 485 238 435.5 c 128,-1,58
 202 386 202 386 170.5 332.5 c 128,-1,59
 139 279 139 279 117.5 230 c 128,-1,60
 96 181 96 181 86.5 139 c 128,-1,61
 77 97 77 97 85 71 c 1,44,45
EndSplineSet
EndChar

StartChar: b
Encoding: 98 98 69
Width: 685
Flags: W
LayerCount: 2
Fore
SplineSet
22 42 m 1,0,1
 20 44 20 44 20 49 c 128,-1,2
 20 54 20 54 22 56 c 0,3,4
 38 88 38 88 58.5 141 c 128,-1,5
 79 194 79 194 101 257.5 c 128,-1,6
 123 321 123 321 146.5 389 c 128,-1,7
 170 457 170 457 193 520 c 128,-1,8
 216 583 216 583 238.5 635.5 c 128,-1,9
 261 688 261 688 281 720 c 128,-1,10
 301 752 301 752 317.5 758 c 128,-1,11
 334 764 334 764 346 734 c 0,12,13
 358 705 358 705 352.5 674.5 c 128,-1,14
 347 644 347 644 333 612 c 128,-1,15
 319 580 319 580 299.5 547.5 c 128,-1,16
 280 515 280 515 263.5 482 c 128,-1,17
 247 449 247 449 237.5 416.5 c 128,-1,18
 228 384 228 384 233 353 c 1,19,20
 269 362 269 362 296.5 386.5 c 128,-1,21
 324 411 324 411 351 439 c 128,-1,22
 378 467 378 467 406.5 490.5 c 128,-1,23
 435 514 435 514 473 522 c 0,24,25
 531 534 531 534 571 517 c 128,-1,26
 611 500 611 500 631 465 c 128,-1,27
 651 430 651 430 649.5 381 c 128,-1,28
 648 332 648 332 624 280 c 128,-1,29
 600 228 600 228 552.5 177.5 c 128,-1,30
 505 127 505 127 432 89 c 128,-1,31
 359 51 359 51 260.5 29.5 c 128,-1,32
 162 8 162 8 36 14 c 1,33,34
 34 17 34 17 28.5 28 c 128,-1,35
 23 39 23 39 22 42 c 1,0,1
134 113 m 0,36,37
 133 110 133 110 132.5 104 c 128,-1,38
 132 98 132 98 132 91.5 c 128,-1,39
 132 85 132 85 132.5 79 c 128,-1,40
 133 73 133 73 134 71 c 1,41,42
 190 63 190 63 246.5 72 c 128,-1,43
 303 81 303 81 355.5 103.5 c 128,-1,44
 408 126 408 126 453 160.5 c 128,-1,45
 498 195 498 195 529.5 240 c 128,-1,46
 561 285 561 285 577 338.5 c 128,-1,47
 593 392 593 392 587 452 c 0,48,49
 586 455 586 455 580 460 c 128,-1,50
 574 465 574 465 572 466 c 0,51,52
 531 472 531 472 486 458.5 c 128,-1,53
 441 445 441 445 396 418 c 128,-1,54
 351 391 351 391 309.5 353.5 c 128,-1,55
 268 316 268 316 233 275 c 128,-1,56
 198 234 198 234 172 192 c 128,-1,57
 146 150 146 150 134 113 c 0,36,37
EndSplineSet
EndChar

StartChar: c
Encoding: 99 99 70
Width: 699
Flags: W
LayerCount: 2
Fore
SplineSet
128 14 m 0,0,1
 64 35 64 35 43.5 80 c 128,-1,2
 23 125 23 125 32.5 181.5 c 128,-1,3
 42 238 42 238 75.5 301.5 c 128,-1,4
 109 365 109 365 155 422.5 c 128,-1,5
 201 480 201 480 252.5 526.5 c 128,-1,6
 304 573 304 573 349 596.5 c 128,-1,7
 394 620 394 620 426.5 615 c 128,-1,8
 459 610 459 610 467 565 c 0,9,10
 470 545 470 545 462 521 c 128,-1,11
 454 497 454 497 440 475 c 128,-1,12
 426 453 426 453 408 435 c 128,-1,13
 390 417 390 417 373.5 408 c 128,-1,14
 357 399 357 399 343.5 402 c 128,-1,15
 330 405 330 405 326 424 c 1,16,17
 341 450 341 450 359.5 474.5 c 128,-1,18
 378 499 378 499 396 522 c 1,19,20
 389 536 389 536 367.5 528.5 c 128,-1,21
 346 521 346 521 316.5 498.5 c 128,-1,22
 287 476 287 476 253.5 442 c 128,-1,23
 220 408 220 408 189 368 c 128,-1,24
 158 328 158 328 133.5 284.5 c 128,-1,25
 109 241 109 241 98 201 c 128,-1,26
 87 161 87 161 92.5 127 c 128,-1,27
 98 93 98 93 128 71 c 1,28,29
 169 68 169 68 222.5 79.5 c 128,-1,30
 276 91 276 91 332.5 109.5 c 128,-1,31
 389 128 389 128 444.5 150.5 c 128,-1,32
 500 173 500 173 545.5 191.5 c 128,-1,33
 591 210 591 210 623 220.5 c 128,-1,34
 655 231 655 231 665 226 c 0,35,36
 683 217 683 217 675.5 201 c 128,-1,37
 668 185 668 185 641.5 165.5 c 128,-1,38
 615 146 615 146 573.5 125 c 128,-1,39
 532 104 532 104 483.5 84.5 c 128,-1,40
 435 65 435 65 383 48.5 c 128,-1,41
 331 32 331 32 282.5 21.5 c 128,-1,42
 234 11 234 11 193.5 8.5 c 128,-1,43
 153 6 153 6 128 14 c 0,0,1
EndSplineSet
EndChar

StartChar: d
Encoding: 100 100 71
Width: 680
Flags: W
LayerCount: 2
Fore
SplineSet
537 29 m 0,0,1
 514 45 514 45 497.5 65.5 c 128,-1,2
 481 86 481 86 469.5 109.5 c 128,-1,3
 458 133 458 133 450.5 159 c 128,-1,4
 443 185 443 185 438 212 c 1,5,-1
 424 212 l 1,6,7
 323 129 323 129 248 88 c 128,-1,8
 173 47 173 47 122 38 c 128,-1,9
 71 29 71 29 42.5 46 c 128,-1,10
 14 63 14 63 5.5 96.5 c 128,-1,11
 -3 130 -3 130 8 175 c 128,-1,12
 19 220 19 220 47 265.5 c 128,-1,13
 75 311 75 311 118.5 352 c 128,-1,14
 162 393 162 393 219.5 420 c 128,-1,15
 277 447 277 447 346 454 c 128,-1,16
 415 461 415 461 495 438 c 1,17,-1
 509 452 l 1,18,-1
 678 791 l 1,19,20
 711 786 711 786 717.5 761.5 c 128,-1,21
 724 737 724 737 717 707 c 128,-1,22
 710 677 710 677 697 648.5 c 128,-1,23
 684 620 684 620 678 607 c 0,24,25
 675 600 675 600 664 578.5 c 128,-1,26
 653 557 653 557 638.5 528 c 128,-1,27
 624 499 624 499 607.5 466.5 c 128,-1,28
 591 434 591 434 576.5 404.5 c 128,-1,29
 562 375 562 375 551 353.5 c 128,-1,30
 540 332 540 332 537 325 c 0,31,32
 526 302 526 302 522 277.5 c 128,-1,33
 518 253 518 253 517.5 227.5 c 128,-1,34
 517 202 517 202 519 176.5 c 128,-1,35
 521 151 521 151 523 127 c 1,36,37
 528 104 528 104 542.5 90 c 128,-1,38
 557 76 557 76 574 64.5 c 128,-1,39
 591 53 591 53 608 41.5 c 128,-1,40
 625 30 625 30 636 14 c 1,41,42
 631 -2 631 -2 616 -2.5 c 128,-1,43
 601 -3 601 -3 584.5 3 c 128,-1,44
 568 9 568 9 554 17.5 c 128,-1,45
 540 26 540 26 537 29 c 0,0,1
71 85 m 0,46,47
 75 69 75 69 95 70.5 c 128,-1,48
 115 72 115 72 144.5 86 c 128,-1,49
 174 100 174 100 210.5 124.5 c 128,-1,50
 247 149 247 149 283 177.5 c 128,-1,51
 319 206 319 206 353 237 c 128,-1,52
 387 268 387 268 411 296.5 c 128,-1,53
 435 325 435 325 447.5 347 c 128,-1,54
 460 369 460 369 453 381 c 1,55,56
 414 402 414 402 366.5 402 c 128,-1,57
 319 402 319 402 272 385.5 c 128,-1,58
 225 369 225 369 182 338 c 128,-1,59
 139 307 139 307 109.5 267 c 128,-1,60
 80 227 80 227 68 180.5 c 128,-1,61
 56 134 56 134 71 85 c 0,46,47
EndSplineSet
EndChar

StartChar: e
Encoding: 101 101 72
Width: 544
Flags: W
LayerCount: 2
Fore
SplineSet
106 14 m 0,0,1
 68 27 68 27 49 52 c 128,-1,2
 30 77 30 77 24 108.5 c 128,-1,3
 18 140 18 140 22.5 174.5 c 128,-1,4
 27 209 27 209 36 240 c 1,5,6
 74 280 74 280 121 331.5 c 128,-1,7
 168 383 168 383 220.5 433.5 c 128,-1,8
 273 484 273 484 330 527 c 128,-1,9
 387 570 387 570 445 593 c 0,10,11
 465 601 465 601 477 591.5 c 128,-1,12
 489 582 489 582 494 562.5 c 128,-1,13
 499 543 499 543 498.5 516.5 c 128,-1,14
 498 490 498 490 494 465.5 c 128,-1,15
 490 441 490 441 484 420.5 c 128,-1,16
 478 400 478 400 471 393 c 0,17,18
 460 380 460 380 432.5 363 c 128,-1,19
 405 346 405 346 368.5 326.5 c 128,-1,20
 332 307 332 307 291 285.5 c 128,-1,21
 250 264 250 264 212.5 242 c 128,-1,22
 175 220 175 220 144.5 197 c 128,-1,23
 114 174 114 174 98.5 152 c 128,-1,24
 83 130 83 130 86.5 109.5 c 128,-1,25
 90 89 90 89 121 71 c 1,26,27
 163 66 163 66 224 75.5 c 128,-1,28
 285 85 285 85 348 101 c 128,-1,29
 411 117 411 117 469.5 134 c 128,-1,30
 528 151 528 151 566 160 c 1,31,-1
 581 146 l 1,32,33
 563 122 563 122 528 100.5 c 128,-1,34
 493 79 493 79 449.5 61 c 128,-1,35
 406 43 406 43 356.5 30.5 c 128,-1,36
 307 18 307 18 260.5 11 c 128,-1,37
 214 4 214 4 173.5 4.5 c 128,-1,38
 133 5 133 5 106 14 c 0,0,1
405 491 m 1,39,40
 404 493 404 493 386.5 481 c 128,-1,41
 369 469 369 469 343 449.5 c 128,-1,42
 317 430 317 430 288 407 c 128,-1,43
 259 384 259 384 234 364 c 128,-1,44
 209 344 209 344 193.5 330 c 128,-1,45
 178 316 178 316 180 315 c 0,46,47
 200 311 200 311 232 321 c 128,-1,48
 264 331 264 331 298 348 c 128,-1,49
 332 365 332 365 363.5 387 c 128,-1,50
 395 409 395 409 413.5 430 c 128,-1,51
 432 451 432 451 432 467.5 c 128,-1,52
 432 484 432 484 405 491 c 1,39,40
EndSplineSet
EndChar

StartChar: f
Encoding: 102 102 73
Width: 587
Flags: W
LayerCount: 2
Fore
SplineSet
50 29 m 0,0,1
 48 32 48 32 48 42.5 c 128,-1,2
 48 53 48 53 50 56 c 2,3,-1
 155 297 l 1,4,-1
 36 297 l 2,5,6
 33 297 33 297 30 302 c 128,-1,7
 27 307 27 307 24.5 314 c 128,-1,8
 22 321 22 321 21 328 c 128,-1,9
 20 335 20 335 22 339 c 1,10,11
 26 340 26 340 36 344 c 128,-1,12
 46 348 46 348 57 352.5 c 128,-1,13
 68 357 68 357 78 361.5 c 128,-1,14
 88 366 88 366 92 368 c 0,15,16
 96 369 96 369 113 375 c 128,-1,17
 130 381 130 381 149.5 387.5 c 128,-1,18
 169 394 169 394 185.5 400.5 c 128,-1,19
 202 407 202 407 205 410 c 0,20,21
 219 420 219 420 240 459.5 c 128,-1,22
 261 499 261 499 287 554 c 128,-1,23
 313 609 313 609 344.5 672 c 128,-1,24
 376 735 376 735 412 793 c 128,-1,25
 448 851 448 851 488 896.5 c 128,-1,26
 528 942 528 942 571.5 961.5 c 128,-1,27
 615 981 615 981 661 967.5 c 128,-1,28
 707 954 707 954 756 894 c 0,29,30
 765 882 765 882 769 867.5 c 128,-1,31
 773 853 773 853 770 838 c 1,32,33
 759 831 759 831 747.5 835 c 128,-1,34
 736 839 736 839 726.5 847.5 c 128,-1,35
 717 856 717 856 710 865.5 c 128,-1,36
 703 875 703 875 700 880 c 1,37,38
 644 889 644 889 604 882.5 c 128,-1,39
 564 876 564 876 535 857.5 c 128,-1,40
 506 839 506 839 485.5 810.5 c 128,-1,41
 465 782 465 782 447.5 747.5 c 128,-1,42
 430 713 430 713 413 673 c 128,-1,43
 396 633 396 633 375 593 c 0,44,45
 367 578 367 578 354.5 554.5 c 128,-1,46
 342 531 342 531 331 508.5 c 128,-1,47
 320 486 320 486 312 469.5 c 128,-1,48
 304 453 304 453 304 452 c 2,49,-1
 304 438 l 2,50,51
 304 435 304 435 318.5 432.5 c 128,-1,52
 333 430 333 430 356 427.5 c 128,-1,53
 379 425 379 425 406 422 c 128,-1,54
 433 419 433 419 458 413.5 c 128,-1,55
 483 408 483 408 502.5 400 c 128,-1,56
 522 392 522 392 530 381 c 1,57,-1
 516 368 l 1,58,59
 445 372 445 372 396 371 c 128,-1,60
 347 370 347 370 311 354.5 c 128,-1,61
 275 339 275 339 247.5 305.5 c 128,-1,62
 220 272 220 272 191 212 c 0,63,64
 181 191 181 191 164.5 158 c 128,-1,65
 148 125 148 125 132.5 93.5 c 128,-1,66
 117 62 117 62 105 38.5 c 128,-1,67
 93 15 93 15 92 14 c 2,68,-1
 78 0 l 1,69,70
 76 1 76 1 71.5 5 c 128,-1,71
 67 9 67 9 62.5 13.5 c 128,-1,72
 58 18 58 18 54.5 22.5 c 128,-1,73
 51 27 51 27 50 29 c 0,0,1
EndSplineSet
EndChar

StartChar: g
Encoding: 103 103 74
Width: 452
Flags: W
LayerCount: 2
Fore
SplineSet
-170 -353 m 0,0,1
 -209 -339 -209 -339 -233.5 -311.5 c 128,-1,2
 -258 -284 -258 -284 -271 -252 c 128,-1,3
 -284 -220 -284 -220 -287 -187 c 128,-1,4
 -290 -154 -290 -154 -285.5 -129 c 128,-1,5
 -281 -104 -281 -104 -270.5 -91 c 128,-1,6
 -260 -78 -260 -78 -246 -85 c 1,7,8
 -247 -194 -247 -194 -220.5 -249.5 c 128,-1,9
 -194 -305 -194 -305 -150.5 -319 c 128,-1,10
 -107 -333 -107 -333 -52.5 -312 c 128,-1,11
 2 -291 2 -291 57 -246.5 c 128,-1,12
 112 -202 112 -202 162.5 -140.5 c 128,-1,13
 213 -79 213 -79 248.5 -12 c 128,-1,14
 284 55 284 55 298.5 121 c 128,-1,15
 313 187 313 187 297 240 c 1,16,17
 207 175 207 175 149.5 149 c 128,-1,18
 92 123 92 123 60.5 126 c 128,-1,19
 29 129 29 129 21.5 156.5 c 128,-1,20
 14 184 14 184 23.5 224.5 c 128,-1,21
 33 265 33 265 57 314.5 c 128,-1,22
 81 364 81 364 113.5 412 c 128,-1,23
 146 460 146 460 183 501 c 128,-1,24
 220 542 220 542 256.5 566 c 128,-1,25
 293 590 293 590 325.5 592 c 128,-1,26
 358 594 358 594 381 564 c 0,27,28
 410 526 410 526 417 460 c 128,-1,29
 424 394 424 394 413 314 c 128,-1,30
 402 234 402 234 374 146.5 c 128,-1,31
 346 59 346 59 304.5 -24 c 128,-1,32
 263 -107 263 -107 210.5 -179 c 128,-1,33
 158 -251 158 -251 96.5 -298.5 c 128,-1,34
 35 -346 35 -346 -32.5 -362.5 c 128,-1,35
 -100 -379 -100 -379 -170 -353 c 0,0,1
85 268 m 0,36,37
 83 264 83 264 82.5 254 c 128,-1,38
 82 244 82 244 82 232.5 c 128,-1,39
 82 221 82 221 82.5 211.5 c 128,-1,40
 83 202 83 202 85 198 c 1,41,42
 115 190 115 190 147 205 c 128,-1,43
 179 220 179 220 208 248 c 128,-1,44
 237 276 237 276 262.5 313 c 128,-1,45
 288 350 288 350 305.5 385.5 c 128,-1,46
 323 421 323 421 331.5 451 c 128,-1,47
 340 481 340 481 335 495.5 c 128,-1,48
 330 510 330 510 311 505 c 128,-1,49
 292 500 292 500 254 466 c 0,50,51
 239 452 239 452 214 428.5 c 128,-1,52
 189 405 189 405 163.5 377.5 c 128,-1,53
 138 350 138 350 116 321 c 128,-1,54
 94 292 94 292 85 268 c 0,36,37
EndSplineSet
EndChar

StartChar: h
Encoding: 104 104 75
Width: 692
Flags: W
LayerCount: 2
Fore
SplineSet
14 29 m 0,0,1
 13 31 13 31 13 35.5 c 128,-1,2
 13 40 13 40 14 42 c 0,3,4
 18 52 18 52 30 76.5 c 128,-1,5
 42 101 42 101 55.5 128 c 128,-1,6
 69 155 69 155 81.5 179 c 128,-1,7
 94 203 94 203 99 212 c 0,8,9
 101 216 101 216 112 233.5 c 128,-1,10
 123 251 123 251 138.5 277 c 128,-1,11
 154 303 154 303 172 333.5 c 128,-1,12
 190 364 190 364 208 394.5 c 128,-1,13
 226 425 226 425 242 451.5 c 128,-1,14
 258 478 258 478 268 495 c 0,15,16
 293 536 293 536 326 592.5 c 128,-1,17
 359 649 359 649 394 706.5 c 128,-1,18
 429 764 429 764 463 817.5 c 128,-1,19
 497 871 497 871 526 906.5 c 128,-1,20
 555 942 555 942 575 953 c 128,-1,21
 595 964 595 964 602 938 c 0,22,23
 603 933 603 933 603 917.5 c 128,-1,24
 603 902 603 902 602 897 c 1,25,26
 594 884 594 884 579 862 c 128,-1,27
 564 840 564 840 548 815.5 c 128,-1,28
 532 791 532 791 517.5 769 c 128,-1,29
 503 747 503 747 495 734 c 0,30,31
 484 717 484 717 459 678 c 128,-1,32
 434 639 434 639 402.5 590 c 128,-1,33
 371 541 371 541 338.5 488 c 128,-1,34
 306 435 306 435 279.5 389 c 128,-1,35
 253 343 253 343 237.5 310 c 128,-1,36
 222 277 222 277 226 268 c 1,37,38
 256 277 256 277 290.5 299.5 c 128,-1,39
 325 322 325 322 360 348 c 128,-1,40
 395 374 395 374 430 399 c 128,-1,41
 465 424 465 424 495 438 c 1,42,43
 525 434 525 434 548 415.5 c 128,-1,44
 571 397 571 397 580 368 c 1,45,46
 579 356 579 356 578.5 325.5 c 128,-1,47
 578 295 578 295 578 261.5 c 128,-1,48
 578 228 578 228 578.5 198 c 128,-1,49
 579 168 579 168 580 156 c 0,50,51
 581 143 581 143 592.5 122 c 128,-1,52
 604 101 604 101 617 81 c 128,-1,53
 630 61 630 61 640.5 45.5 c 128,-1,54
 651 30 651 30 650 29 c 0,55,56
 625 20 625 20 603 28.5 c 128,-1,57
 581 37 581 37 564 54.5 c 128,-1,58
 547 72 547 72 536 95.5 c 128,-1,59
 525 119 525 119 523 141 c 0,60,61
 521 153 521 153 519 183.5 c 128,-1,62
 517 214 517 214 514.5 247.5 c 128,-1,63
 512 281 512 281 510.5 311 c 128,-1,64
 509 341 509 341 509 353 c 1,65,-1
 480 368 l 2,66,67
 473 371 473 371 454.5 361 c 128,-1,68
 436 351 436 351 412 333.5 c 128,-1,69
 388 316 388 316 362 294 c 128,-1,70
 336 272 336 272 313.5 252 c 128,-1,71
 291 232 291 232 274.5 217 c 128,-1,72
 258 202 258 202 254 198 c 0,73,74
 243 188 243 188 217 162 c 128,-1,75
 191 136 191 136 161.5 106.5 c 128,-1,76
 132 77 132 77 106.5 50.5 c 128,-1,77
 81 24 81 24 71 14 c 1,78,79
 54 10 54 10 38 11 c 128,-1,80
 22 12 22 12 14 29 c 0,0,1
EndSplineSet
EndChar

StartChar: i
Encoding: 105 105 76
Width: 317
Flags: W
LayerCount: 2
Fore
SplineSet
14 14 m 1,0,1
 65 178 65 178 107 275 c 128,-1,2
 149 372 149 372 176.5 411 c 128,-1,3
 204 450 204 450 214.5 436.5 c 128,-1,4
 225 423 225 423 213 366.5 c 128,-1,5
 201 310 201 310 163 216 c 128,-1,6
 125 122 125 122 56 0 c 1,7,8
 46 -4 46 -4 32.5 -1.5 c 128,-1,9
 19 1 19 1 14 14 c 1,0,1
233 615 m 0,10,11
 232 618 232 618 231.5 624 c 128,-1,12
 231 630 231 630 231 637 c 128,-1,13
 231 644 231 644 231.5 650 c 128,-1,14
 232 656 232 656 233 658 c 1,15,16
 262 668 262 668 277 660.5 c 128,-1,17
 292 653 292 653 295.5 638.5 c 128,-1,18
 299 624 299 624 294.5 607.5 c 128,-1,19
 290 591 290 591 280 583 c 128,-1,20
 270 575 270 575 257.5 580.5 c 128,-1,21
 245 586 245 586 233 615 c 0,10,11
EndSplineSet
EndChar

StartChar: j
Encoding: 106 106 77
Width: 233
Flags: W
LayerCount: 2
Fore
SplineSet
-304 -437 m 0,0,1
 -335 -424 -335 -424 -367 -400 c 128,-1,2
 -399 -376 -399 -376 -417 -347 c 128,-1,3
 -435 -318 -435 -318 -431.5 -286.5 c 128,-1,4
 -428 -255 -428 -255 -389 -225 c 1,5,6
 -380 -226 -380 -226 -376.5 -237.5 c 128,-1,7
 -373 -249 -373 -249 -371 -265 c 128,-1,8
 -369 -281 -369 -281 -367 -300 c 128,-1,9
 -365 -319 -365 -319 -358.5 -336 c 128,-1,10
 -352 -353 -352 -353 -339.5 -365.5 c 128,-1,11
 -327 -378 -327 -378 -304 -381 c 0,12,13
 -247 -389 -247 -389 -200.5 -362.5 c 128,-1,14
 -154 -336 -154 -336 -117 -286 c 128,-1,15
 -80 -236 -80 -236 -50 -169.5 c 128,-1,16
 -20 -103 -20 -103 4.5 -31.5 c 128,-1,17
 29 40 29 40 49.5 111 c 128,-1,18
 70 182 70 182 88.5 239.5 c 128,-1,19
 107 297 107 297 125 335.5 c 128,-1,20
 143 374 143 374 162 382 c 1,21,22
 178 377 178 377 177.5 334 c 128,-1,23
 177 291 177 291 163 225.5 c 128,-1,24
 149 160 149 160 123 79.5 c 128,-1,25
 97 -1 97 -1 61.5 -81.5 c 128,-1,26
 26 -162 26 -162 -16.5 -236 c 128,-1,27
 -59 -310 -59 -310 -106.5 -361.5 c 128,-1,28
 -154 -413 -154 -413 -204 -436 c 128,-1,29
 -254 -459 -254 -459 -304 -437 c 0,0,1
162 594 m 2,30,31
 145 617 145 617 152 630 c 128,-1,32
 159 643 159 643 173.5 641.5 c 128,-1,33
 188 640 188 640 200 622 c 128,-1,34
 212 604 212 604 205 565 c 1,35,36
 199 561 199 561 191.5 565 c 128,-1,37
 184 569 184 569 177.5 575 c 128,-1,38
 171 581 171 581 166.5 587.5 c 128,-1,39
 162 594 162 594 162 594 c 2,30,31
EndSplineSet
EndChar

StartChar: k
Encoding: 107 107 78
Width: 911
Flags: W
LayerCount: 2
Fore
SplineSet
530 42 m 0,0,1
 449 152 449 152 400.5 224 c 128,-1,2
 352 296 352 296 321 331 c 128,-1,3
 290 366 290 366 270 364.5 c 128,-1,4
 250 363 250 363 227 326.5 c 128,-1,5
 204 290 204 290 170 218.5 c 128,-1,6
 136 147 136 147 78 42 c 0,7,8
 71 29 71 29 62.5 26 c 128,-1,9
 54 23 54 23 46 26 c 128,-1,10
 38 29 38 29 31.5 37.5 c 128,-1,11
 25 46 25 46 22 56 c 0,12,13
 18 69 18 69 31 104.5 c 128,-1,14
 44 140 44 140 68 191 c 128,-1,15
 92 242 92 242 125.5 304 c 128,-1,16
 159 366 159 366 195.5 431 c 128,-1,17
 232 496 232 496 269 559.5 c 128,-1,18
 306 623 306 623 338 677.5 c 128,-1,19
 370 732 370 732 395 773 c 128,-1,20
 420 814 420 814 431 834 c 1,21,22
 440 840 440 840 449.5 835 c 128,-1,23
 459 830 459 830 465.5 819.5 c 128,-1,24
 472 809 472 809 474.5 797 c 128,-1,25
 477 785 477 785 473 777 c 2,26,-1
 360 580 l 1,27,-1
 360 551 l 1,28,29
 386 546 386 546 425.5 556.5 c 128,-1,30
 465 567 465 567 510.5 587 c 128,-1,31
 556 607 556 607 604 633.5 c 128,-1,32
 652 660 652 660 694.5 687 c 128,-1,33
 737 714 737 714 772 738 c 128,-1,34
 807 762 807 762 826 777 c 1,35,36
 843 786 843 786 856 782.5 c 128,-1,37
 869 779 869 779 875.5 769 c 128,-1,38
 882 759 882 759 881 745.5 c 128,-1,39
 880 732 880 732 869 720 c 0,40,41
 833 684 833 684 785 658.5 c 128,-1,42
 737 633 737 633 683.5 612.5 c 128,-1,43
 630 592 630 592 574 573.5 c 128,-1,44
 518 555 518 555 467.5 534 c 128,-1,45
 417 513 417 513 374 486.5 c 128,-1,46
 331 460 331 460 304 424 c 1,47,48
 320 410 320 410 347 381 c 128,-1,49
 374 352 374 352 405.5 315 c 128,-1,50
 437 278 437 278 469.5 237.5 c 128,-1,51
 502 197 502 197 528 159 c 128,-1,52
 554 121 554 121 570.5 90 c 128,-1,53
 587 59 587 59 587 42 c 2,54,-1
 587 14 l 1,55,56
 577 9 577 9 568.5 10.5 c 128,-1,57
 560 12 560 12 553 17 c 128,-1,58
 546 22 546 22 540 29 c 128,-1,59
 534 36 534 36 530 42 c 0,0,1
EndSplineSet
EndChar

StartChar: l
Encoding: 108 108 79
Width: 410
Flags: W
LayerCount: 2
Fore
SplineSet
71 14 m 0,0,1
 34 40 34 40 24 80 c 128,-1,2
 14 120 14 120 21 167 c 128,-1,3
 28 214 28 214 48 264 c 128,-1,4
 68 314 68 314 91 360.5 c 128,-1,5
 114 407 114 407 136 445.5 c 128,-1,6
 158 484 158 484 170 509 c 0,7,8
 172 514 172 514 179.5 529 c 128,-1,9
 187 544 187 544 197.5 564 c 128,-1,10
 208 584 208 584 219 607 c 128,-1,11
 230 630 230 630 240.5 650.5 c 128,-1,12
 251 671 251 671 258.5 686.5 c 128,-1,13
 266 702 266 702 268 707 c 0,14,15
 271 713 271 713 278 731 c 128,-1,16
 285 749 285 749 294 770.5 c 128,-1,17
 303 792 303 792 313.5 811.5 c 128,-1,18
 324 831 324 831 335.5 840 c 128,-1,19
 347 849 347 849 359 842.5 c 128,-1,20
 371 836 371 836 382 805 c 1,21,22
 377 792 377 792 358 755 c 128,-1,23
 339 718 339 718 312.5 665.5 c 128,-1,24
 286 613 286 613 254.5 549.5 c 128,-1,25
 223 486 223 486 192.5 420.5 c 128,-1,26
 162 355 162 355 136 293 c 128,-1,27
 110 231 110 231 93.5 180.5 c 128,-1,28
 77 130 77 130 73.5 96.5 c 128,-1,29
 70 63 70 63 85 56 c 0,30,31
 103 47 103 47 130.5 49 c 128,-1,32
 158 51 158 51 188.5 56.5 c 128,-1,33
 219 62 219 62 248 67 c 128,-1,34
 277 72 277 72 297 71 c 1,35,36
 302 60 302 60 289.5 49.5 c 128,-1,37
 277 39 277 39 254.5 31 c 128,-1,38
 232 23 232 23 203 17.5 c 128,-1,39
 174 12 174 12 147 9.5 c 128,-1,40
 120 7 120 7 99 8 c 128,-1,41
 78 9 78 9 71 14 c 0,0,1
EndSplineSet
EndChar

StartChar: m
Encoding: 109 109 80
Width: 1031
Flags: W
LayerCount: 2
Fore
SplineSet
777 29 m 1,0,1
 764 46 764 46 762 66 c 128,-1,2
 760 86 760 86 764 106.5 c 128,-1,3
 768 127 768 127 776 147 c 128,-1,4
 784 167 784 167 792 183 c 0,5,6
 798 196 798 196 813.5 228.5 c 128,-1,7
 829 261 829 261 847 297 c 128,-1,8
 865 333 865 333 881 365.5 c 128,-1,9
 897 398 897 398 904 410 c 1,10,-1
 904 438 l 1,11,12
 894 443 894 443 869.5 430.5 c 128,-1,13
 845 418 845 418 811 393.5 c 128,-1,14
 777 369 777 369 736 336 c 128,-1,15
 695 303 695 303 653.5 267 c 128,-1,16
 612 231 612 231 571.5 194.5 c 128,-1,17
 531 158 531 158 498 127 c 128,-1,18
 465 96 465 96 441.5 73.5 c 128,-1,19
 418 51 418 51 410 42 c 1,20,21
 383 33 383 33 375 54 c 128,-1,22
 367 75 367 75 370.5 112 c 128,-1,23
 374 149 374 149 385 194.5 c 128,-1,24
 396 240 396 240 408 280.5 c 128,-1,25
 420 321 420 321 429.5 349.5 c 128,-1,26
 439 378 439 378 438 381 c 1,27,28
 413 389 413 389 385.5 374 c 128,-1,29
 358 359 358 359 329.5 329.5 c 128,-1,30
 301 300 301 300 271.5 261 c 128,-1,31
 242 222 242 222 214 182.5 c 128,-1,32
 186 143 186 143 159 107.5 c 128,-1,33
 132 72 132 72 108.5 50 c 128,-1,34
 85 28 85 28 64.5 23.5 c 128,-1,35
 44 19 44 19 29 42 c 0,36,37
 28 44 28 44 28 49 c 128,-1,38
 28 54 28 54 29 56 c 0,39,40
 35 69 35 69 48 96 c 128,-1,41
 61 123 61 123 77.5 156.5 c 128,-1,42
 94 190 94 190 112.5 226.5 c 128,-1,43
 131 263 131 263 148 296.5 c 128,-1,44
 165 330 165 330 178.5 356 c 128,-1,45
 192 382 192 382 199 395 c 0,46,47
 205 408 205 408 216.5 427.5 c 128,-1,48
 228 447 228 447 239 465 c 128,-1,49
 250 483 250 483 258.5 496 c 128,-1,50
 267 509 267 509 268 509 c 2,51,-1
 297 509 l 1,52,53
 307 480 307 480 295.5 455 c 128,-1,54
 284 430 284 430 268.5 406.5 c 128,-1,55
 253 383 253 383 242 359.5 c 128,-1,56
 231 336 231 336 241 310 c 1,57,58
 322 382 322 382 374 424 c 128,-1,59
 426 466 426 466 456.5 485 c 128,-1,60
 487 504 487 504 499 502 c 128,-1,61
 511 500 511 500 511.5 482.5 c 128,-1,62
 512 465 512 465 505 435 c 128,-1,63
 498 405 498 405 490.5 368.5 c 128,-1,64
 483 332 483 332 478.5 291.5 c 128,-1,65
 474 251 474 251 480 212 c 1,66,-1
 495 212 l 1,67,68
 502 217 502 217 520 231 c 128,-1,69
 538 245 538 245 558.5 261 c 128,-1,70
 579 277 579 277 597 291 c 128,-1,71
 615 305 615 305 622 310 c 0,72,73
 636 321 636 321 662.5 341.5 c 128,-1,74
 689 362 689 362 716 382 c 128,-1,75
 743 402 743 402 765 418.5 c 128,-1,76
 787 435 787 435 792 438 c 0,77,78
 797 442 797 442 814 453.5 c 128,-1,79
 831 465 831 465 851.5 478.5 c 128,-1,80
 872 492 872 492 891 504.5 c 128,-1,81
 910 517 910 517 919 522 c 0,82,83
 938 534 938 534 954 533 c 128,-1,84
 970 532 970 532 980.5 521.5 c 128,-1,85
 991 511 991 511 993.5 492.5 c 128,-1,86
 996 474 996 474 989 452 c 1,87,88
 959 395 959 395 929 341.5 c 128,-1,89
 899 288 899 288 875 233.5 c 128,-1,90
 851 179 851 179 835.5 121.5 c 128,-1,91
 820 64 820 64 819 0 c 1,92,93
 813 -4 813 -4 806 0 c 128,-1,94
 799 4 799 4 792.5 10 c 128,-1,95
 786 16 786 16 781.5 22.5 c 128,-1,96
 777 29 777 29 777 29 c 1,0,1
EndSplineSet
EndChar

StartChar: n
Encoding: 110 110 81
Width: 720
Flags: W
LayerCount: 2
Fore
SplineSet
487 14 m 0,0,1
 483 55 483 55 494 95.5 c 128,-1,2
 505 136 505 136 523 175.5 c 128,-1,3
 541 215 541 215 561.5 254.5 c 128,-1,4
 582 294 582 294 597.5 332 c 128,-1,5
 613 370 613 370 619 407 c 128,-1,6
 625 444 625 444 614 480 c 1,7,8
 582 491 582 491 541.5 474.5 c 128,-1,9
 501 458 501 458 456 425 c 128,-1,10
 411 392 411 392 363 347.5 c 128,-1,11
 315 303 315 303 269.5 257.5 c 128,-1,12
 224 212 224 212 182.5 171 c 128,-1,13
 141 130 141 130 107.5 103 c 128,-1,14
 74 76 74 76 51.5 69 c 128,-1,15
 29 62 29 62 22 85 c 0,16,17
 22 86 22 86 30.5 104 c 128,-1,18
 39 122 39 122 53.5 151.5 c 128,-1,19
 68 181 68 181 87 218 c 128,-1,20
 106 255 106 255 126.5 294 c 128,-1,21
 147 333 147 333 167 371 c 128,-1,22
 187 409 187 409 203.5 439 c 128,-1,23
 220 469 220 469 232 488 c 128,-1,24
 244 507 244 507 248 509 c 1,25,26
 273 492 273 492 274 471.5 c 128,-1,27
 275 451 275 451 267.5 428.5 c 128,-1,28
 260 406 260 406 251 383.5 c 128,-1,29
 242 361 242 361 248 339 c 1,30,31
 269 353 269 353 304 377.5 c 128,-1,32
 339 402 339 402 381.5 428 c 128,-1,33
 424 454 424 454 469 478.5 c 128,-1,34
 514 503 514 503 554.5 518 c 128,-1,35
 595 533 595 533 626.5 534 c 128,-1,36
 658 535 658 535 673 515 c 128,-1,37
 688 495 688 495 682.5 449.5 c 128,-1,38
 677 404 677 404 643 325 c 0,39,40
 641 319 641 319 633 301.5 c 128,-1,41
 625 284 625 284 615 261 c 128,-1,42
 605 238 605 238 593.5 212 c 128,-1,43
 582 186 582 186 571.5 163 c 128,-1,44
 561 140 561 140 553.5 122.5 c 128,-1,45
 546 105 546 105 544 99 c 0,46,47
 542 94 542 94 540.5 80.5 c 128,-1,48
 539 67 539 67 536 51.5 c 128,-1,49
 533 36 533 36 528 21.5 c 128,-1,50
 523 7 523 7 516 0 c 0,51,52
 512 -4 512 -4 507.5 -2.5 c 128,-1,53
 503 -1 503 -1 498.5 2 c 128,-1,54
 494 5 494 5 491 8.5 c 128,-1,55
 488 12 488 12 487 14 c 0,0,1
EndSplineSet
EndChar

StartChar: o
Encoding: 111 111 82
Width: 537
Flags: W
LayerCount: 2
Fore
SplineSet
99 14 m 0,0,1
 47 35 47 35 34 77.5 c 128,-1,2
 21 120 21 120 34.5 172.5 c 128,-1,3
 48 225 48 225 81.5 280 c 128,-1,4
 115 335 115 335 156 381.5 c 128,-1,5
 197 428 197 428 239 459.5 c 128,-1,6
 281 491 281 491 311 495 c 0,7,8
 389 505 389 505 433 484.5 c 128,-1,9
 477 464 477 464 493.5 425 c 128,-1,10
 510 386 510 386 502.5 334.5 c 128,-1,11
 495 283 495 283 469.5 230 c 128,-1,12
 444 177 444 177 403.5 128.5 c 128,-1,13
 363 80 363 80 313.5 47.5 c 128,-1,14
 264 15 264 15 209 3.5 c 128,-1,15
 154 -8 154 -8 99 14 c 0,0,1
85 85 m 0,16,17
 93 53 93 53 116 44 c 128,-1,18
 139 35 139 35 170.5 44.5 c 128,-1,19
 202 54 202 54 239 77.5 c 128,-1,20
 276 101 276 101 312 133 c 128,-1,21
 348 165 348 165 380.5 203 c 128,-1,22
 413 241 413 241 435 277.5 c 128,-1,23
 457 314 457 314 466 347 c 128,-1,24
 475 380 475 380 464.5 403.5 c 128,-1,25
 454 427 454 427 421 437 c 128,-1,26
 388 447 388 447 326 438 c 1,27,28
 308 422 308 422 281 398.5 c 128,-1,29
 254 375 254 375 224 347.5 c 128,-1,30
 194 320 194 320 165.5 288 c 128,-1,31
 137 256 137 256 116 222.5 c 128,-1,32
 95 189 95 189 85.5 154 c 128,-1,33
 76 119 76 119 85 85 c 0,16,17
EndSplineSet
EndChar

StartChar: p
Encoding: 112 112 83
Width: 678
Flags: W
LayerCount: 2
Fore
SplineSet
-113 -437 m 0,0,1
 -121 -390 -121 -390 -114.5 -342.5 c 128,-1,2
 -108 -295 -108 -295 -93 -247.5 c 128,-1,3
 -78 -200 -78 -200 -58 -152.5 c 128,-1,4
 -38 -105 -38 -105 -18 -58 c 128,-1,5
 2 -11 2 -11 18.5 35.5 c 128,-1,6
 35 82 35 82 43 128 c 0,7,8
 43 130 43 130 53.5 142.5 c 128,-1,9
 64 155 64 155 77 169.5 c 128,-1,10
 90 184 90 184 101 196.5 c 128,-1,11
 112 209 112 209 113 212 c 0,12,13
 134 256 134 256 154 293 c 128,-1,14
 174 330 174 330 185.5 364.5 c 128,-1,15
 197 399 197 399 195.5 434 c 128,-1,16
 194 469 194 469 170 509 c 0,17,18
 168 511 168 511 168 516 c 128,-1,19
 168 521 168 521 170 523 c 0,20,21
 207 569 207 569 254.5 600.5 c 128,-1,22
 302 632 302 632 355.5 650.5 c 128,-1,23
 409 669 409 669 466 675.5 c 128,-1,24
 523 682 523 682 580 678 c 1,25,26
 628 638 628 638 641 587 c 128,-1,27
 654 536 654 536 642 481.5 c 128,-1,28
 630 427 630 427 598 372.5 c 128,-1,29
 566 318 566 318 525 270 c 128,-1,30
 484 222 484 222 438 185 c 128,-1,31
 392 148 392 148 353 128 c 0,32,33
 317 110 317 110 299.5 104.5 c 128,-1,34
 282 99 282 99 266.5 97.5 c 128,-1,35
 251 96 251 96 227.5 95 c 128,-1,36
 204 94 204 94 156 85 c 0,37,38
 135 81 135 81 121 65.5 c 128,-1,39
 107 50 107 50 97.5 30.5 c 128,-1,40
 88 11 88 11 82 -9 c 128,-1,41
 76 -29 76 -29 71 -42 c 0,42,43
 49 -97 49 -97 30.5 -144 c 128,-1,44
 12 -191 12 -191 -4.5 -237 c 128,-1,45
 -21 -283 -21 -283 -37 -331.5 c 128,-1,46
 -53 -380 -53 -380 -71 -437 c 1,47,48
 -74 -443 -74 -443 -80 -447.5 c 128,-1,49
 -86 -452 -86 -452 -93 -453 c 128,-1,50
 -100 -454 -100 -454 -106 -450.5 c 128,-1,51
 -112 -447 -112 -447 -113 -437 c 0,0,1
170 141 m 1,52,53
 228 130 228 130 282 147.5 c 128,-1,54
 336 165 336 165 383.5 202 c 128,-1,55
 431 239 431 239 469 291 c 128,-1,56
 507 343 507 343 533.5 400 c 128,-1,57
 560 457 560 457 572.5 515 c 128,-1,58
 585 573 585 573 580 622 c 1,59,60
 563 637 563 637 538.5 637.5 c 128,-1,61
 514 638 514 638 495 636 c 0,62,63
 427 627 427 627 388.5 601.5 c 128,-1,64
 350 576 350 576 325.5 537 c 128,-1,65
 301 498 301 498 283.5 447.5 c 128,-1,66
 266 397 266 397 241 339 c 1,67,68
 236 330 236 330 226 308 c 128,-1,69
 216 286 216 286 204.5 261.5 c 128,-1,70
 193 237 193 237 183.5 215 c 128,-1,71
 174 193 174 193 170 184 c 1,72,-1
 170 141 l 1,52,53
EndSplineSet
EndChar

StartChar: q
Encoding: 113 113 84
Width: 495
Flags: W
LayerCount: 2
Fore
SplineSet
78 -437 m 0,0,1
 42 -401 42 -401 36 -352 c 128,-1,2
 30 -303 30 -303 40 -250 c 128,-1,3
 50 -197 50 -197 70 -146 c 128,-1,4
 90 -95 90 -95 106 -56 c 0,5,6
 132 6 132 6 139 43 c 128,-1,7
 146 80 146 80 141 100.5 c 128,-1,8
 136 121 136 121 121.5 128 c 128,-1,9
 107 135 107 135 89.5 138 c 128,-1,10
 72 141 72 141 55 144 c 128,-1,11
 38 147 38 147 28.5 157.5 c 128,-1,12
 19 168 19 168 19 190 c 128,-1,13
 19 212 19 212 36 255 c 0,14,15
 43 273 43 273 72.5 311.5 c 128,-1,16
 102 350 102 350 144 393 c 128,-1,17
 186 436 186 436 235 475 c 128,-1,18
 284 514 284 514 328.5 533.5 c 128,-1,19
 373 553 373 553 408.5 543.5 c 128,-1,20
 444 534 444 534 460 480 c 0,21,22
 463 470 463 470 460 452.5 c 128,-1,23
 457 435 457 435 451.5 416 c 128,-1,24
 446 397 446 397 440 379.5 c 128,-1,25
 434 362 434 362 431 353 c 0,26,27
 421 327 421 327 397 288.5 c 128,-1,28
 373 250 373 250 341 203.5 c 128,-1,29
 309 157 309 157 272.5 104.5 c 128,-1,30
 236 52 236 52 202.5 -3 c 128,-1,31
 169 -58 169 -58 141 -113 c 128,-1,32
 113 -168 113 -168 97.5 -219 c 128,-1,33
 82 -270 82 -270 82.5 -315 c 128,-1,34
 83 -360 83 -360 106 -395 c 0,35,36
 111 -403 111 -403 131.5 -391 c 128,-1,37
 152 -379 152 -379 181.5 -355 c 128,-1,38
 211 -331 211 -331 248 -298 c 128,-1,39
 285 -265 285 -265 323.5 -232 c 128,-1,40
 362 -199 362 -199 400 -169 c 128,-1,41
 438 -139 438 -139 470 -120 c 128,-1,42
 502 -101 502 -101 525 -97.5 c 128,-1,43
 548 -94 548 -94 558 -113 c 0,44,45
 560 -115 560 -115 560 -120 c 128,-1,46
 560 -125 560 -125 558 -127 c 0,47,48
 539 -141 539 -141 502 -175 c 128,-1,49
 465 -209 465 -209 419 -250.5 c 128,-1,50
 373 -292 373 -292 321.5 -334 c 128,-1,51
 270 -376 270 -376 223 -406 c 128,-1,52
 176 -436 176 -436 137.5 -447 c 128,-1,53
 99 -458 99 -458 78 -437 c 0,0,1
92 226 m 0,54,55
 91 223 91 223 90.5 215 c 128,-1,56
 90 207 90 207 90 198 c 128,-1,57
 90 189 90 189 90.5 181 c 128,-1,58
 91 173 91 173 92 170 c 1,59,60
 125 159 125 159 157.5 176 c 128,-1,61
 190 193 190 193 221 223.5 c 128,-1,62
 252 254 252 254 280.5 292.5 c 128,-1,63
 309 331 309 331 334 362.5 c 128,-1,64
 359 394 359 394 380 413 c 128,-1,65
 401 432 401 432 417 424 c 1,66,67
 426 459 426 459 417.5 472.5 c 128,-1,68
 409 486 409 486 389 483 c 128,-1,69
 369 480 369 480 340 463.5 c 128,-1,70
 311 447 311 447 279.5 423.5 c 128,-1,71
 248 400 248 400 216 371.5 c 128,-1,72
 184 343 184 343 158 315 c 128,-1,73
 132 287 132 287 114 263.5 c 128,-1,74
 96 240 96 240 92 226 c 0,54,55
EndSplineSet
EndChar

StartChar: r
Encoding: 114 114 85
Width: 607
Flags: W
LayerCount: 2
Fore
SplineSet
36 14 m 0,0,1
 34 15 34 15 37 43.5 c 128,-1,2
 40 72 40 72 46.5 114.5 c 128,-1,3
 53 157 53 157 62.5 208 c 128,-1,4
 72 259 72 259 83.5 305.5 c 128,-1,5
 95 352 95 352 108 388.5 c 128,-1,6
 121 425 121 425 134 438 c 0,7,8
 143 447 143 447 151.5 438.5 c 128,-1,9
 160 430 160 430 168.5 418 c 128,-1,10
 177 406 177 406 186 397 c 128,-1,11
 195 388 195 388 205 395 c 1,12,13
 240 444 240 444 282 488.5 c 128,-1,14
 324 533 324 533 375 565 c 0,15,16
 380 569 380 569 402.5 577 c 128,-1,17
 425 585 425 585 454 593 c 128,-1,18
 483 601 483 601 513.5 607 c 128,-1,19
 544 613 544 613 565.5 612 c 128,-1,20
 587 611 587 611 595 600.5 c 128,-1,21
 603 590 603 590 587 565 c 1,22,23
 531 564 531 564 480.5 539.5 c 128,-1,24
 430 515 430 515 385 475 c 128,-1,25
 340 435 340 435 300.5 384 c 128,-1,26
 261 333 261 333 228 280.5 c 128,-1,27
 195 228 195 228 167.5 177.5 c 128,-1,28
 140 127 140 127 119.5 87.5 c 128,-1,29
 99 48 99 48 84.5 24 c 128,-1,30
 70 0 70 0 63 0 c 0,31,32
 61 0 61 0 51 5.5 c 128,-1,33
 41 11 41 11 36 14 c 0,0,1
EndSplineSet
EndChar

StartChar: s
Encoding: 115 115 86
Width: 495
Flags: W
LayerCount: 2
Fore
SplineSet
36 14 m 0,0,1
 21 24 21 24 35.5 40.5 c 128,-1,2
 50 57 50 57 82 77 c 128,-1,3
 114 97 114 97 156 118 c 128,-1,4
 198 139 198 139 237.5 157.5 c 128,-1,5
 277 176 277 176 307.5 190.5 c 128,-1,6
 338 205 338 205 346 212 c 0,7,8
 379 240 379 240 386.5 260.5 c 128,-1,9
 394 281 394 281 383.5 295 c 128,-1,10
 373 309 373 309 347.5 318 c 128,-1,11
 322 327 322 327 290 333.5 c 128,-1,12
 258 340 258 340 222 345 c 128,-1,13
 186 350 186 350 154.5 356 c 128,-1,14
 123 362 123 362 100 370 c 128,-1,15
 77 378 77 378 69 391 c 128,-1,16
 61 404 61 404 72 422 c 128,-1,17
 83 440 83 440 121 466 c 0,18,19
 139 479 139 479 173 502.5 c 128,-1,20
 207 526 207 526 246.5 551 c 128,-1,21
 286 576 286 576 324.5 596 c 128,-1,22
 363 616 363 616 389 622 c 0,23,24
 402 625 402 625 416.5 619.5 c 128,-1,25
 431 614 431 614 440 605 c 128,-1,26
 449 596 449 596 448 585 c 128,-1,27
 447 574 447 574 431 565 c 0,28,29
 361 526 361 526 295 490.5 c 128,-1,30
 229 455 229 455 163 410 c 1,31,32
 158 400 158 400 164 392.5 c 128,-1,33
 170 385 170 385 177 381 c 1,34,35
 284 370 284 370 347.5 351.5 c 128,-1,36
 411 333 411 333 440 310.5 c 128,-1,37
 469 288 469 288 469 262 c 128,-1,38
 469 236 469 236 448.5 209.5 c 128,-1,39
 428 183 428 183 391.5 157 c 128,-1,40
 355 131 355 131 311.5 107.5 c 128,-1,41
 268 84 268 84 222 64.5 c 128,-1,42
 176 45 176 45 137 32.5 c 128,-1,43
 98 20 98 20 70.5 14.5 c 128,-1,44
 43 9 43 9 36 14 c 0,0,1
EndSplineSet
EndChar

StartChar: t
Encoding: 116 116 87
Width: 537
Flags: W
LayerCount: 2
Fore
SplineSet
114 14 m 1,0,1
 112 17 112 17 112 28 c 128,-1,2
 112 39 112 39 114 42 c 1,3,4
 118 56 118 56 127.5 90.5 c 128,-1,5
 137 125 137 125 148.5 163 c 128,-1,6
 160 201 160 201 170 235 c 128,-1,7
 180 269 180 269 184 283 c 0,8,9
 189 300 189 300 195.5 323.5 c 128,-1,10
 202 347 202 347 198 368 c 1,11,12
 179 370 179 370 152 363 c 128,-1,13
 125 356 125 356 97.5 352 c 128,-1,14
 70 348 70 348 47 352 c 128,-1,15
 24 356 24 356 14 381 c 1,16,17
 23 402 23 402 40.5 412.5 c 128,-1,18
 58 423 58 423 79 428 c 128,-1,19
 100 433 100 433 123.5 435 c 128,-1,20
 147 437 147 437 169 441 c 128,-1,21
 191 445 191 445 210 453.5 c 128,-1,22
 229 462 229 462 241 480 c 1,23,24
 253 512 253 512 268 559 c 128,-1,25
 283 606 283 606 301 657 c 128,-1,26
 319 708 319 708 339.5 758.5 c 128,-1,27
 360 809 360 809 382 848 c 1,28,29
 396 857 396 857 404.5 849 c 128,-1,30
 413 841 413 841 418 826.5 c 128,-1,31
 423 812 423 812 424 797 c 128,-1,32
 425 782 425 782 424 777 c 0,33,34
 416 744 416 744 398 707.5 c 128,-1,35
 380 671 380 671 364 633 c 128,-1,36
 348 595 348 595 339 558 c 128,-1,37
 330 521 330 521 339 487 c 1,38,-1
 607 487 l 2,39,40
 609 487 609 487 614 479 c 128,-1,41
 619 471 619 471 622 466 c 0,42,43
 629 449 629 449 609 443 c 128,-1,44
 589 437 589 437 555 435 c 128,-1,45
 521 433 521 433 478.5 432 c 128,-1,46
 436 431 436 431 396 426 c 128,-1,47
 356 421 356 421 325 408 c 128,-1,48
 294 395 294 395 283 368 c 0,49,50
 250 283 250 283 222.5 198.5 c 128,-1,51
 195 114 195 114 170 29 c 1,52,53
 167 24 167 24 159.5 16 c 128,-1,54
 152 8 152 8 143.5 2.5 c 128,-1,55
 135 -3 135 -3 126.5 -1.5 c 128,-1,56
 118 0 118 0 114 14 c 1,0,1
EndSplineSet
EndChar

StartChar: u
Encoding: 117 117 88
Width: 720
Flags: W
LayerCount: 2
Fore
SplineSet
538 14 m 1,0,1
 503 27 503 27 483 50 c 128,-1,2
 463 73 463 73 452 101.5 c 128,-1,3
 441 130 441 130 435.5 162 c 128,-1,4
 430 194 430 194 424 226 c 1,5,6
 415 232 415 232 396.5 220 c 128,-1,7
 378 208 378 208 353 187.5 c 128,-1,8
 328 167 328 167 298 140.5 c 128,-1,9
 268 114 268 114 236.5 90.5 c 128,-1,10
 205 67 205 67 174 49.5 c 128,-1,11
 143 32 143 32 115 29.5 c 128,-1,12
 87 27 87 27 65 42 c 128,-1,13
 43 57 43 57 29 99 c 0,14,15
 22 118 22 118 33 153 c 128,-1,16
 44 188 44 188 65.5 231 c 128,-1,17
 87 274 87 274 114.5 319.5 c 128,-1,18
 142 365 142 365 169.5 404.5 c 128,-1,19
 197 444 197 444 220 472 c 128,-1,20
 243 500 243 500 255 509 c 1,21,22
 284 495 284 495 281 467 c 128,-1,23
 278 439 278 439 258 403 c 128,-1,24
 238 367 238 367 207.5 325.5 c 128,-1,25
 177 284 177 284 150.5 243 c 128,-1,26
 124 202 124 202 107.5 164.5 c 128,-1,27
 91 127 91 127 99 99 c 1,28,29
 119 91 119 91 147.5 102 c 128,-1,30
 176 113 176 113 209 137.5 c 128,-1,31
 242 162 242 162 278.5 196.5 c 128,-1,32
 315 231 315 231 350.5 269.5 c 128,-1,33
 386 308 386 308 420 346.5 c 128,-1,34
 454 385 454 385 482.5 418.5 c 128,-1,35
 511 452 511 452 532.5 476 c 128,-1,36
 554 500 554 500 565 509 c 1,37,38
 591 496 591 496 591 468 c 128,-1,39
 591 440 591 440 577 403.5 c 128,-1,40
 563 367 563 367 542 325 c 128,-1,41
 521 283 521 283 506 242 c 128,-1,42
 491 201 491 201 488.5 163.5 c 128,-1,43
 486 126 486 126 509 99 c 2,44,-1
 551 49 l 1,45,-1
 678 49 l 2,46,47
 687 49 687 49 681.5 41.5 c 128,-1,48
 676 34 676 34 666.5 25 c 128,-1,49
 657 16 657 16 647 8 c 128,-1,50
 637 0 637 0 636 0 c 0,51,52
 620 -3 620 -3 608 -3 c 128,-1,53
 596 -3 596 -3 584.5 -1 c 128,-1,54
 573 1 573 1 562 4.5 c 128,-1,55
 551 8 551 8 538 14 c 1,0,1
EndSplineSet
EndChar

StartChar: v
Encoding: 118 118 89
Width: 664
Flags: W
LayerCount: 2
Fore
SplineSet
71 29 m 0,0,1
 45 44 45 44 33.5 76.5 c 128,-1,2
 22 109 22 109 20.5 150 c 128,-1,3
 19 191 19 191 25.5 236.5 c 128,-1,4
 32 282 32 282 40.5 324 c 128,-1,5
 49 366 49 366 58 400 c 128,-1,6
 67 434 67 434 71 452 c 1,7,8
 77 456 77 456 84.5 452 c 128,-1,9
 92 448 92 448 98.5 442 c 128,-1,10
 105 436 105 436 109.5 430 c 128,-1,11
 114 424 114 424 114 424 c 1,12,13
 117 380 117 380 114.5 338.5 c 128,-1,14
 112 297 112 297 107.5 255.5 c 128,-1,15
 103 214 103 214 99.5 171.5 c 128,-1,16
 96 129 96 129 99 85 c 1,17,18
 107 70 107 70 129 79 c 128,-1,19
 151 88 151 88 183 114 c 128,-1,20
 215 140 215 140 254 178.5 c 128,-1,21
 293 217 293 217 335 261 c 128,-1,22
 377 305 377 305 419 350 c 128,-1,23
 461 395 461 395 499 434 c 128,-1,24
 537 473 537 473 568 502 c 128,-1,25
 599 531 599 531 618.5 542.5 c 128,-1,26
 638 554 638 554 643.5 544 c 128,-1,27
 649 534 649 534 636 495 c 1,28,29
 613 475 613 475 584 440 c 128,-1,30
 555 405 555 405 521.5 362.5 c 128,-1,31
 488 320 488 320 450.5 273 c 128,-1,32
 413 226 413 226 374 182.5 c 128,-1,33
 335 139 335 139 295 102 c 128,-1,34
 255 65 255 65 216 42.5 c 128,-1,35
 177 20 177 20 140.5 14.5 c 128,-1,36
 104 9 104 9 71 29 c 0,0,1
EndSplineSet
EndChar

StartChar: w
Encoding: 119 119 90
Width: 932
Flags: W
LayerCount: 2
Fore
SplineSet
417 14 m 0,0,1
 393 32 393 32 379 62 c 128,-1,2
 365 92 365 92 358 126 c 128,-1,3
 351 160 351 160 349 194 c 128,-1,4
 347 228 347 228 346 254 c 1,5,6
 344 256 344 256 339 256 c 128,-1,7
 334 256 334 256 332 254 c 0,8,9
 301 231 301 231 272 200.5 c 128,-1,10
 243 170 243 170 215.5 137 c 128,-1,11
 188 104 188 104 160.5 72 c 128,-1,12
 133 40 133 40 106 14 c 1,13,14
 89 8 89 8 70.5 10.5 c 128,-1,15
 52 13 52 13 38.5 22.5 c 128,-1,16
 25 32 25 32 19 48 c 128,-1,17
 13 64 13 64 22 85 c 1,18,19
 46 161 46 161 74.5 246.5 c 128,-1,20
 103 332 103 332 134 410 c 0,21,22
 145 438 145 438 158.5 440.5 c 128,-1,23
 172 443 172 443 181.5 430.5 c 128,-1,24
 191 418 191 418 195 396 c 128,-1,25
 199 374 199 374 191 353 c 0,26,27
 187 343 187 343 177 317 c 128,-1,28
 167 291 167 291 155.5 261.5 c 128,-1,29
 144 232 144 232 134.5 206 c 128,-1,30
 125 180 125 180 121 170 c 1,31,-1
 121 127 l 1,32,33
 160 162 160 162 186.5 190 c 128,-1,34
 213 218 213 218 236 246 c 128,-1,35
 259 274 259 274 284 305.5 c 128,-1,36
 309 337 309 337 346 381 c 0,37,38
 374 414 374 414 390.5 417.5 c 128,-1,39
 407 421 407 421 415 404 c 128,-1,40
 423 387 423 387 425 355.5 c 128,-1,41
 427 324 427 324 425.5 287 c 128,-1,42
 424 250 424 250 422 213.5 c 128,-1,43
 420 177 420 177 420.5 150 c 128,-1,44
 421 123 421 123 426.5 111.5 c 128,-1,45
 432 100 432 100 445 113 c 1,46,47
 460 136 460 136 488.5 181.5 c 128,-1,48
 517 227 517 227 553.5 281 c 128,-1,49
 590 335 590 335 633 391 c 128,-1,50
 676 447 676 447 721 491 c 128,-1,51
 766 535 766 535 811 560.5 c 128,-1,52
 856 586 856 586 897 580 c 1,53,54
 899 574 899 574 883 552 c 128,-1,55
 867 530 867 530 841.5 499.5 c 128,-1,56
 816 469 816 469 785 433.5 c 128,-1,57
 754 398 754 398 725.5 365 c 128,-1,58
 697 332 697 332 674 306 c 128,-1,59
 651 280 651 280 643 268 c 0,60,61
 639 263 639 263 627.5 245.5 c 128,-1,62
 616 228 616 228 600 205 c 128,-1,63
 584 182 584 182 566 156 c 128,-1,64
 548 130 548 130 532 106.5 c 128,-1,65
 516 83 516 83 503.5 65.5 c 128,-1,66
 491 48 491 48 487 42 c 0,67,68
 476 26 476 26 468.5 16 c 128,-1,69
 461 6 461 6 454 2.5 c 128,-1,70
 447 -1 447 -1 438.5 1.5 c 128,-1,71
 430 4 430 4 417 14 c 0,0,1
EndSplineSet
EndChar

StartChar: x
Encoding: 120 120 91
Width: 629
Flags: W
LayerCount: 2
Fore
SplineSet
22 29 m 0,0,1
 10 46 10 46 26.5 68.5 c 128,-1,2
 43 91 43 91 74.5 116.5 c 128,-1,3
 106 142 106 142 145.5 170 c 128,-1,4
 185 198 185 198 218.5 225.5 c 128,-1,5
 252 253 252 253 273.5 278.5 c 128,-1,6
 295 304 295 304 290 325 c 0,7,8
 289 331 289 331 282.5 353.5 c 128,-1,9
 276 376 276 376 269 402.5 c 128,-1,10
 262 429 262 429 255.5 451.5 c 128,-1,11
 249 474 249 474 248 480 c 0,12,13
 247 483 247 483 247 494 c 128,-1,14
 247 505 247 505 248 509 c 1,15,16
 259 517 259 517 269.5 510 c 128,-1,17
 280 503 280 503 290 487 c 128,-1,18
 300 471 300 471 309.5 450 c 128,-1,19
 319 429 319 429 328 409 c 128,-1,20
 337 389 337 389 345 373.5 c 128,-1,21
 353 358 353 358 360 353 c 1,22,23
 382 368 382 368 408 388.5 c 128,-1,24
 434 409 434 409 459 431 c 128,-1,25
 484 453 484 453 506.5 473.5 c 128,-1,26
 529 494 529 494 544 509 c 1,27,28
 570 522 570 522 580.5 520 c 128,-1,29
 591 518 591 518 591.5 507 c 128,-1,30
 592 496 592 496 584.5 479.5 c 128,-1,31
 577 463 577 463 568.5 447.5 c 128,-1,32
 560 432 560 432 552 421 c 128,-1,33
 544 410 544 410 544 410 c 1,34,35
 478 350 478 350 443 308 c 128,-1,36
 408 266 408 266 394.5 237.5 c 128,-1,37
 381 209 381 209 385 191 c 128,-1,38
 389 173 389 173 402 161 c 128,-1,39
 415 149 415 149 432.5 140.5 c 128,-1,40
 450 132 450 132 463 121.5 c 128,-1,41
 476 111 476 111 481 96 c 128,-1,42
 486 81 486 81 473 56 c 1,43,44
 439 48 439 48 420 59.5 c 128,-1,45
 401 71 401 71 389 92 c 128,-1,46
 377 113 377 113 368.5 138 c 128,-1,47
 360 163 360 163 348 181 c 128,-1,48
 336 199 336 199 317 204.5 c 128,-1,49
 298 210 298 210 264 193 c 128,-1,50
 230 176 230 176 178.5 130.5 c 128,-1,51
 127 85 127 85 50 0 c 1,52,53
 48 1 48 1 44 5 c 128,-1,54
 40 9 40 9 35.5 13.5 c 128,-1,55
 31 18 31 18 27 22.5 c 128,-1,56
 23 27 23 27 22 29 c 0,0,1
EndSplineSet
EndChar

StartChar: y
Encoding: 121 121 92
Width: 551
Flags: W
LayerCount: 2
Fore
SplineSet
-212 -480 m 0,0,1
 -224 -462 -224 -462 -212 -426 c 128,-1,2
 -200 -390 -200 -390 -178.5 -350 c 128,-1,3
 -157 -310 -157 -310 -133.5 -275.5 c 128,-1,4
 -110 -241 -110 -241 -99 -226 c 0,5,6
 -89 -213 -89 -213 -68 -185 c 128,-1,7
 -47 -157 -47 -157 -20.5 -122.5 c 128,-1,8
 6 -88 6 -88 35 -49.5 c 128,-1,9
 64 -11 64 -11 90.5 24 c 128,-1,10
 117 59 117 59 138 86.5 c 128,-1,11
 159 114 159 114 169 127 c 1,12,13
 179 138 179 138 168.5 162 c 128,-1,14
 158 186 158 186 137.5 218 c 128,-1,15
 117 250 117 250 91.5 288 c 128,-1,16
 66 326 66 326 45.5 365.5 c 128,-1,17
 25 405 25 405 14.5 443.5 c 128,-1,18
 4 482 4 482 14 516 c 1,19,20
 27 526 27 526 44 504 c 128,-1,21
 61 482 61 482 79 444 c 128,-1,22
 97 406 97 406 116.5 360.5 c 128,-1,23
 136 315 136 315 155 278 c 128,-1,24
 174 241 174 241 192 220 c 128,-1,25
 210 199 210 199 226 211 c 0,26,27
 258 235 258 235 289.5 272 c 128,-1,28
 321 309 321 309 349.5 349 c 128,-1,29
 378 389 378 389 404 427.5 c 128,-1,30
 430 466 430 466 452 494 c 0,31,32
 461 505 461 505 469.5 509.5 c 128,-1,33
 478 514 478 514 495 508 c 0,34,35
 506 504 506 504 496 478.5 c 128,-1,36
 486 453 486 453 460.5 410.5 c 128,-1,37
 435 368 435 368 397 312 c 128,-1,38
 359 256 359 256 313.5 193 c 128,-1,39
 268 130 268 130 218 62 c 128,-1,40
 168 -6 168 -6 118.5 -72.5 c 128,-1,41
 69 -139 69 -139 23.5 -201.5 c 128,-1,42
 -22 -264 -22 -264 -59 -316.5 c 128,-1,43
 -96 -369 -96 -369 -121.5 -408 c 128,-1,44
 -147 -447 -147 -447 -156 -467 c 0,45,46
 -161 -478 -161 -478 -166.5 -489.5 c 128,-1,47
 -172 -501 -172 -501 -183 -509 c 1,48,49
 -185 -508 -185 -508 -189.5 -504 c 128,-1,50
 -194 -500 -194 -500 -198.5 -495.5 c 128,-1,51
 -203 -491 -203 -491 -207 -486.5 c 128,-1,52
 -211 -482 -211 -482 -212 -480 c 0,0,1
EndSplineSet
EndChar

StartChar: z
Encoding: 122 122 93
Width: 707
Flags: W
LayerCount: 2
Fore
SplineSet
50 14 m 0,0,1
 26 28 26 28 33.5 52.5 c 128,-1,2
 41 77 41 77 69 109 c 128,-1,3
 97 141 97 141 142 178.5 c 128,-1,4
 187 216 187 216 238.5 255.5 c 128,-1,5
 290 295 290 295 344 336 c 128,-1,6
 398 377 398 377 444.5 415.5 c 128,-1,7
 491 454 491 454 525 488.5 c 128,-1,8
 559 523 559 523 572 551 c 1,9,10
 569 567 569 567 546.5 569 c 128,-1,11
 524 571 524 571 493 566.5 c 128,-1,12
 462 562 462 562 427 555 c 128,-1,13
 392 548 392 548 365 547 c 128,-1,14
 338 546 338 546 323.5 555.5 c 128,-1,15
 309 565 309 565 318 593 c 0,16,17
 319 595 319 595 345 603.5 c 128,-1,18
 371 612 371 612 409.5 620.5 c 128,-1,19
 448 629 448 629 492.5 635.5 c 128,-1,20
 537 642 537 642 576 641 c 128,-1,21
 615 640 615 640 641.5 629 c 128,-1,22
 668 618 668 618 670.5 591.5 c 128,-1,23
 673 565 673 565 644.5 521 c 128,-1,24
 616 477 616 477 544 410 c 0,25,26
 539 405 539 405 522.5 390 c 128,-1,27
 506 375 506 375 485.5 357 c 128,-1,28
 465 339 465 339 446 322 c 128,-1,29
 427 305 427 305 417 297 c 0,30,31
 409 290 409 290 386.5 273 c 128,-1,32
 364 256 364 256 336 234.5 c 128,-1,33
 308 213 308 213 278 189 c 128,-1,34
 248 165 248 165 224 144 c 128,-1,35
 200 123 200 123 186 107 c 128,-1,36
 172 91 172 91 177 85 c 1,37,38
 230 80 230 80 283 85.5 c 128,-1,39
 336 91 336 91 388.5 99 c 128,-1,40
 441 107 441 107 494 112.5 c 128,-1,41
 547 118 547 118 601 113 c 1,42,43
 607 109 607 109 614 103 c 128,-1,44
 621 97 621 97 626 89.5 c 128,-1,45
 631 82 631 82 632 73.5 c 128,-1,46
 633 65 633 65 629 56 c 1,47,48
 597 54 597 54 548.5 45.5 c 128,-1,49
 500 37 500 37 444.5 27 c 128,-1,50
 389 17 389 17 330.5 8 c 128,-1,51
 272 -1 272 -1 218.5 -5 c 128,-1,52
 165 -9 165 -9 120.5 -5.5 c 128,-1,53
 76 -2 76 -2 50 14 c 0,0,1
EndSplineSet
EndChar

StartChar: braceleft
Encoding: 123 123 94
Width: 339
Flags: W
LayerCount: 2
Fore
SplineSet
194 -59 m 0,0,1
 152 -44 152 -44 112 -7.5 c 128,-1,2
 72 29 72 29 47.5 75.5 c 128,-1,3
 23 122 23 122 20.5 172 c 128,-1,4
 18 222 18 222 53 265 c 0,5,6
 56 269 56 269 70.5 286 c 128,-1,7
 85 303 85 303 102 322 c 128,-1,8
 119 341 119 341 133.5 357.5 c 128,-1,9
 148 374 148 374 151 378 c 0,10,11
 167 397 167 397 167.5 410.5 c 128,-1,12
 168 424 168 424 160 434.5 c 128,-1,13
 152 445 152 445 139.5 453.5 c 128,-1,14
 127 462 127 462 117.5 471 c 128,-1,15
 108 480 108 480 104 491.5 c 128,-1,16
 100 503 100 503 109 519 c 0,17,18
 111 522 111 522 119.5 532.5 c 128,-1,19
 128 543 128 543 138 554.5 c 128,-1,20
 148 566 148 566 156 576.5 c 128,-1,21
 164 587 164 587 166 590 c 0,22,23
 180 622 180 622 172.5 654.5 c 128,-1,24
 165 687 165 687 150.5 719 c 128,-1,25
 136 751 136 751 122.5 782 c 128,-1,26
 109 813 109 813 112 843 c 128,-1,27
 115 873 115 873 142 902 c 128,-1,28
 169 931 169 931 236 958 c 0,29,30
 243 961 243 961 250 958 c 128,-1,31
 257 955 257 955 262 950 c 128,-1,32
 267 945 267 945 271 939 c 128,-1,33
 275 933 275 933 278 929 c 1,34,35
 267 915 267 915 243 899 c 128,-1,36
 219 883 219 883 197.5 864.5 c 128,-1,37
 176 846 176 846 164 823 c 128,-1,38
 152 800 152 800 166 773 c 2,39,-1
 236 632 l 2,40,41
 236 631 236 631 234.5 612.5 c 128,-1,42
 233 594 233 594 231.5 568 c 128,-1,43
 230 542 230 542 230.5 513 c 128,-1,44
 231 484 231 484 236 463 c 0,45,46
 245 427 245 427 239.5 402.5 c 128,-1,47
 234 378 234 378 220 359.5 c 128,-1,48
 206 341 206 341 187 325.5 c 128,-1,49
 168 310 168 310 149.5 294 c 128,-1,50
 131 278 131 278 116 257.5 c 128,-1,51
 101 237 101 237 95 209 c 0,52,53
 83 147 83 147 98 108 c 128,-1,54
 113 69 113 69 145 44 c 128,-1,55
 177 19 177 19 220 2.5 c 128,-1,56
 263 -14 263 -14 307 -32 c 0,57,58
 331 -41 331 -41 329 -51 c 128,-1,59
 327 -61 327 -61 307.5 -67 c 128,-1,60
 288 -73 288 -73 257.5 -72 c 128,-1,61
 227 -71 227 -71 194 -59 c 0,0,1
EndSplineSet
EndChar

StartChar: bar
Encoding: 124 124 95
Width: 141
Flags: W
LayerCount: 2
Fore
SplineSet
43 14 m 0,0,1
 41 17 41 17 35.5 28 c 128,-1,2
 30 39 30 39 29 42 c 1,3,4
 29 58 29 58 28.5 98.5 c 128,-1,5
 28 139 28 139 28 184 c 128,-1,6
 28 229 28 229 28.5 269 c 128,-1,7
 29 309 29 309 29 325 c 0,8,9
 29 335 29 335 30 365.5 c 128,-1,10
 31 396 31 396 32.5 436.5 c 128,-1,11
 34 477 34 477 35.5 523 c 128,-1,12
 37 569 37 569 38.5 609.5 c 128,-1,13
 40 650 40 650 41 680 c 128,-1,14
 42 710 42 710 43 720 c 0,15,16
 43 722 43 722 44.5 735 c 128,-1,17
 46 748 46 748 49.5 765 c 128,-1,18
 53 782 53 782 57.5 799 c 128,-1,19
 62 816 62 816 68.5 826.5 c 128,-1,20
 75 837 75 837 82.5 836.5 c 128,-1,21
 90 836 90 836 99 819 c 1,22,23
 102 718 102 718 99.5 617.5 c 128,-1,24
 97 517 97 517 93.5 416.5 c 128,-1,25
 90 316 90 316 86.5 215.5 c 128,-1,26
 83 115 83 115 85 14 c 1,27,28
 77 -3 77 -3 64.5 -1 c 128,-1,29
 52 1 52 1 43 14 c 0,0,1
EndSplineSet
EndChar

StartChar: braceright
Encoding: 125 125 96
Width: 375
Flags: W
LayerCount: 2
Fore
SplineSet
82 -71 m 0,0,1
 78 -60 78 -60 93.5 -46 c 128,-1,2
 109 -32 109 -32 133 -13.5 c 128,-1,3
 157 5 157 5 185.5 27.5 c 128,-1,4
 214 50 214 50 237.5 76.5 c 128,-1,5
 261 103 261 103 274 133 c 128,-1,6
 287 163 287 163 280 197 c 0,7,8
 274 225 274 225 257 248.5 c 128,-1,9
 240 272 240 272 218 293 c 128,-1,10
 196 314 196 314 174 334.5 c 128,-1,11
 152 355 152 355 136.5 377 c 128,-1,12
 121 399 121 399 116 424 c 128,-1,13
 111 449 111 449 124 480 c 1,14,15
 96 537 96 537 89.5 566 c 128,-1,16
 83 595 83 595 89.5 608.5 c 128,-1,17
 96 622 96 622 111 627 c 128,-1,18
 126 632 126 632 141.5 642.5 c 128,-1,19
 157 653 157 653 169 676 c 128,-1,20
 181 699 181 699 181 748 c 0,21,22
 181 773 181 773 166.5 796.5 c 128,-1,23
 152 820 152 820 131 841.5 c 128,-1,24
 110 863 110 863 86.5 883.5 c 128,-1,25
 63 904 63 904 44 923.5 c 128,-1,26
 25 943 25 943 15 962.5 c 128,-1,27
 5 982 5 982 12 1002 c 1,28,-1
 53 1002 l 2,29,30
 56 1002 56 1002 74 985.5 c 128,-1,31
 92 969 92 969 114.5 946.5 c 128,-1,32
 137 924 137 924 159.5 900 c 128,-1,33
 182 876 182 876 195 861 c 0,34,35
 227 822 227 822 235 787.5 c 128,-1,36
 243 753 243 753 235.5 721 c 128,-1,37
 228 689 228 689 209 657.5 c 128,-1,38
 190 626 190 626 167 592 c 0,39,40
 163 586 163 586 157.5 575.5 c 128,-1,41
 152 565 152 565 153 564 c 2,42,-1
 223 493 l 2,43,44
 240 477 240 477 234.5 466 c 128,-1,45
 229 455 229 455 218 446.5 c 128,-1,46
 207 438 207 438 197 429.5 c 128,-1,47
 187 421 187 421 195 409 c 0,48,49
 210 387 210 387 232 363.5 c 128,-1,50
 254 340 254 340 276 315 c 128,-1,51
 298 290 298 290 315 264 c 128,-1,52
 332 238 332 238 336 210 c 1,53,54
 342 177 342 177 328 135.5 c 128,-1,55
 314 94 314 94 289 53.5 c 128,-1,56
 264 13 264 13 232 -22.5 c 128,-1,57
 200 -58 200 -58 170 -78 c 128,-1,58
 140 -98 140 -98 115.5 -99 c 128,-1,59
 91 -100 91 -100 82 -71 c 0,0,1
EndSplineSet
EndChar

StartChar: asciitilde
Encoding: 126 126 97
Width: 664
Flags: W
LayerCount: 2
Fore
SplineSet
311 14 m 0,0,1
 278 34 278 34 262.5 69.5 c 128,-1,2
 247 105 247 105 238.5 139 c 128,-1,3
 230 173 230 173 223 196 c 128,-1,4
 216 219 216 219 200.5 214 c 128,-1,5
 185 209 185 209 155 167 c 128,-1,6
 125 125 125 125 71 29 c 1,7,8
 49 21 49 21 43 38.5 c 128,-1,9
 37 56 37 56 44 86 c 128,-1,10
 51 116 51 116 68 152.5 c 128,-1,11
 85 189 85 189 107.5 221 c 128,-1,12
 130 253 130 253 156.5 273.5 c 128,-1,13
 183 294 183 294 209 292 c 128,-1,14
 235 290 235 290 258 259 c 128,-1,15
 281 228 281 228 297 156 c 0,16,17
 309 103 309 103 329.5 82.5 c 128,-1,18
 350 62 350 62 376.5 63.5 c 128,-1,19
 403 65 403 65 435 83.5 c 128,-1,20
 467 102 467 102 500.5 126 c 128,-1,21
 534 150 534 150 568.5 174 c 128,-1,22
 603 198 603 198 636 212 c 1,23,24
 643 200 643 200 628.5 177 c 128,-1,25
 614 154 614 154 586 127 c 128,-1,26
 558 100 558 100 521 73.5 c 128,-1,27
 484 47 484 47 445.5 29 c 128,-1,28
 407 11 407 11 371 5 c 128,-1,29
 335 -1 335 -1 311 14 c 0,0,1
EndSplineSet
EndChar

StartChar: cent
Encoding: 162 162 99
Width: 699
Flags: W
LayerCount: 2
Fore
SplineSet
128 14 m 0,0,1
 64 35 64 35 43.5 80 c 128,-1,2
 23 125 23 125 32.5 181.5 c 128,-1,3
 42 238 42 238 75.5 301.5 c 128,-1,4
 109 365 109 365 155 422.5 c 128,-1,5
 201 480 201 480 252.5 526.5 c 128,-1,6
 304 573 304 573 349 596.5 c 128,-1,7
 394 620 394 620 426.5 615 c 128,-1,8
 459 610 459 610 467 565 c 0,9,10
 470 545 470 545 462 521 c 128,-1,11
 454 497 454 497 440 475 c 128,-1,12
 426 453 426 453 408 435 c 128,-1,13
 390 417 390 417 373.5 408 c 128,-1,14
 357 399 357 399 343.5 402 c 128,-1,15
 330 405 330 405 326 424 c 1,16,17
 341 450 341 450 359.5 474.5 c 128,-1,18
 378 499 378 499 396 522 c 1,19,20
 389 536 389 536 367.5 528.5 c 128,-1,21
 346 521 346 521 316.5 498.5 c 128,-1,22
 287 476 287 476 253.5 442 c 128,-1,23
 220 408 220 408 189 368 c 128,-1,24
 158 328 158 328 133.5 284.5 c 128,-1,25
 109 241 109 241 98 201 c 128,-1,26
 87 161 87 161 92.5 127 c 128,-1,27
 98 93 98 93 128 71 c 1,28,29
 169 68 169 68 222.5 79.5 c 128,-1,30
 276 91 276 91 332.5 109.5 c 128,-1,31
 389 128 389 128 444.5 150.5 c 128,-1,32
 500 173 500 173 545.5 191.5 c 128,-1,33
 591 210 591 210 623 220.5 c 128,-1,34
 655 231 655 231 665 226 c 0,35,36
 683 217 683 217 675.5 201 c 128,-1,37
 668 185 668 185 641.5 165.5 c 128,-1,38
 615 146 615 146 573.5 125 c 128,-1,39
 532 104 532 104 483.5 84.5 c 128,-1,40
 435 65 435 65 383 48.5 c 128,-1,41
 331 32 331 32 282.5 21.5 c 128,-1,42
 234 11 234 11 193.5 8.5 c 128,-1,43
 153 6 153 6 128 14 c 0,0,1
289 -55 m 0,44,45
 287 -52 287 -52 281 -41.5 c 128,-1,46
 275 -31 275 -31 274 -28 c 1,47,48
 274 -17 274 -17 271 8.5 c 128,-1,49
 268 34 268 34 263.5 66.5 c 128,-1,50
 259 99 259 99 254 135.5 c 128,-1,51
 249 172 249 172 245 205 c 128,-1,52
 241 238 241 238 238 263 c 128,-1,53
 235 288 235 288 236 299 c 0,54,55
 236 309 236 309 238 341 c 128,-1,56
 240 373 240 373 243 416.5 c 128,-1,57
 246 460 246 460 249.5 508.5 c 128,-1,58
 253 557 253 557 256 600.5 c 128,-1,59
 259 644 259 644 261 675.5 c 128,-1,60
 263 707 263 707 264 717 c 0,61,62
 264 719 264 719 265.5 732 c 128,-1,63
 267 745 267 745 270.5 762 c 128,-1,64
 274 779 274 779 279 796 c 128,-1,65
 284 813 284 813 290.5 823.5 c 128,-1,66
 297 834 297 834 304.5 833.5 c 128,-1,67
 312 833 312 833 321 816 c 1,68,69
 307 715 307 715 297 604.5 c 128,-1,70
 287 494 287 494 285.5 380.5 c 128,-1,71
 284 267 284 267 294 156 c 128,-1,72
 304 45 304 45 331 -55 c 1,73,74
 322 -72 322 -72 310 -70.5 c 128,-1,75
 298 -69 298 -69 289 -55 c 0,44,45
EndSplineSet
EndChar

StartChar: sterling
Encoding: 163 163 100
Width: 415
Flags: W
LayerCount: 2
Fore
SplineSet
125 331 m 1,0,1
 115 332 115 332 106.5 333 c 128,-1,2
 98 334 98 334 90 335 c 1,3,4
 82 289 82 289 77 245.5 c 128,-1,5
 72 202 72 202 71.5 165 c 128,-1,6
 71 128 71 128 74 99.5 c 128,-1,7
 77 71 77 71 85 56 c 1,8,9
 99 62 99 62 138.5 71.5 c 128,-1,10
 178 81 178 81 233 83 c 128,-1,11
 288 85 288 85 352 73.5 c 128,-1,12
 416 62 416 62 480 28 c 0,13,14
 492 21 492 21 482.5 19.5 c 128,-1,15
 473 18 473 18 448.5 19 c 128,-1,16
 424 20 424 20 388.5 23 c 128,-1,17
 353 26 353 26 313.5 29 c 128,-1,18
 274 32 274 32 234 34 c 128,-1,19
 194 36 194 36 160 35 c 128,-1,20
 126 34 126 34 102 29 c 128,-1,21
 78 24 78 24 71 14 c 1,22,23
 42 74 42 74 35.5 160.5 c 128,-1,24
 29 247 29 247 40 342 c 1,25,26
 7 348 7 348 -5.5 353.5 c 128,-1,27
 -18 359 -18 359 -15 364 c 128,-1,28
 -12 369 -12 369 4 372.5 c 128,-1,29
 20 376 20 376 45 379 c 1,30,31
 55 445 55 445 73 508.5 c 128,-1,32
 91 572 91 572 116 626.5 c 128,-1,33
 141 681 141 681 172 722.5 c 128,-1,34
 203 764 203 764 239.5 785.5 c 128,-1,35
 276 807 276 807 317 804.5 c 128,-1,36
 358 802 358 802 403 769 c 1,37,-1
 366 703 l 1,38,39
 335 733 335 733 306.5 736 c 128,-1,40
 278 739 278 739 252 721.5 c 128,-1,41
 226 704 226 704 203 669.5 c 128,-1,42
 180 635 180 635 160.5 589.5 c 128,-1,43
 141 544 141 544 125.5 490.5 c 128,-1,44
 110 437 110 437 99 382 c 1,45,46
 136 383 136 383 176.5 382 c 128,-1,47
 217 381 217 381 252.5 376.5 c 128,-1,48
 288 372 288 372 315 364 c 128,-1,49
 342 356 342 356 351 344 c 1,50,51
 338 344 338 344 306 342 c 128,-1,52
 274 340 274 340 238 338 c 128,-1,53
 202 336 202 336 170 334 c 128,-1,54
 138 332 138 332 125 331 c 1,0,1
EndSplineSet
EndChar

StartChar: currency
Encoding: 164 164 101
Width: 742
Flags: W
LayerCount: 2
Fore
SplineSet
163 140 m 1,0,1
 150 142 150 142 144.5 159 c 128,-1,2
 139 176 139 176 140.5 200.5 c 128,-1,3
 142 225 142 225 150 255 c 128,-1,4
 158 285 158 285 170 314.5 c 128,-1,5
 182 344 182 344 198 370 c 128,-1,6
 214 396 214 396 233 412 c 1,7,8
 215 435 215 435 190 456 c 128,-1,9
 165 477 165 477 143.5 499.5 c 128,-1,10
 122 522 122 522 108 547 c 128,-1,11
 94 572 94 572 99 603 c 1,12,13
 121 604 121 604 146 586 c 128,-1,14
 171 568 171 568 193.5 542 c 128,-1,15
 216 516 216 516 233.5 486.5 c 128,-1,16
 251 457 251 457 257 436 c 1,17,18
 276 469 276 469 309 487 c 128,-1,19
 342 505 342 505 378 510.5 c 128,-1,20
 414 516 414 516 448 508.5 c 128,-1,21
 482 501 482 501 504 483 c 1,22,23
 579 536 579 536 624.5 559.5 c 128,-1,24
 670 583 670 583 690.5 586 c 128,-1,25
 711 589 711 589 708 575.5 c 128,-1,26
 705 562 705 562 682.5 540.5 c 128,-1,27
 660 519 660 519 620.5 494.5 c 128,-1,28
 581 470 581 470 528 451 c 1,29,30
 537 428 537 428 535.5 402 c 128,-1,31
 534 376 534 376 524.5 348 c 128,-1,32
 515 320 515 320 499.5 292 c 128,-1,33
 484 264 484 264 465 238 c 1,34,35
 487 227 487 227 509 204 c 128,-1,36
 531 181 531 181 549.5 155.5 c 128,-1,37
 568 130 568 130 579.5 105.5 c 128,-1,38
 591 81 591 81 592.5 66.5 c 128,-1,39
 594 52 594 52 583 51 c 128,-1,40
 572 50 572 50 544 71 c 1,41,42
 532 90 532 90 516 106 c 128,-1,43
 500 122 500 122 483.5 137.5 c 128,-1,44
 467 153 467 153 453 169 c 128,-1,45
 439 185 439 185 433 203 c 1,46,47
 421 180 421 180 394 163 c 128,-1,48
 367 146 367 146 335 136 c 128,-1,49
 303 126 303 126 270.5 123 c 128,-1,50
 238 120 238 120 215 126 c 1,51,52
 204 114 204 114 185.5 96.5 c 128,-1,53
 167 79 167 79 146 62.5 c 128,-1,54
 125 46 125 46 106.5 33 c 128,-1,55
 88 20 88 20 77 16.5 c 128,-1,56
 66 13 66 13 67.5 22 c 128,-1,57
 69 31 69 31 88 57 c 1,58,-1
 163 140 l 1,0,1
184 186 m 0,59,60
 185 178 185 178 190 173.5 c 128,-1,61
 195 169 195 169 200 166.5 c 128,-1,62
 205 164 205 164 209.5 162.5 c 128,-1,63
 214 161 214 161 215 160 c 0,64,65
 238 146 238 146 270 153 c 128,-1,66
 302 160 302 160 336.5 180.5 c 128,-1,67
 371 201 371 201 404 231 c 128,-1,68
 437 261 437 261 462 294.5 c 128,-1,69
 487 328 487 328 500 360.5 c 128,-1,70
 513 393 513 393 507 418.5 c 128,-1,71
 501 444 501 444 472.5 457.5 c 128,-1,72
 444 471 444 471 386 467 c 1,73,74
 378 468 378 468 358.5 456.5 c 128,-1,75
 339 445 339 445 315 423.5 c 128,-1,76
 291 402 291 402 265 373.5 c 128,-1,77
 239 345 239 345 219 313 c 128,-1,78
 199 281 199 281 188.5 248.5 c 128,-1,79
 178 216 178 216 184 186 c 0,59,60
EndSplineSet
EndChar

StartChar: yen
Encoding: 165 165 102
Width: 502
Flags: W
LayerCount: 2
Fore
SplineSet
94 310 m 1,0,1
 100 322 100 322 119 332 c 128,-1,2
 138 342 138 342 165.5 350 c 128,-1,3
 193 358 193 358 226 362.5 c 128,-1,4
 259 367 259 367 293 369 c 1,5,6
 294 381 294 381 294.5 393.5 c 128,-1,7
 295 406 295 406 295 419 c 1,8,9
 290 431 290 431 273 457.5 c 128,-1,10
 256 484 256 484 232 520 c 128,-1,11
 208 556 208 556 180 596.5 c 128,-1,12
 152 637 152 637 126.5 677 c 128,-1,13
 101 717 101 717 80.5 752 c 128,-1,14
 60 787 60 787 50 811 c 128,-1,15
 40 835 40 835 43.5 844.5 c 128,-1,16
 47 854 47 854 70 843 c 1,17,18
 88 827 88 827 113.5 791 c 128,-1,19
 139 755 139 755 167.5 710.5 c 128,-1,20
 196 666 196 666 225.5 619 c 128,-1,21
 255 572 255 572 280 535 c 128,-1,22
 305 498 305 498 324 476.5 c 128,-1,23
 343 455 343 455 351 461 c 1,24,25
 361 480 361 480 377 516 c 128,-1,26
 393 552 393 552 413 597 c 128,-1,27
 433 642 433 642 455.5 692 c 128,-1,28
 478 742 478 742 500.5 788 c 128,-1,29
 523 834 523 834 544.5 873 c 128,-1,30
 566 912 566 912 584 935 c 128,-1,31
 602 958 602 958 615 961.5 c 128,-1,32
 628 965 628 965 634 941 c 1,33,34
 621 919 621 919 594.5 862.5 c 128,-1,35
 568 806 568 806 535 727.5 c 128,-1,36
 502 649 502 649 465 555 c 128,-1,37
 428 461 428 461 393 363 c 1,38,39
 423 358 423 358 444.5 348.5 c 128,-1,40
 466 339 466 339 475 325 c 1,41,42
 470 319 470 319 441.5 312.5 c 128,-1,43
 413 306 413 306 371 300 c 1,44,45
 366 286 366 286 362.5 273.5 c 128,-1,46
 359 261 359 261 354 247 c 1,47,48
 372 247 372 247 392.5 247 c 128,-1,49
 413 247 413 247 432 247 c 128,-1,50
 451 247 451 247 466 247 c 128,-1,51
 481 247 481 247 488 247 c 1,52,53
 496 243 496 243 501.5 235 c 128,-1,54
 507 227 507 227 503 218 c 1,55,56
 468 213 468 213 425 206.5 c 128,-1,57
 382 200 382 200 336 192 c 1,58,59
 318 134 318 134 303.5 80 c 128,-1,60
 289 26 289 26 279 -21.5 c 128,-1,61
 269 -69 269 -69 265 -108.5 c 128,-1,62
 261 -148 261 -148 264 -177 c 1,63,64
 260 -190 260 -190 252 -201.5 c 128,-1,65
 244 -213 244 -213 233.5 -218 c 128,-1,66
 223 -223 223 -223 212.5 -217.5 c 128,-1,67
 202 -212 202 -212 194 -190 c 1,68,69
 179 -154 179 -154 180.5 -112 c 128,-1,70
 182 -70 182 -70 192.5 -23.5 c 128,-1,71
 203 23 203 23 219.5 74 c 128,-1,72
 236 125 236 125 252 178 c 1,73,74
 198 168 198 168 152.5 160 c 128,-1,75
 107 152 107 152 79 147 c 0,76,77
 68 145 68 145 60.5 145.5 c 128,-1,78
 53 146 53 146 47 149 c 128,-1,79
 41 152 41 152 35.5 158.5 c 128,-1,80
 30 165 30 165 23 176 c 0,81,82
 14 189 14 189 40 200 c 128,-1,83
 66 211 66 211 107.5 219.5 c 128,-1,84
 149 228 149 228 194.5 234.5 c 128,-1,85
 240 241 240 241 270 244 c 1,86,87
 273 256 273 256 276 267.5 c 128,-1,88
 279 279 279 279 281 291 c 1,89,90
 248 289 248 289 215.5 288.5 c 128,-1,91
 183 288 183 288 157.5 290 c 128,-1,92
 132 292 132 292 114.5 296.5 c 128,-1,93
 97 301 97 301 94 310 c 1,0,1
EndSplineSet
EndChar

StartChar: brokenbar
Encoding: 166 166 103
Width: 141
Flags: W
LayerCount: 2
Fore
SplineSet
35 504 m 1,0,1
 36 536 36 536 37.5 571 c 128,-1,2
 39 606 39 606 40 637 c 128,-1,3
 41 668 41 668 42 690.5 c 128,-1,4
 43 713 43 713 43 720 c 0,5,6
 43 722 43 722 44.5 735 c 128,-1,7
 46 748 46 748 49.5 765 c 128,-1,8
 53 782 53 782 57.5 799 c 128,-1,9
 62 816 62 816 68.5 826.5 c 128,-1,10
 75 837 75 837 82.5 836.5 c 128,-1,11
 90 836 90 836 99 819 c 1,12,13
 101 746 101 746 100.5 664 c 128,-1,14
 100 582 100 582 98 509 c 1,15,-1
 35 504 l 1,0,1
100 440 m 1,16,17
 98 376 98 376 95 325.5 c 128,-1,18
 92 275 92 275 89.5 227 c 128,-1,19
 87 179 87 179 85.5 128.5 c 128,-1,20
 84 78 84 78 85 14 c 1,21,22
 77 -3 77 -3 64.5 -1 c 128,-1,23
 52 1 52 1 43 14 c 0,24,25
 41 17 41 17 35.5 28 c 128,-1,26
 30 39 30 39 29 42 c 1,27,28
 29 58 29 58 28.5 98.5 c 128,-1,29
 28 139 28 139 28 184 c 128,-1,30
 28 229 28 229 28.5 269 c 128,-1,31
 29 309 29 309 29 325 c 0,32,33
 29 332 29 332 29.5 337.5 c 128,-1,34
 30 343 30 343 31 353.5 c 128,-1,35
 32 364 32 364 33 382.5 c 128,-1,36
 34 401 34 401 35 436 c 1,37,-1
 100 440 l 1,16,17
EndSplineSet
EndChar

StartChar: section
Encoding: 167 167 104
Width: 755
Flags: W
LayerCount: 2
Fore
SplineSet
93 24 m 0,0,1
 78 34 78 34 93 50.5 c 128,-1,2
 108 67 108 67 140 86.5 c 128,-1,3
 172 106 172 106 214 127 c 128,-1,4
 256 148 256 148 295.5 167 c 128,-1,5
 335 186 335 186 365 200 c 128,-1,6
 395 214 395 214 403 221 c 0,7,8
 431 245 431 245 440.5 263.5 c 128,-1,9
 450 282 450 282 445.5 295.5 c 128,-1,10
 441 309 441 309 424 318 c 128,-1,11
 407 327 407 327 383 334 c 1,12,-1
 265 340 l 1,13,14
 224 346 224 346 188 356.5 c 128,-1,15
 152 367 152 367 134.5 382.5 c 128,-1,16
 117 398 117 398 124.5 420.5 c 128,-1,17
 132 443 132 443 178 475 c 0,18,19
 194 486 194 486 223.5 506.5 c 128,-1,20
 253 527 253 527 288 549.5 c 128,-1,21
 323 572 323 572 358.5 592.5 c 128,-1,22
 394 613 394 613 423 624 c 1,23,24
 378 631 378 631 336 638 c 128,-1,25
 294 645 294 645 271.5 658 c 128,-1,26
 249 671 249 671 254.5 691.5 c 128,-1,27
 260 712 260 712 309 746 c 0,28,29
 327 759 327 759 361 783 c 128,-1,30
 395 807 395 807 434.5 831.5 c 128,-1,31
 474 856 474 856 513 876.5 c 128,-1,32
 552 897 552 897 578 902 c 0,33,34
 591 905 591 905 605.5 900 c 128,-1,35
 620 895 620 895 628.5 886 c 128,-1,36
 637 877 637 877 636.5 866 c 128,-1,37
 636 855 636 855 620 846 c 0,38,39
 549 807 549 807 483 771.5 c 128,-1,40
 417 736 417 736 351 690 c 1,41,42
 346 681 346 681 352 673.5 c 128,-1,43
 358 666 358 666 366 662 c 1,44,45
 487 649 487 649 552.5 627 c 128,-1,46
 618 605 618 605 642 578 c 128,-1,47
 666 551 666 551 654.5 521 c 128,-1,48
 643 491 643 491 610 461 c 128,-1,49
 577 431 577 431 528 403 c 128,-1,50
 479 375 479 375 428 353 c 1,51,52
 491 332 491 332 511.5 306 c 128,-1,53
 532 280 532 280 523 251 c 128,-1,54
 514 222 514 222 480.5 192.5 c 128,-1,55
 447 163 447 163 402 136 c 128,-1,56
 357 109 357 109 306 86 c 128,-1,57
 255 63 255 63 210.5 47.5 c 128,-1,58
 166 32 166 32 133.5 25.5 c 128,-1,59
 101 19 101 19 93 24 c 0,0,1
535 493 m 0,60,61
 575 528 575 528 579 548.5 c 128,-1,62
 583 569 583 569 568 577.5 c 128,-1,63
 553 586 553 586 528.5 584.5 c 128,-1,64
 504 583 504 583 488 574 c 0,65,66
 418 535 418 535 352 499.5 c 128,-1,67
 286 464 286 464 220 419 c 1,68,69
 214 405 214 405 224.5 398 c 128,-1,70
 235 391 235 391 250.5 387.5 c 128,-1,71
 266 384 266 384 283 382.5 c 128,-1,72
 300 381 300 381 308 380 c 1,73,74
 341 398 341 398 377.5 415.5 c 128,-1,75
 414 433 414 433 447 448 c 128,-1,76
 480 463 480 463 504 475 c 128,-1,77
 528 487 528 487 535 493 c 0,60,61
EndSplineSet
EndChar

StartChar: dieresis
Encoding: 168 168 105
Width: 597
Flags: W
LayerCount: 2
Fore
SplineSet
138 532 m 0,0,1
 120 559 120 559 128.5 585 c 128,-1,2
 137 611 137 611 157 626 c 128,-1,3
 177 641 177 641 200.5 638 c 128,-1,4
 224 635 224 635 237 603 c 0,5,6
 244 584 244 584 234.5 563.5 c 128,-1,7
 225 543 225 543 207.5 530 c 128,-1,8
 190 517 190 517 170 515.5 c 128,-1,9
 150 514 150 514 138 532 c 0,0,1
317 539 m 0,10,11
 299 565 299 565 307.5 591.5 c 128,-1,12
 316 618 316 618 336 632.5 c 128,-1,13
 356 647 356 647 379.5 644 c 128,-1,14
 403 641 403 641 416 609 c 0,15,16
 423 590 423 590 413.5 569.5 c 128,-1,17
 404 549 404 549 386.5 536 c 128,-1,18
 369 523 369 523 349 521.5 c 128,-1,19
 329 520 329 520 317 539 c 0,10,11
EndSplineSet
EndChar

StartChar: copyright
Encoding: 169 169 106
Width: 853
Flags: W
LayerCount: 2
Fore
SplineSet
124 27 m 1,0,1
 60 72 60 72 33.5 145 c 128,-1,2
 7 218 7 218 11 305 c 128,-1,3
 15 392 15 392 45.5 484.5 c 128,-1,4
 76 577 76 577 127 661 c 128,-1,5
 178 745 178 745 246 812.5 c 128,-1,6
 314 880 314 880 392 917 c 128,-1,7
 470 954 470 954 554.5 952.5 c 128,-1,8
 639 951 639 951 723 896 c 1,9,10
 774 866 774 866 799 815.5 c 128,-1,11
 824 765 824 765 827.5 703 c 128,-1,12
 831 641 831 641 816 570.5 c 128,-1,13
 801 500 801 500 770.5 429 c 128,-1,14
 740 358 740 358 696.5 290 c 128,-1,15
 653 222 653 222 601 164.5 c 128,-1,16
 549 107 549 107 489.5 64 c 128,-1,17
 430 21 430 21 368.5 0 c 128,-1,18
 307 -21 307 -21 245 -16 c 128,-1,19
 183 -11 183 -11 124 27 c 1,0,1
295 232 m 0,20,21
 258 245 258 245 241 269 c 128,-1,22
 224 293 224 293 222.5 324 c 128,-1,23
 221 355 221 355 233.5 391 c 128,-1,24
 246 427 246 427 267 463.5 c 128,-1,25
 288 500 288 500 315.5 535 c 128,-1,26
 343 570 343 570 372.5 598.5 c 128,-1,27
 402 627 402 627 431 647.5 c 128,-1,28
 460 668 460 668 483.5 675.5 c 128,-1,29
 507 683 507 683 523.5 676 c 128,-1,30
 540 669 540 669 545 642 c 0,31,32
 547 627 547 627 541.5 609.5 c 128,-1,33
 536 592 536 592 525.5 575.5 c 128,-1,34
 515 559 515 559 502 545.5 c 128,-1,35
 489 532 489 532 476.5 525 c 128,-1,36
 464 518 464 518 454 520 c 128,-1,37
 444 522 444 522 440 537 c 1,38,39
 452 556 452 556 465.5 574.5 c 128,-1,40
 479 593 479 593 493 610 c 1,41,42
 486 623 486 623 461 609.5 c 128,-1,43
 436 596 436 596 404 566 c 128,-1,44
 372 536 372 536 340.5 495 c 128,-1,45
 309 454 309 454 289 412 c 128,-1,46
 269 370 269 370 267.5 333 c 128,-1,47
 266 296 266 296 295 274 c 1,48,49
 332 271 332 271 380.5 283.5 c 128,-1,50
 429 296 429 296 478.5 314.5 c 128,-1,51
 528 333 528 333 573.5 352 c 128,-1,52
 619 371 619 371 649 382 c 1,53,54
 676 431 676 431 696 479.5 c 128,-1,55
 716 528 716 528 726.5 573 c 128,-1,56
 737 618 737 618 737.5 657.5 c 128,-1,57
 738 697 738 697 726 726 c 1,58,59
 711 795 711 795 676 827.5 c 128,-1,60
 641 860 641 860 594.5 863.5 c 128,-1,61
 548 867 548 867 493.5 844.5 c 128,-1,62
 439 822 439 822 383 781 c 128,-1,63
 327 740 327 740 274 684.5 c 128,-1,64
 221 629 221 629 178 565.5 c 128,-1,65
 135 502 135 502 105.5 434 c 128,-1,66
 76 366 76 366 68 301.5 c 128,-1,67
 60 237 60 237 76.5 179 c 128,-1,68
 93 121 93 121 142 77 c 1,69,70
 197 38 197 38 258 42 c 128,-1,71
 319 46 319 46 380 81 c 128,-1,72
 441 116 441 116 498 175 c 128,-1,73
 555 234 555 234 602 304 c 1,74,75
 564 286 564 286 519.5 270 c 128,-1,76
 475 254 475 254 432.5 243 c 128,-1,77
 390 232 390 232 353.5 228.5 c 128,-1,78
 317 225 317 225 295 232 c 0,20,21
EndSplineSet
EndChar

StartChar: guillemotleft
Encoding: 171 171 108
Width: 853
Flags: W
LayerCount: 2
Fore
SplineSet
495 14 m 0,0,1
 394 80 394 80 291.5 148 c 128,-1,2
 189 216 189 216 99 297 c 0,3,4
 79 315 79 315 58.5 333 c 128,-1,5
 38 351 38 351 26 370 c 128,-1,6
 14 389 14 389 16 409 c 128,-1,7
 18 429 18 429 43 452 c 0,8,9
 54 462 54 462 77 483 c 128,-1,10
 100 504 100 504 129.5 530.5 c 128,-1,11
 159 557 159 557 191 586 c 128,-1,12
 223 615 223 615 252.5 641.5 c 128,-1,13
 282 668 282 668 305 689 c 128,-1,14
 328 710 328 710 339 720 c 1,15,16
 345 722 345 722 356.5 720 c 128,-1,17
 368 718 368 718 377 712 c 128,-1,18
 386 706 386 706 389 697.5 c 128,-1,19
 392 689 392 689 382 678 c 2,20,-1
 114 410 l 2,21,22
 105 401 105 401 110 388 c 128,-1,23
 115 375 115 375 128 359.5 c 128,-1,24
 141 344 141 344 159 328.5 c 128,-1,25
 177 313 177 313 194 300.5 c 128,-1,26
 211 288 211 288 224.5 279 c 128,-1,27
 238 270 238 270 241 268 c 0,28,29
 252 260 252 260 275 244.5 c 128,-1,30
 298 229 298 229 327 209.5 c 128,-1,31
 356 190 356 190 388.5 168.5 c 128,-1,32
 421 147 421 147 450 127.5 c 128,-1,33
 479 108 479 108 502.5 93 c 128,-1,34
 526 78 526 78 537 71 c 1,35,36
 550 55 550 55 552 39.5 c 128,-1,37
 554 24 554 24 548 14 c 128,-1,38
 542 4 542 4 528 3 c 128,-1,39
 514 2 514 2 495 14 c 0,0,1
743 48 m 0,40,41
 643 114 643 114 540.5 182 c 128,-1,42
 438 250 438 250 348 331 c 0,43,44
 328 349 328 349 307.5 367 c 128,-1,45
 287 385 287 385 275 404 c 128,-1,46
 263 423 263 423 265 443 c 128,-1,47
 267 463 267 463 292 485 c 0,48,49
 303 495 303 495 326 516.5 c 128,-1,50
 349 538 349 538 378.5 564.5 c 128,-1,51
 408 591 408 591 440 620 c 128,-1,52
 472 649 472 649 501.5 675.5 c 128,-1,53
 531 702 531 702 554 723 c 128,-1,54
 577 744 577 744 588 754 c 1,55,56
 594 756 594 756 605.5 754 c 128,-1,57
 617 752 617 752 626 746 c 128,-1,58
 635 740 635 740 638 731 c 128,-1,59
 641 722 641 722 631 712 c 2,60,-1
 362 443 l 2,61,62
 353 435 353 435 358.5 421.5 c 128,-1,63
 364 408 364 408 377 393 c 128,-1,64
 390 378 390 378 408 362.5 c 128,-1,65
 426 347 426 347 443 334.5 c 128,-1,66
 460 322 460 322 473 313 c 128,-1,67
 486 304 486 304 489 302 c 0,68,69
 500 294 500 294 523 278.5 c 128,-1,70
 546 263 546 263 575 243.5 c 128,-1,71
 604 224 604 224 636.5 202.5 c 128,-1,72
 669 181 669 181 698 161.5 c 128,-1,73
 727 142 727 142 750.5 126.5 c 128,-1,74
 774 111 774 111 785 104 c 1,75,76
 798 88 798 88 800.5 72.5 c 128,-1,77
 803 57 803 57 796.5 47 c 128,-1,78
 790 37 790 37 776 36 c 128,-1,79
 762 35 762 35 743 48 c 0,40,41
EndSplineSet
EndChar

StartChar: logicalnot
Encoding: 172 172 109
Width: 644
Flags: W
LayerCount: 2
Fore
SplineSet
588 206 m 1,0,1
 574 180 574 180 560 191.5 c 128,-1,2
 546 203 546 203 535 236 c 128,-1,3
 524 269 524 269 518 316 c 128,-1,4
 512 363 512 363 515 409 c 1,5,6
 497 410 497 410 461.5 406 c 128,-1,7
 426 402 426 402 383.5 397 c 128,-1,8
 341 392 341 392 294.5 388.5 c 128,-1,9
 248 385 248 385 207 386 c 128,-1,10
 166 387 166 387 135 395.5 c 128,-1,11
 104 404 104 404 91 423 c 0,12,13
 86 431 86 431 104 440 c 128,-1,14
 122 449 122 449 155 458 c 128,-1,15
 188 467 188 467 232 474 c 128,-1,16
 276 481 276 481 323 485 c 128,-1,17
 370 489 370 489 416 488.5 c 128,-1,18
 462 488 462 488 499 481 c 128,-1,19
 536 474 536 474 559.5 460 c 128,-1,20
 583 446 583 446 586 423 c 1,21,-1
 588 206 l 1,0,1
EndSplineSet
EndChar

StartChar: registered
Encoding: 174 174 110
Width: 853
Flags: W
LayerCount: 2
Fore
SplineSet
124 27 m 1,0,1
 60 72 60 72 33.5 145 c 128,-1,2
 7 218 7 218 11 305 c 128,-1,3
 15 392 15 392 45.5 484.5 c 128,-1,4
 76 577 76 577 127 661 c 128,-1,5
 178 745 178 745 246 812.5 c 128,-1,6
 314 880 314 880 392 917 c 128,-1,7
 470 954 470 954 554.5 952.5 c 128,-1,8
 639 951 639 951 723 896 c 1,9,10
 774 866 774 866 799 815.5 c 128,-1,11
 824 765 824 765 827.5 703 c 128,-1,12
 831 641 831 641 816 570.5 c 128,-1,13
 801 500 801 500 770.5 429 c 128,-1,14
 740 358 740 358 696.5 290 c 128,-1,15
 653 222 653 222 601 164.5 c 128,-1,16
 549 107 549 107 489.5 64 c 128,-1,17
 430 21 430 21 368.5 0 c 128,-1,18
 307 -21 307 -21 245 -16 c 128,-1,19
 183 -11 183 -11 124 27 c 1,0,1
142 77 m 1,20,21
 191 41 191 41 246 41.5 c 128,-1,22
 301 42 301 42 356.5 68.5 c 128,-1,23
 412 95 412 95 465.5 143.5 c 128,-1,24
 519 192 519 192 565 252 c 128,-1,25
 611 312 611 312 648 379 c 128,-1,26
 685 446 685 446 707.5 510 c 128,-1,27
 730 574 730 574 736 630.5 c 128,-1,28
 742 687 742 687 726 726 c 1,29,30
 711 795 711 795 676 827.5 c 128,-1,31
 641 860 641 860 594.5 863.5 c 128,-1,32
 548 867 548 867 493.5 844.5 c 128,-1,33
 439 822 439 822 383 781 c 128,-1,34
 327 740 327 740 274 684.5 c 128,-1,35
 221 629 221 629 178 565.5 c 128,-1,36
 135 502 135 502 105.5 434 c 128,-1,37
 76 366 76 366 68 301.5 c 128,-1,38
 60 237 60 237 76.5 179 c 128,-1,39
 93 121 93 121 142 77 c 1,20,21
170 199 m 1,40,41
 165 211 165 211 177 240.5 c 128,-1,42
 189 270 189 270 210 308 c 128,-1,43
 231 346 231 346 256 387.5 c 128,-1,44
 281 429 281 429 302 464.5 c 128,-1,45
 323 500 323 500 336.5 525 c 128,-1,46
 350 550 350 550 348 556 c 1,47,48
 340 558 340 558 331.5 554.5 c 128,-1,49
 323 551 323 551 314.5 547.5 c 128,-1,50
 306 544 306 544 298 543 c 128,-1,51
 290 542 290 542 284 550 c 256,52,53
 278 558 278 558 285.5 564.5 c 128,-1,54
 293 571 293 571 298 574 c 0,55,56
 401 640 401 640 487 667 c 128,-1,57
 573 694 573 694 629 691.5 c 128,-1,58
 685 689 685 689 704.5 661.5 c 128,-1,59
 724 634 724 634 692.5 590.5 c 128,-1,60
 661 547 661 547 572 492.5 c 128,-1,61
 483 438 483 438 324 381 c 1,62,63
 319 371 319 371 343 356.5 c 128,-1,64
 367 342 367 342 402.5 325 c 128,-1,65
 438 308 438 308 477 290.5 c 128,-1,66
 516 273 516 273 541.5 256 c 128,-1,67
 567 239 567 239 571 224 c 128,-1,68
 575 209 575 209 540 199 c 0,69,70
 539 198 539 198 521 206 c 128,-1,71
 503 214 503 214 482 224 c 128,-1,72
 461 234 461 234 443 243 c 128,-1,73
 425 252 425 252 423 254 c 0,74,75
 370 292 370 292 334.5 300 c 128,-1,76
 299 308 299 308 276 298.5 c 128,-1,77
 253 289 253 289 239 268.5 c 128,-1,78
 225 248 225 248 214.5 229 c 128,-1,79
 204 210 204 210 194 199.5 c 128,-1,80
 184 189 184 189 170 199 c 1,40,41
327 441 m 1,81,82
 432 469 432 469 495 500 c 128,-1,83
 558 531 558 531 588 560 c 128,-1,84
 618 589 618 589 619.5 612 c 128,-1,85
 621 635 621 635 603 647 c 128,-1,86
 585 659 585 659 552 656 c 128,-1,87
 519 653 519 653 480 630.5 c 128,-1,88
 441 608 441 608 400.5 562 c 128,-1,89
 360 516 360 516 327 441 c 1,81,82
EndSplineSet
EndChar

StartChar: degree
Encoding: 176 176 111
Width: 410
Flags: W
LayerCount: 2
Fore
SplineSet
83 531 m 0,0,1
 52 543 52 543 43.5 565 c 128,-1,2
 35 587 35 587 43 612.5 c 128,-1,3
 51 638 51 638 70.5 664.5 c 128,-1,4
 90 691 90 691 114.5 713 c 128,-1,5
 139 735 139 735 164 749.5 c 128,-1,6
 189 764 189 764 208 766 c 0,7,8
 270 774 270 774 297.5 754.5 c 128,-1,9
 325 735 325 735 326 703.5 c 128,-1,10
 327 672 327 672 305.5 635 c 128,-1,11
 284 598 284 598 249.5 569.5 c 128,-1,12
 215 541 215 541 171 527.5 c 128,-1,13
 127 514 127 514 83 531 c 0,0,1
91 587 m 0,14,15
 97 564 97 564 115.5 558.5 c 128,-1,16
 134 553 134 553 157.5 560.5 c 128,-1,17
 181 568 181 568 206 585 c 128,-1,18
 231 602 231 602 251.5 622.5 c 128,-1,19
 272 643 272 643 284 664 c 128,-1,20
 296 685 296 685 292.5 700.5 c 128,-1,21
 289 716 289 716 267.5 724 c 128,-1,22
 246 732 246 732 199 725 c 1,23,24
 183 711 183 711 161 699 c 128,-1,25
 139 687 139 687 121 672 c 128,-1,26
 103 657 103 657 93 637 c 128,-1,27
 83 617 83 617 91 587 c 0,14,15
EndSplineSet
EndChar

